<svg fill="none" xmlns="http://www.w3.org/2000/svg" viewBox="0 0 392 858" aria-labelledby="branchDropdownTitle">
  <title id="branchDropdownTitle">See all of your local and remote branches right from GitShark!</title>
  <path d="M389 156h1c1.105 0 2 .927 2 2.071v102.858c0 1.144-.895 2.071-2 2.071h-1V156zM389 321h1c1.105 0 2 .927 2 2.071v51.858c0 1.144-.895 2.071-2 2.071h-1v-56z" fill="var(--primary)"/>
  <path d="M0 87.4c0-38.9135 0-58.3703 11.0497-71.2746 1.5691-1.8324 3.2801-3.539 5.1173-5.1041C29.1045 0 48.6114 0 87.6253 0H301.375c39.014 0 58.52 0 71.458 11.0213 1.837 1.5651 3.548 3.2717 5.117 5.1041C389 29.0297 389 48.4865 389 87.4v683.2c0 38.913 0 58.37-11.05 71.275-1.569 1.832-3.28 3.539-5.117 5.104C359.895 858 340.389 858 301.375 858H87.6252c-39.0138 0-58.5207 0-71.4582-11.021-1.8372-1.565-3.5482-3.272-5.1173-5.104C0 828.97 0 809.513 0 770.6V87.4z" fill="var(--tinted_surface)"/>
  <path d="M.5 87.4c0-19.4694.000869-34.0261 1.37755-45.3303 1.37525-11.2924 4.11706-19.272 9.55195-25.6191 1.552-1.8125 3.2445-3.5006 5.0617-5.0487 6.3637-5.42114 14.3644-8.15609 25.6865-9.52786C53.5112.50086 68.1058.5 87.6253.5H301.375c19.519 0 34.114.00086 45.447 1.37404 11.322 1.37177 19.323 4.10672 25.687 9.52786 1.817 1.5481 3.509 3.2362 5.061 5.0487 5.435 6.3471 8.177 14.3267 9.552 25.6191C388.499 53.3739 388.5 67.9306 388.5 87.4v683.2c0 19.469-.001 34.026-1.378 45.33-1.375 11.293-4.117 19.272-9.552 25.619-1.552 1.813-3.244 3.501-5.061 5.049-6.364 5.421-14.365 8.156-25.687 9.528-11.333 1.373-25.928 1.374-45.447 1.374H87.6252c-19.5194 0-34.114-.001-45.4476-1.374-11.322-1.372-19.3227-4.107-25.6864-9.528-1.8172-1.548-3.5097-3.236-5.0617-5.049-5.43489-6.347-8.1767-14.326-9.55195-25.619C.500869 804.626.5 790.069.5 770.6V87.4z" stroke="var(--divider_no_alpha)" stroke-opacity=".12"/>
  <path fill-rule="evenodd" clip-rule="evenodd" d="M11.0497 16.1254C0 29.0297 0 48.4865 0 87.4v683.2c0 38.913 0 58.37 11.0497 71.275 1.5691 1.832 3.2801 3.539 5.1173 5.104C29.1045 858 48.6114 858 87.6252 858H301.375c39.014 0 58.52 0 71.458-11.021 1.837-1.565 3.548-3.272 5.117-5.104C389 828.97 389 809.513 389 770.6V87.4c0-38.9135 0-58.3703-11.05-71.2746-1.569-1.8324-3.28-3.539-5.117-5.1041C359.895 0 340.389 0 301.375 0H87.6253C48.6114 0 29.1045 0 16.167 11.0213c-1.8372 1.5651-3.5482 3.2717-5.1173 5.1041zm-.2248 4.4917C2 31.7824 2 48.1383 2 80.85v696.3c0 32.712 0 49.068 8.8249 60.233 2.0011 2.532 4.2946 4.819 6.8329 6.815C28.8522 853 45.2506 853 78.0475 853H310.952c32.797 0 49.196 0 60.39-8.802 2.538-1.996 4.832-4.283 6.833-6.815C387 826.218 387 809.862 387 777.15V80.85c0-32.7117 0-49.0676-8.825-60.2329-2.001-2.5317-4.295-4.8192-6.833-6.8151C360.148 5 343.749 5 310.952 5H78.0475c-32.7969 0-49.1953 0-60.3897 8.802-2.5383 1.9959-4.8318 4.2834-6.8329 6.8151z" fill="white" fill-opacity=".2"/>
  <rect x="8" y="16" width="372" height="822" rx="36" fill="var(--divider_no_alpha)" fill-opacity=".12"/>
  <g clip-path="url(#branch-clip0)">
    <rect x="8" y="16" width="372" height="822" rx="36" fill="var(--surface)"/>
    <path d="M25.632 185c-.1067 0-.1973-.037-.272-.112-.0747-.075-.112-.165-.112-.272v-10.432c0-.117.0373-.208.112-.272.0747-.075.1653-.112.272-.112h1.488c.1173 0 .208.037.272.112.0747.064.112.155.112.272v8.912h5.072c.1173 0 .2133.037.288.112.0747.075.112.171.112.288v1.12c0 .117-.0373.213-.112.288-.0747.064-.1707.096-.288.096h-6.944zm12.5103.16c-1.248 0-2.2134-.32-2.896-.96-.6827-.651-1.0507-1.536-1.104-2.656l-.016-.704.016-.704c.0533-1.109.4266-1.989 1.12-2.64.6933-.651 1.6533-.976 2.88-.976 1.2266 0 2.1866.325 2.88.976.6933.651 1.0666 1.531 1.12 2.64.0106.128.016.363.016.704 0 .341-.0054.576-.016.704-.0534 1.12-.4214 2.005-1.104 2.656-.6827.64-1.648.96-2.896.96zm0-1.584c.5653 0 1.0026-.176 1.312-.528.3093-.363.48-.891.512-1.584.0106-.107.016-.315.016-.624s-.0054-.517-.016-.624c-.032-.693-.2027-1.216-.512-1.568-.3094-.363-.7467-.544-1.312-.544-.5654 0-1.0027.181-1.312.544-.3094.352-.48.875-.512 1.568l-.016.624.016.624c.032.693.2026 1.221.512 1.584.3093.352.7466.528 1.312.528zm9.6387 1.584c-1.1733 0-2.112-.325-2.816-.976-.6933-.651-1.0613-1.552-1.104-2.704l-.016-.64.016-.64c.0427-1.152.4107-2.053 1.104-2.704.704-.651 1.6427-.976 2.816-.976.832 0 1.536.149 2.112.448.5867.299 1.0187.667 1.296 1.104.288.427.4427.832.464 1.216.0107.107-.0267.197-.112.272-.0747.075-.1653.112-.272.112h-1.408c-.1067 0-.192-.021-.256-.064-.0533-.053-.1067-.139-.16-.256-.16-.416-.3733-.715-.64-.896-.256-.181-.5867-.272-.992-.272-.544 0-.9707.176-1.28.528-.3093.341-.4747.864-.496 1.568l-.016.592.016.528c.0427 1.397.6347 2.096 1.776 2.096.416 0 .752-.091 1.008-.272.256-.181.464-.48.624-.896.0533-.117.1067-.197.16-.24.064-.053.1493-.08.256-.08h1.408c.1067 0 .1973.037.272.112.0853.075.1227.165.112.272-.0213.373-.1707.773-.448 1.2-.2773.427-.704.795-1.28 1.104-.576.309-1.2907.464-2.144.464zm8.2066 0c-.544 0-1.0453-.107-1.504-.32-.448-.224-.8053-.523-1.072-.896-.256-.373-.384-.784-.384-1.232 0-.725.2934-1.312.88-1.76.5867-.448 1.392-.752 2.416-.912l2.192-.32v-.336c0-.469-.1173-.821-.352-1.056-.2346-.235-.6133-.352-1.136-.352-.352 0-.64.069-.864.208-.2133.128-.384.256-.512.384-.128.139-.2133.229-.256.272-.0426.128-.1226.192-.24.192h-1.232c-.096 0-.1813-.032-.256-.096-.064-.064-.096-.149-.096-.256.0107-.267.1387-.571.384-.912.256-.341.6454-.635 1.168-.88.5227-.245 1.1627-.368 1.92-.368 1.2587 0 2.176.283 2.752.848.576.565.864 1.307.864 2.224v5.024c0 .107-.0373.197-.112.272-.064.075-.1546.112-.272.112h-1.296c-.1066 0-.1973-.037-.272-.112-.0746-.075-.112-.165-.112-.272v-.624c-.2346.341-.5706.624-1.008.848-.4266.213-.96.32-1.6.32zm.544-1.52c.5867 0 1.0667-.192 1.44-.576.3734-.384.56-.944.56-1.68v-.336l-1.6.256c-.6186.096-1.088.251-1.408.464-.3093.213-.464.475-.464.784 0 .341.144.608.432.8.288.192.6347.288 1.04.288zm6.8307 1.36c-.1067 0-.1974-.037-.272-.112-.0747-.075-.112-.165-.112-.272v-10.592c0-.117.0373-.208.112-.272.0746-.075.1653-.112.272-.112h1.328c.1173 0 .208.037.272.112.0746.064.112.155.112.272v10.592c0 .107-.0374.197-.112.272-.064.075-.1547.112-.272.112h-1.328z" fill="var(--on_surface)"/>
    <path d="M280.56 185c-.085 0-.165-.032-.24-.096-.064-.064-.096-.144-.096-.24l.032-.144 3.856-10.32c.075-.267.261-.4.56-.4h1.744c.277 0 .464.133.56.4l3.856 10.32c.011.032.016.08.016.144 0 .096-.032.176-.096.24s-.139.096-.224.096h-1.392c-.139 0-.245-.032-.32-.096-.075-.064-.123-.133-.144-.208l-.752-1.952h-4.752l-.752 1.952c-.085.203-.24.304-.464.304h-1.392zm6.8-4.096l-1.824-4.944-1.808 4.944h3.632zm8.034 4.256c-1.077 0-1.904-.347-2.48-1.04-.576-.693-.885-1.616-.928-2.768l-.016-.528.016-.512c.032-1.12.336-2.032.912-2.736.587-.704 1.419-1.056 2.496-1.056 1.035 0 1.856.352 2.464 1.056v-3.552c0-.117.037-.208.112-.272.075-.075.165-.112.272-.112h1.36c.117 0 .208.037.272.112.075.064.112.155.112.272v10.592c0 .107-.037.197-.112.272-.064.075-.155.112-.272.112h-1.264c-.107 0-.197-.037-.272-.112-.075-.075-.112-.165-.112-.272v-.592c-.608.757-1.461 1.136-2.56 1.136zm.592-1.712c.619 0 1.077-.197 1.376-.592.299-.395.464-.88.496-1.456.011-.128.016-.336.016-.624 0-.277-.005-.48-.016-.608-.021-.533-.192-.987-.512-1.36-.309-.384-.763-.576-1.36-.576-1.152 0-1.765.709-1.84 2.128l-.016.48.016.48c.075 1.419.688 2.128 1.84 2.128zm9.471 1.712c-1.078 0-1.904-.347-2.48-1.04-.576-.693-.886-1.616-.928-2.768l-.016-.528.016-.512c.032-1.12.336-2.032.912-2.736.586-.704 1.418-1.056 2.496-1.056 1.034 0 1.856.352 2.464 1.056v-3.552c0-.117.037-.208.112-.272.074-.075.165-.112.272-.112h1.36c.117 0 .208.037.272.112.074.064.112.155.112.272v10.592c0 .107-.038.197-.112.272-.064.075-.155.112-.272.112h-1.264c-.107 0-.198-.037-.272-.112-.075-.075-.112-.165-.112-.272v-.592c-.608.757-1.462 1.136-2.56 1.136zm.592-1.712c.618 0 1.077-.197 1.376-.592.298-.395.464-.88.496-1.456.01-.128.016-.336.016-.624 0-.277-.006-.48-.016-.608-.022-.533-.192-.987-.512-1.36-.31-.384-.763-.576-1.36-.576-1.152 0-1.766.709-1.84 2.128l-.016.48.016.48c.074 1.419.688 2.128 1.84 2.128zM316.721 185c-.106 0-.197-.037-.272-.112-.074-.075-.112-.165-.112-.272v-7.552c0-.107.038-.197.112-.272.075-.075.166-.112.272-.112h1.312c.107 0 .198.037.272.112.075.075.112.165.112.272v.656c.63-.8 1.52-1.2 2.672-1.2.982 0 1.76.325 2.336.976.576.64.864 1.515.864 2.624v4.496c0 .107-.037.197-.112.272-.064.075-.154.112-.272.112h-1.408c-.106 0-.197-.037-.272-.112-.074-.075-.112-.165-.112-.272v-4.4c0-.629-.154-1.115-.464-1.456-.298-.352-.736-.528-1.312-.528-.565 0-1.013.176-1.344.528-.32.352-.48.837-.48 1.456v4.4c0 .107-.037.197-.112.272-.064.075-.154.112-.272.112h-1.408zm13.435.16c-1.184 0-2.128-.341-2.832-1.024-.694-.693-1.062-1.664-1.104-2.912l-.016-.4.016-.4c.053-1.216.426-2.171 1.12-2.864.704-.693 1.642-1.04 2.816-1.04 1.258 0 2.229.384 2.912 1.152.693.768 1.04 1.792 1.04 3.072v.336c0 .107-.038.197-.112.272-.075.075-.171.112-.288.112h-5.312v.128c.021.587.181 1.083.48 1.488.309.395.73.592 1.264.592.629 0 1.136-.245 1.52-.736.096-.117.17-.192.224-.224.064-.032.154-.048.272-.048h1.376c.096 0 .176.032.24.096.074.053.112.123.112.208 0 .256-.155.56-.464.912-.299.341-.731.64-1.296.896-.566.256-1.222.384-1.968.384zm1.776-5.04v-.048c0-.629-.16-1.136-.48-1.52-.31-.384-.742-.576-1.296-.576-.555 0-.987.192-1.296.576-.31.384-.464.891-.464 1.52v.048h3.536zm6.162 4.88c-.139 0-.251-.032-.336-.096-.075-.075-.139-.176-.192-.304l-2.288-7.424c-.011-.032-.016-.08-.016-.144 0-.096.032-.176.096-.24.074-.075.154-.112.24-.112h1.184c.117 0 .213.032.288.096.074.064.122.133.144.208l1.568 5.296 1.664-5.248c.032-.096.085-.176.16-.24.085-.075.192-.112.32-.112h.8c.128 0 .229.037.304.112.085.064.144.144.176.24l1.664 5.248 1.568-5.296c.01-.075.053-.144.128-.208.085-.064.181-.096.288-.096h1.184c.096 0 .176.037.24.112.074.064.112.144.112.24l-.032.144-2.288 7.424c-.043.128-.107.229-.192.304-.075.064-.182.096-.32.096h-1.04c-.278 0-.454-.133-.528-.4l-1.664-5.056-1.664 5.056c-.086.267-.267.4-.544.4h-1.024z" fill="var(--primary)"/>
    <path d="M363.128 195.632l.891.454-.891-.454zm-3.496 3.496l-.454-.891.454.891zm0-38.256l.454-.891-.454.891zm3.496 3.496l.891-.454-.891.454zm-94.76-3.496l-.454-.891.454.891zm-3.496 3.496l-.891-.454.891.454zM276.8 161h74.4v-2h-74.4v2zm86.2 11.8v14.4h2v-14.4h-2zM351.2 199h-74.4v2h74.4v-2zM265 187.2v-14.4h-2v14.4h2zm11.8 11.8c-2.257 0-3.889-.001-5.173-.106-1.272-.104-2.114-.305-2.805-.657l-.908 1.782c1.02.52 2.154.755 3.55.869 1.384.113 3.112.112 5.336.112v-2zM263 187.2c0 2.224-.001 3.952.112 5.336.114 1.396.349 2.53.869 3.55l1.782-.908c-.352-.691-.553-1.533-.657-2.805-.105-1.284-.106-2.916-.106-5.173h-2zm5.822 11.037c-1.317-.671-2.388-1.742-3.059-3.059l-1.782.908c.863 1.693 2.24 3.07 3.933 3.933l.908-1.782zM363 187.2c0 2.257-.001 3.889-.106 5.173-.104 1.272-.305 2.114-.657 2.805l1.782.908c.52-1.02.755-2.154.869-3.55.113-1.384.112-3.112.112-5.336h-2zM351.2 201c2.224 0 3.952.001 5.336-.112 1.396-.114 2.53-.349 3.55-.869l-.908-1.782c-.691.352-1.533.553-2.805.657-1.284.105-2.916.106-5.173.106v2zm11.037-5.822c-.671 1.317-1.742 2.388-3.059 3.059l.908 1.782c1.693-.863 3.07-2.24 3.933-3.933l-1.782-.908zM351.2 161c2.257 0 3.889.001 5.173.106 1.272.104 2.114.305 2.805.657l.908-1.782c-1.02-.52-2.154-.755-3.55-.869-1.384-.113-3.112-.112-5.336-.112v2zm13.8 11.8c0-2.224.001-3.952-.112-5.336-.114-1.396-.349-2.53-.869-3.55l-1.782.908c.352.691.553 1.533.657 2.805.105 1.284.106 2.916.106 5.173h2zm-5.822-11.037c1.317.671 2.388 1.742 3.059 3.059l1.782-.908c-.863-1.693-2.24-3.07-3.933-3.933l-.908 1.782zM276.8 159c-2.224 0-3.952-.001-5.336.112-1.396.114-2.53.349-3.55.869l.908 1.782c.691-.352 1.533-.553 2.805-.657 1.284-.105 2.916-.106 5.173-.106v-2zM265 172.8c0-2.257.001-3.889.106-5.173.104-1.272.305-2.114.657-2.805l-1.782-.908c-.52 1.02-.755 2.154-.869 3.55-.113 1.384-.112 3.112-.112 5.336h2zm2.914-12.819c-1.693.863-3.07 2.24-3.933 3.933l1.782.908c.671-1.317 1.742-2.388 3.059-3.059l-.908-1.782z" fill="var(--divider_no_alpha)" fill-opacity=".2"/>
    <g clip-path="url(#branch-clip1)">
      <path d="M28.224 249.16c-1.1093 0-1.9467-.363-2.512-1.088-.5653-.725-.864-1.643-.896-2.752l-.016-.48.016-.48c.032-1.099.3307-2.011.896-2.736.5653-.736 1.4027-1.104 2.512-1.104 1.0987 0 1.9627.389 2.592 1.168v-3.68c0-.107.032-.192.096-.256.0747-.075.1653-.112.272-.112h.768c.1067 0 .192.037.256.112.0747.064.112.149.112.256v10.624c0 .107-.0373.197-.112.272-.064.064-.1493.096-.256.096h-.72c-.1067 0-.1973-.032-.272-.096-.064-.075-.096-.165-.096-.272v-.672c-.6187.8-1.4987 1.2-2.64 1.2zm.336-1.296c.736 0 1.2853-.24 1.648-.72.3733-.491.576-1.072.608-1.744.0107-.117.016-.32.016-.608 0-.299-.0053-.507-.016-.624-.0213-.629-.224-1.179-.608-1.648-.384-.469-.9333-.704-1.648-.704-.7573 0-1.312.235-1.664.704-.3413.469-.528 1.088-.56 1.856l-.016.464c0 2.016.7467 3.024 2.24 3.024zm9.9121 1.296c-1.0987 0-1.9787-.336-2.64-1.008-.6507-.683-1.008-1.611-1.072-2.784l-.016-.544.016-.528c.0746-1.152.4373-2.069 1.088-2.752.6613-.683 1.5306-1.024 2.608-1.024 1.184 0 2.1013.379 2.752 1.136.6506.747.976 1.76.976 3.04v.272c0 .107-.0374.197-.112.272-.064.064-.1494.096-.256.096h-5.536v.144c.032.693.24 1.285.624 1.776.3946.48.912.72 1.552.72.4906 0 .8906-.096 1.2-.288.32-.203.5546-.411.704-.624.096-.128.1653-.203.208-.224.0533-.032.144-.048.272-.048h.784c.096 0 .176.027.24.08.064.053.096.128.096.224 0 .235-.1494.517-.448.848-.288.331-.6987.619-1.232.864-.5227.235-1.1254.352-1.808.352zm2.192-4.928v-.048c0-.736-.2027-1.333-.608-1.792-.3947-.469-.928-.704-1.6-.704s-1.2054.235-1.6.704c-.384.459-.576 1.056-.576 1.792v.048h4.384zM47.1564 249c-.2773 0-.4747-.133-.592-.4l-2.96-7.424-.032-.16c0-.096.032-.176.096-.24s.144-.096.24-.096h.768c.1813 0 .3147.091.4.272l2.432 6.304 2.432-6.304c.096-.181.224-.272.384-.272h.784c.0853 0 .16.032.224.096.0747.064.112.144.112.24l-.032.16-2.976 7.424c-.1173.267-.3147.4-.592.4h-.688zm9.4389.16c-1.0986 0-1.9786-.336-2.64-1.008-.6506-.683-1.008-1.611-1.072-2.784l-.016-.544.016-.528c.0747-1.152.4374-2.069 1.088-2.752.6614-.683 1.5307-1.024 2.608-1.024 1.184 0 2.1014.379 2.752 1.136.6507.747.976 1.76.976 3.04v.272c0 .107-.0373.197-.112.272-.064.064-.1493.096-.256.096h-5.536v.144c.032.693.24 1.285.624 1.776.3947.48.912.72 1.552.72.4907 0 .8907-.096 1.2-.288.32-.203.5547-.411.704-.624.096-.128.1654-.203.208-.224.0534-.032.144-.048.272-.048h.784c.096 0 .176.027.24.08.064.053.096.128.096.224 0 .235-.1493.517-.448.848-.288.331-.6986.619-1.232.864-.5226.235-1.1253.352-1.808.352zm2.192-4.928v-.048c0-.736-.2026-1.333-.608-1.792-.3946-.469-.928-.704-1.6-.704s-1.2053.235-1.6.704c-.384.459-.576 1.056-.576 1.792v.048h4.384zM63.0489 249c-.1067 0-.1973-.032-.272-.096-.064-.075-.096-.165-.096-.272v-10.624c0-.107.032-.192.096-.256.0747-.075.1653-.112.272-.112h.752c.1067 0 .192.037.256.112.0747.064.112.149.112.256v10.624c0 .107-.0373.197-.112.272-.064.064-.1493.096-.256.096h-.752zm7.3591.16c-1.1734 0-2.0854-.331-2.736-.992-.64-.661-.9814-1.541-1.024-2.64l-.016-.688.016-.688c.0426-1.088.3893-1.963 1.04-2.624.6506-.672 1.5573-1.008 2.72-1.008 1.1626 0 2.0693.336 2.72 1.008.6506.661.9973 1.536 1.04 2.624.0106.117.016.347.016.688 0 .341-.0054.571-.016.688-.0427 1.099-.3894 1.979-1.04 2.64-.64.661-1.5467.992-2.72.992zm0-1.232c.672 0 1.2-.213 1.584-.64.3946-.427.608-1.04.64-1.84.0106-.107.016-.309.016-.608s-.0054-.501-.016-.608c-.032-.8-.2454-1.413-.64-1.84-.384-.427-.912-.64-1.584-.64s-1.2054.213-1.6.64c-.3947.427-.6027 1.04-.624 1.84l-.016.608.016.608c.0213.8.2293 1.413.624 1.84.3946.427.928.64 1.6.64zm6.6079 4.112c-.1066 0-.1973-.037-.272-.112-.064-.064-.096-.149-.096-.256v-10.624c0-.107.032-.192.096-.256.0747-.075.1654-.112.272-.112h.736c.1067 0 .192.037.256.112.0747.064.112.149.112.256v.704c.5974-.821 1.472-1.232 2.624-1.232 1.12 0 1.9574.352 2.512 1.056.5654.704.8694 1.611.912 2.72.0107.117.016.299.016.544 0 .245-.0053.427-.016.544-.0426 1.099-.3466 2.005-.912 2.72-.5653.704-1.4026 1.056-2.512 1.056-1.1093 0-1.9733-.4-2.592-1.2v3.712c0 .107-.032.192-.096.256-.064.075-.1493.112-.256.112h-.784zm3.392-4.176c.7574 0 1.3067-.235 1.648-.704.352-.469.544-1.088.576-1.856.0107-.107.016-.261.016-.464 0-2.016-.7466-3.024-2.24-3.024-.736 0-1.2906.245-1.664.736-.3626.48-.56 1.056-.592 1.728l-.016.608.016.624c.0214.629.224 1.179.608 1.648.384.469.9334.704 1.648.704z" fill="var(--on_surface)"/>
    </g>
    <g clip-path="url(#branch-clip2)" fill="var(--on_surface)">
      <path d="M224.323 240.47c.098-.098.256-.098.354 0l3 3c.098.097.098.256 0 .353l-.354.354c-.097.097-.256.097-.353 0l-1.97-1.97v4.543c0 .138-.112.25-.25.25h-.5c-.138 0-.25-.112-.25-.25v-4.543l-1.97 1.97c-.097.097-.256.097-.353 0l-.354-.354c-.097-.097-.097-.256 0-.353l3-3zM234.314 247c-.06 0-.111-.018-.153-.054-.036-.042-.054-.093-.054-.153v-1.296h-2.916c-.06 0-.111-.018-.153-.054-.036-.042-.054-.093-.054-.153v-.36c0-.09.033-.18.099-.27l2.7-3.807c.03-.048.075-.084.135-.108.06-.03.126-.045.198-.045h.648c.06 0 .108.021.144.063.042.036.063.084.063.144v3.807h.81c.06 0 .111.021.153.063.042.036.063.084.063.144v.369c0 .06-.021.111-.063.153-.036.036-.084.054-.144.054h-.819v1.296c0 .06-.021.111-.063.153-.036.036-.084.054-.144.054h-.45zm-.198-2.268v-3.087l-2.169 3.087h2.169z"/>
    </g>
    <rect x="214.5" y="232.5" width="29" height="23" rx="3.5" stroke="var(--divider_no_alpha)" stroke-opacity=".2"/>
    <path fill-rule="evenodd" clip-rule="evenodd" d="M270.619 234.915c.517-1.22 2.244-1.22 2.762-.001l2.114 4.981 5.414.467c1.32.114 1.855 1.758.854 2.627l-4.103 3.561 1.227 5.291c.299 1.292-1.101 2.309-2.237 1.624l-4.65-2.807-4.649 2.805c-1.136.686-2.537-.332-2.236-1.625l1.234-5.288-4.108-3.559c-1.003-.869-.467-2.516.855-2.628l5.408-.459 2.115-4.989zM272 236.78l-1.89 4.46c-.144.341-.466.575-.836.606l-4.828.41 3.668 3.178c.281.243.404.621.32.983l-1.102 4.722 4.151-2.506c.318-.191.716-.191 1.033 0l4.155 2.508-1.095-4.726c-.084-.36.039-.738.318-.981l3.666-3.181-4.836-.417c-.369-.032-.69-.265-.835-.606L272 236.78zM314 236c-4.24 0-7.812 3.307-7.993 8.579l2.286-2.286c.39-.391 1.024-.391 1.414 0 .391.39.391 1.024 0 1.414l-4 4c-.39.391-1.024.391-1.414 0l-4-4c-.391-.39-.391-1.024 0-1.414.39-.391 1.024-.391 1.414 0l2.299 2.299C304.187 238.328 308.529 234 314 234c5.523 0 10 4.477 10 10s-4.477 10-10 10c-2.754 0-5.249-1.114-7.057-2.915-.391-.389-.392-1.023-.003-1.414.39-.391 1.023-.392 1.415-.003C309.802 251.11 311.796 252 314 252c4.418 0 8-3.582 8-8s-3.582-8-8-8zm1 4c0-.552-.448-1-1-1s-1 .448-1 1v5c0 .552.448 1 1 1h4c.552 0 1-.448 1-1s-.448-1-1-1h-3v-4zM352 240c1.1 0 2-.9 2-2s-.9-2-2-2-2 .9-2 2 .9 2 2 2zm0 2c-1.1 0-2 .9-2 2s.9 2 2 2 2-.9 2-2-.9-2-2-2zm-2 8c0-1.1.9-2 2-2s2 .9 2 2-.9 2-2 2-2-.9-2-2z" fill="var(--on_surface)"/>
    <path d="M8 272h372v56H8v-56z" fill="var(--primary)" fill-opacity=".1"/>
    <g clip-path="url(#branch-clip3)">
      <path d="M25.44 305c-.1067 0-.1973-.037-.272-.112-.0747-.075-.112-.165-.112-.272v-7.552c0-.107.0373-.197.112-.272.0747-.075.1653-.112.272-.112h1.248c.1067 0 .1973.037.272.112.0747.075.112.165.112.272v.544c.5547-.725 1.328-1.088 2.32-1.088 1.184 0 2.0107.475 2.48 1.424.256-.427.6187-.768 1.088-1.024.4693-.267.976-.4 1.52-.4.8747 0 1.5893.299 2.144.896.5547.597.832 1.467.832 2.608v4.592c0 .107-.0373.197-.112.272-.064.075-.1547.112-.272.112H35.76c-.1067 0-.1973-.037-.272-.112-.0747-.075-.112-.165-.112-.272v-4.464c0-.672-.144-1.157-.432-1.456-.2773-.309-.6507-.464-1.12-.464-.416 0-.7733.155-1.072.464-.288.309-.432.795-.432 1.456v4.464c0 .107-.0373.197-.112.272-.0747.075-.1653.112-.272.112h-1.312c-.1067 0-.1973-.037-.272-.112-.0747-.075-.112-.165-.112-.272v-4.464c0-.672-.1493-1.157-.448-1.456-.288-.309-.656-.464-1.104-.464-.4267 0-.7893.155-1.088.464-.288.309-.432.795-.432 1.456v4.464c0 .107-.0373.197-.112.272-.0747.075-.1653.112-.272.112H25.44zm16.7195.16c-.544 0-1.0453-.107-1.504-.32-.448-.224-.8053-.523-1.072-.896-.256-.373-.384-.784-.384-1.232 0-.725.2933-1.312.88-1.76.5867-.448 1.392-.752 2.416-.912l2.192-.32v-.336c0-.469-.1173-.821-.352-1.056-.2347-.235-.6133-.352-1.136-.352-.352 0-.64.069-.864.208-.2133.128-.384.256-.512.384-.128.139-.2133.229-.256.272-.0427.128-.1227.192-.24.192h-1.232c-.096 0-.1813-.032-.256-.096-.064-.064-.096-.149-.096-.256.0107-.267.1387-.571.384-.912.256-.341.6453-.635 1.168-.88.5227-.245 1.1627-.368 1.92-.368 1.2587 0 2.176.283 2.752.848.576.565.864 1.307.864 2.224v5.024c0 .107-.0373.197-.112.272-.064.075-.1547.112-.272.112h-1.296c-.1067 0-.1973-.037-.272-.112-.0747-.075-.112-.165-.112-.272v-.624c-.2347.341-.5707.624-1.008.848-.4267.213-.96.32-1.6.32zm.544-1.52c.5867 0 1.0667-.192 1.44-.576.3733-.384.56-.944.56-1.68v-.336l-1.6.256c-.6187.096-1.088.251-1.408.464-.3093.213-.464.475-.464.784 0 .341.144.608.432.8.288.192.6347.288 1.04.288zm9.5826 1.52c-.8 0-1.472-.117-2.016-.352-.544-.245-.9493-.528-1.216-.848-.256-.331-.384-.613-.384-.848 0-.107.0374-.192.112-.256.0747-.064.16-.096.256-.096h1.264c.096 0 .176.037.24.112.0427.032.1547.128.336.288.1814.171.3947.304.64.4.2454.096.5174.144.816.144.4267 0 .7787-.085 1.056-.256.2774-.171.416-.405.416-.704 0-.224-.064-.405-.192-.544-.1173-.139-.336-.261-.656-.368-.32-.117-.7946-.24-1.424-.368-.9066-.192-1.5786-.485-2.016-.88-.4266-.395-.64-.917-.64-1.568 0-.427.128-.827.384-1.2.256-.384.6347-.693 1.136-.928.512-.245 1.12-.368 1.824-.368.7147 0 1.3334.117 1.856.352.5227.224.9174.496 1.184.816.2774.309.416.587.416.832 0 .096-.0373.181-.112.256-.064.064-.144.096-.24.096h-1.184c-.0853 0-.176-.037-.272-.112-.0746-.053-.192-.155-.352-.304-.16-.149-.3466-.267-.56-.352-.2133-.085-.464-.128-.752-.128-.3946 0-.704.085-.928.256-.2133.171-.32.395-.32.672 0 .203.0534.368.16.496.1067.128.3147.251.624.368.3094.117.7734.235 1.392.352 1.024.203 1.7547.517 2.192.944.448.427.672.949.672 1.568 0 .747-.3253 1.355-.976 1.824-.6506.469-1.5626.704-2.736.704zm9.3424-.16c-.9707 0-1.7013-.251-2.192-.752-.48-.512-.72-1.259-.72-2.24v-3.632h-1.264c-.1067 0-.1973-.037-.272-.112-.0747-.085-.112-.181-.112-.288v-.912c0-.107.0373-.197.112-.272.0747-.075.1653-.112.272-.112h1.264v-2.656c0-.117.0373-.208.112-.272.0747-.075.1653-.112.272-.112h1.296c.1173 0 .208.037.272.112.0747.064.112.155.112.272v2.656h2c.1173 0 .208.037.272.112.0747.064.112.155.112.272v.912c0 .117-.0373.213-.112.288-.0747.075-.1653.112-.272.112h-2v3.472c0 .459.08.805.24 1.04.16.235.4267.352.8.352h1.104c.1067 0 .1973.037.272.112.0747.075.112.165.112.272v.992c0 .107-.0373.197-.112.272-.064.075-.1547.112-.272.112h-1.296zm6.9334.16c-1.184 0-2.128-.341-2.832-1.024-.6934-.693-1.0614-1.664-1.104-2.912l-.016-.4.016-.4c.0533-1.216.4266-2.171 1.12-2.864.704-.693 1.6426-1.04 2.816-1.04 1.2586 0 2.2293.384 2.912 1.152.6933.768 1.04 1.792 1.04 3.072v.336c0 .107-.0374.197-.112.272-.0747.075-.1707.112-.288.112h-5.312v.128c.0213.587.1813 1.083.48 1.488.3093.395.7306.592 1.264.592.6293 0 1.136-.245 1.52-.736.096-.117.1706-.192.224-.224.064-.032.1546-.048.272-.048h1.376c.096 0 .176.032.24.096.0746.053.112.123.112.208 0 .256-.1547.56-.464.912-.2987.341-.7307.64-1.296.896-.5654.256-1.2214.384-1.968.384zm1.776-5.04v-.048c0-.629-.16-1.136-.48-1.52-.3094-.384-.7414-.576-1.296-.576-.5547 0-.9867.192-1.296.576-.3094.384-.464.891-.464 1.52v.048h3.536zm4.5084 4.88c-.1067 0-.1974-.037-.272-.112-.0747-.075-.1121-.165-.1121-.272v-7.536c0-.107.0374-.197.1121-.272.0746-.085.1653-.128.272-.128h1.296c.1173 0 .2133.037.288.112.0746.075.112.171.112.288v.656c.256-.341.576-.603.96-.784.3946-.181.8426-.272 1.344-.272h.656c.1173 0 .208.037.272.112.0746.064.112.155.112.272v1.152c0 .107-.0374.197-.112.272-.064.075-.1547.112-.272.112h-1.248c-.5014 0-.896.144-1.184.432-.288.288-.432.683-.432 1.184v4.4c0 .107-.0374.197-.112.272-.0747.075-.1707.112-.288.112h-1.392z" fill="var(--primary)"/>
    </g>
    <path d="M195.323 296.47c.098-.098.256-.098.354 0l3 3c.098.097.098.256 0 .353l-.354.354c-.097.097-.256.097-.353 0l-1.97-1.97v4.543c0 .138-.112.25-.25.25h-.5c-.138 0-.25-.112-.25-.25v-4.543l-1.97 1.97c-.097.097-.256.097-.353 0l-.354-.354c-.097-.097-.097-.256 0-.353l3-3zM202.507 303c-.06 0-.111-.018-.153-.054-.036-.042-.054-.093-.054-.153v-.288c0-.138.075-.27.225-.396l1.908-1.908c.462-.384.78-.696.954-.936.174-.246.261-.504.261-.774 0-.348-.099-.621-.297-.819-.192-.198-.474-.297-.846-.297-.348 0-.627.105-.837.315-.21.204-.339.477-.387.819-.012.072-.042.126-.09.162-.042.03-.09.045-.144.045h-.468c-.054 0-.099-.015-.135-.045-.036-.036-.054-.078-.054-.126.012-.324.099-.633.261-.927.162-.3.399-.543.711-.729.318-.192.699-.288 1.143-.288.678 0 1.188.177 1.53.531.348.348.522.792.522 1.332 0 .378-.096.72-.288 1.026-.186.3-.477.624-.873.972l-1.728 1.755h2.808c.066 0 .117.021.153.063.042.036.063.084.063.144v.369c0 .06-.021.111-.063.153-.042.036-.093.054-.153.054h-3.969z" fill="var(--primary)"/>
    <path fill="var(--divider_no_alpha)" fill-opacity=".2" d="M214 289h1v22h-1z"/>
    <path d="M224.677 302.923c-.098.098-.256.098-.354 0l-3-3c-.098-.097-.098-.256 0-.353l.354-.354c.097-.098.256-.098.353 0l1.97 1.97v-4.543c0-.138.112-.25.25-.25h.5c.138 0 .25.112.25.25v4.543l1.97-1.97c.097-.098.256-.098.353 0l.354.354c.097.097.097.256 0 .353l-3 3zM231.507 303c-.06 0-.111-.018-.153-.054-.036-.042-.054-.093-.054-.153v-.288c0-.138.075-.27.225-.396l1.908-1.908c.462-.384.78-.696.954-.936.174-.246.261-.504.261-.774 0-.348-.099-.621-.297-.819-.192-.198-.474-.297-.846-.297-.348 0-.627.105-.837.315-.21.204-.339.477-.387.819-.012.072-.042.126-.09.162-.042.03-.09.045-.144.045h-.468c-.054 0-.099-.015-.135-.045-.036-.036-.054-.078-.054-.126.012-.324.099-.633.261-.927.162-.3.399-.543.711-.729.318-.192.699-.288 1.143-.288.678 0 1.188.177 1.53.531.348.348.522.792.522 1.332 0 .378-.096.72-.288 1.026-.186.3-.477.624-.873.972l-1.728 1.755h2.808c.066 0 .117.021.153.063.042.036.063.084.063.144v.369c0 .06-.021.111-.063.153-.042.036-.093.054-.153.054h-3.969z" fill="var(--primary)"/>
    <rect x="185.5" y="288.5" width="58" height="23" rx="3.5" stroke="var(--divider_no_alpha)" stroke-opacity=".2"/>
    <path fill-rule="evenodd" clip-rule="evenodd" d="M270.619 290.915c.517-1.22 2.244-1.22 2.762-.001l2.114 4.981 5.414.467c1.32.114 1.855 1.758.854 2.627l-4.103 3.561 1.227 5.291c.299 1.292-1.101 2.309-2.237 1.624l-4.65-2.807-4.649 2.805c-1.136.686-2.537-.332-2.236-1.625l1.234-5.288-4.108-3.559c-1.003-.869-.467-2.516.855-2.628l5.408-.459 2.115-4.989zM272 292.78l-1.89 4.46c-.144.341-.466.575-.836.606l-4.828.41 3.668 3.178c.281.243.404.621.32.983l-1.102 4.722 4.151-2.506c.318-.191.716-.191 1.033 0l4.155 2.508-1.095-4.726c-.084-.36.039-.738.318-.981l3.666-3.181-4.836-.417c-.369-.032-.69-.265-.835-.606L272 292.78zM314 292c-4.24 0-7.812 3.307-7.993 8.579l2.286-2.286c.39-.391 1.024-.391 1.414 0 .391.39.391 1.024 0 1.414l-4 4c-.39.391-1.024.391-1.414 0l-4-4c-.391-.39-.391-1.024 0-1.414.39-.391 1.024-.391 1.414 0l2.299 2.299C304.187 294.328 308.529 290 314 290c5.523 0 10 4.477 10 10s-4.477 10-10 10c-2.754 0-5.249-1.114-7.057-2.915-.391-.389-.392-1.023-.003-1.414.39-.391 1.023-.392 1.415-.003C309.802 307.11 311.796 308 314 308c4.418 0 8-3.582 8-8s-3.582-8-8-8zm1 4c0-.552-.448-1-1-1s-1 .448-1 1v5c0 .552.448 1 1 1h4c.552 0 1-.448 1-1s-.448-1-1-1h-3v-4zM352 296c1.1 0 2-.9 2-2s-.9-2-2-2-2 .9-2 2 .9 2 2 2zm0 2c-1.1 0-2 .9-2 2s.9 2 2 2 2-.9 2-2-.9-2-2-2zm-2 8c0-1.1.9-2 2-2s2 .9 2 2-.9 2-2 2-2-.9-2-2z" fill="var(--primary)"/>
    <path fill="var(--divider_no_alpha)" fill-opacity=".2" d="M8 343h372v1H8z"/>
    <path d="M25.632 377c-.1067 0-.1973-.037-.272-.112-.0747-.075-.112-.165-.112-.272V366.2c0-.117.032-.213.096-.288.0747-.075.1707-.112.288-.112h4.144c1.3013 0 2.32.304 3.056.912.7467.608 1.12 1.472 1.12 2.592 0 .779-.192 1.435-.576 1.968-.3733.523-.896.901-1.568 1.136l2.336 4.08c.032.064.048.123.048.176 0 .096-.0373.176-.112.24-.064.064-.1387.096-.224.096H32.4c-.1707 0-.304-.037-.4-.112-.0853-.075-.1653-.181-.24-.32l-2.064-3.792h-2.224v3.84c0 .107-.0373.197-.112.272-.064.075-.1547.112-.272.112h-1.456zm4.096-6.032c.64 0 1.12-.144 1.44-.432.3307-.288.496-.704.496-1.248s-.1653-.965-.496-1.264c-.32-.299-.8-.448-1.44-.448h-2.256v3.392h2.256zm9.8339 6.192c-1.184 0-2.128-.341-2.832-1.024-.6934-.693-1.0614-1.664-1.104-2.912l-.016-.4.016-.4c.0533-1.216.4266-2.171 1.12-2.864.704-.693 1.6426-1.04 2.816-1.04 1.2586 0 2.2293.384 2.912 1.152.6933.768 1.04 1.792 1.04 3.072v.336c0 .107-.0374.197-.112.272-.0747.075-.1707.112-.288.112h-5.312v.128c.0213.587.1813 1.083.48 1.488.3093.395.7306.592 1.264.592.6293 0 1.136-.245 1.52-.736.096-.117.1706-.192.224-.224.064-.032.1546-.048.272-.048h1.376c.096 0 .176.032.24.096.0746.053.112.123.112.208 0 .256-.1547.56-.464.912-.2987.341-.7307.64-1.296.896-.5654.256-1.2214.384-1.968.384zm1.776-5.04v-.048c0-.629-.16-1.136-.48-1.52-.3094-.384-.7414-.576-1.296-.576-.5547 0-.9867.192-1.296.576-.3094.384-.464.891-.464 1.52v.048h3.536zm4.5084 4.88c-.1067 0-.1974-.037-.272-.112-.0747-.075-.1121-.165-.1121-.272v-7.552c0-.107.0374-.197.1121-.272.0746-.075.1653-.112.272-.112h1.248c.1066 0 .1973.037.272.112.0746.075.112.165.112.272v.544c.5546-.725 1.328-1.088 2.32-1.088 1.184 0 2.0106.475 2.48 1.424.256-.427.6186-.768 1.088-1.024.4693-.267.976-.4 1.52-.4.8746 0 1.5893.299 2.144.896.5546.597.832 1.467.832 2.608v4.592c0 .107-.0374.197-.112.272-.064.075-.1547.112-.272.112h-1.312c-.1067 0-.1974-.037-.272-.112-.0747-.075-.112-.165-.112-.272v-4.464c0-.672-.144-1.157-.432-1.456-.2774-.309-.6507-.464-1.12-.464-.416 0-.7734.155-1.072.464-.288.309-.432.795-.432 1.456v4.464c0 .107-.0374.197-.112.272-.0747.075-.1654.112-.272.112h-1.312c-.1067 0-.1974-.037-.272-.112-.0747-.075-.112-.165-.112-.272v-4.464c0-.672-.1494-1.157-.448-1.456-.288-.309-.656-.464-1.104-.464-.4267 0-.7894.155-1.088.464-.288.309-.432.795-.432 1.456v4.464c0 .107-.0374.197-.112.272-.0747.075-.1654.112-.272.112h-1.344zm17.9835.16c-1.248 0-2.2134-.32-2.896-.96-.6827-.651-1.0507-1.536-1.104-2.656l-.016-.704.016-.704c.0533-1.109.4266-1.989 1.12-2.64.6933-.651 1.6533-.976 2.88-.976 1.2266 0 2.1866.325 2.88.976.6933.651 1.0666 1.531 1.12 2.64.0106.128.016.363.016.704 0 .341-.0054.576-.016.704-.0534 1.12-.4214 2.005-1.104 2.656-.6827.64-1.648.96-2.896.96zm0-1.584c.5653 0 1.0026-.176 1.312-.528.3093-.363.48-.891.512-1.584.0106-.107.016-.315.016-.624s-.0054-.517-.016-.624c-.032-.693-.2027-1.216-.512-1.568-.3094-.363-.7467-.544-1.312-.544-.5654 0-1.0027.181-1.312.544-.3094.352-.48.875-.512 1.568l-.016.624.016.624c.032.693.2026 1.221.512 1.584.3093.352.7466.528 1.312.528zM73.566 377c-.9707 0-1.7013-.251-2.192-.752-.48-.512-.72-1.259-.72-2.24v-3.632H69.39c-.1067 0-.1973-.037-.272-.112-.0747-.085-.112-.181-.112-.288v-.912c0-.107.0373-.197.112-.272.0747-.075.1653-.112.272-.112h1.264v-2.656c0-.117.0373-.208.112-.272.0747-.075.1653-.112.272-.112h1.296c.1173 0 .208.037.272.112.0747.064.112.155.112.272v2.656h2c.1173 0 .208.037.272.112.0747.064.112.155.112.272v.912c0 .117-.0373.213-.112.288-.0747.075-.1653.112-.272.112h-2v3.472c0 .459.08.805.24 1.04.16.235.4267.352.8.352h1.104c.1067 0 .1973.037.272.112.0747.075.112.165.112.272v.992c0 .107-.0373.197-.112.272-.064.075-.1547.112-.272.112h-1.296zm6.9334.16c-1.184 0-2.128-.341-2.832-1.024-.6934-.693-1.0614-1.664-1.104-2.912l-.016-.4.016-.4c.0533-1.216.4266-2.171 1.12-2.864.704-.693 1.6426-1.04 2.816-1.04 1.2586 0 2.2293.384 2.912 1.152.6933.768 1.04 1.792 1.04 3.072v.336c0 .107-.0374.197-.112.272-.0747.075-.1707.112-.288.112h-5.312v.128c.0213.587.1813 1.083.48 1.488.3093.395.7306.592 1.264.592.6293 0 1.136-.245 1.52-.736.096-.117.1706-.192.224-.224.064-.032.1546-.048.272-.048h1.376c.096 0 .176.032.24.096.0746.053.112.123.112.208 0 .256-.1547.56-.464.912-.2987.341-.7307.64-1.296.896-.5654.256-1.2214.384-1.968.384zm1.776-5.04v-.048c0-.629-.16-1.136-.48-1.52-.3094-.384-.7414-.576-1.296-.576-.5547 0-.9867.192-1.296.576-.3094.384-.464.891-.464 1.52v.048h3.536zm7.2764 5.04c-.8 0-1.472-.117-2.016-.352-.544-.245-.9494-.528-1.216-.848-.256-.331-.384-.613-.384-.848 0-.107.0373-.192.112-.256.0746-.064.16-.096.256-.096h1.264c.096 0 .176.037.24.112.0426.032.1546.128.336.288.1813.171.3946.304.64.4.2453.096.5173.144.816.144.4266 0 .7786-.085 1.056-.256.2773-.171.416-.405.416-.704 0-.224-.064-.405-.192-.544-.1174-.139-.336-.261-.656-.368-.32-.117-.7947-.24-1.424-.368-.9067-.192-1.5787-.485-2.016-.88-.4267-.395-.64-.917-.64-1.568 0-.427.128-.827.384-1.2.256-.384.6346-.693 1.136-.928.512-.245 1.12-.368 1.824-.368.7146 0 1.3333.117 1.856.352.5226.224.9173.496 1.184.816.2773.309.416.587.416.832 0 .096-.0374.181-.112.256-.064.064-.144.096-.24.096h-1.184c-.0854 0-.176-.037-.272-.112-.0747-.053-.192-.155-.352-.304-.16-.149-.3467-.267-.56-.352-.2134-.085-.464-.128-.752-.128-.3947 0-.704.085-.928.256-.2134.171-.32.395-.32.672 0 .203.0533.368.16.496.1066.128.3146.251.624.368.3093.117.7733.235 1.392.352 1.024.203 1.7546.517 2.192.944.448.427.672.949.672 1.568 0 .747-.3254 1.355-.976 1.824-.6507.469-1.5627.704-2.736.704z" fill="var(--on_surface)"/>
    <path d="M36 424l-6 6 1.41 1.41 4.59-4.58 4.59 4.58L42 430l-6-6z" fill="var(--primary)"/>
    <path d="M68.736 433.16c-1.248 0-2.2133-.32-2.896-.96-.6827-.651-1.0507-1.536-1.104-2.656l-.016-.704.016-.704c.0533-1.109.4267-1.989 1.12-2.64s1.6533-.976 2.88-.976 2.1867.325 2.88.976c.6933.651 1.0667 1.531 1.12 2.64.0107.128.016.363.016.704 0 .341-.0053.576-.016.704-.0533 1.12-.4213 2.005-1.104 2.656-.6827.64-1.648.96-2.896.96zm0-1.584c.5653 0 1.0027-.176 1.312-.528.3093-.363.48-.891.512-1.584.0107-.107.016-.315.016-.624s-.0053-.517-.016-.624c-.032-.693-.2027-1.216-.512-1.568-.3093-.363-.7467-.544-1.312-.544s-1.0027.181-1.312.544c-.3093.352-.48.875-.512 1.568l-.016.624.016.624c.032.693.2027 1.221.512 1.584.3093.352.7467.528 1.312.528zM75.1588 433c-.1067 0-.1974-.037-.272-.112-.0747-.075-.1121-.165-.1121-.272v-7.536c0-.107.0374-.197.1121-.272.0746-.085.1653-.128.272-.128h1.296c.1173 0 .2133.037.288.112.0746.075.112.171.112.288v.656c.256-.341.576-.603.96-.784.3946-.181.8426-.272 1.344-.272h.656c.1173 0 .208.037.272.112.0746.064.112.155.112.272v1.152c0 .107-.0374.197-.112.272-.064.075-.1547.112-.272.112h-1.248c-.5014 0-.896.144-1.184.432-.288.288-.432.683-.432 1.184v4.4c0 .107-.0374.197-.112.272-.0747.075-.1707.112-.288.112h-1.392zm6.8578-9.696c-.1066 0-.1973-.037-.272-.112-.0746-.075-.112-.165-.112-.272v-1.152c0-.107.0374-.197.112-.272.0747-.075.1654-.112.272-.112h1.456c.1067 0 .1974.037.272.112.0854.075.128.165.128.272v1.152c0 .107-.0373.197-.112.272-.0746.075-.1706.112-.288.112h-1.456zm.064 9.696c-.1066 0-.1973-.037-.272-.112-.0746-.075-.112-.165-.112-.272v-7.552c0-.107.0374-.197.112-.272.0747-.075.1654-.112.272-.112h1.328c.1174 0 .208.037.272.112.0747.064.112.155.112.272v7.552c0 .107-.0373.197-.112.272-.064.075-.1546.112-.272.112h-1.328zm7.8448 3.52c-.9494 0-1.7174-.16-2.304-.48-.5867-.309-1.0027-.667-1.248-1.072-.2454-.405-.368-.752-.368-1.04 0-.096.0373-.181.112-.256.0853-.075.176-.112.272-.112h1.392c.096 0 .176.021.24.064.0746.053.1333.144.176.272.1066.288.2773.528.512.72.2453.203.624.304 1.136.304.64 0 1.1093-.144 1.408-.432.3093-.288.464-.784.464-1.488v-1.088c-.5867.693-1.408 1.04-2.464 1.04-1.1094 0-1.9467-.341-2.512-1.024-.5547-.683-.8534-1.6-.896-2.752l-.016-.432.016-.432c.0426-1.131.3466-2.043.912-2.736.5653-.704 1.3973-1.056 2.496-1.056.5653 0 1.0613.107 1.488.32.4266.213.784.507 1.072.88v-.64c0-.117.0373-.213.112-.288.0746-.075.1653-.112.272-.112h1.296c.1066 0 .1973.043.272.128.0746.075.112.165.112.272l.016 7.712c0 1.184-.3307 2.101-.992 2.752-.6614.651-1.6534.976-2.976.976zm-.08-5.264c.608 0 1.0613-.192 1.36-.576.3093-.384.48-.853.512-1.408.0106-.085.016-.261.016-.528 0-.256-.0054-.427-.016-.512-.032-.565-.2027-1.04-.512-1.424-.2987-.384-.752-.576-1.36-.576-1.152 0-1.76.709-1.824 2.128l-.016.384c0 .757.1333 1.365.4 1.824.2773.459.7573.688 1.44.688zm6.7494-7.952c-.1067 0-.1974-.037-.272-.112-.0747-.075-.112-.165-.112-.272v-1.152c0-.107.0373-.197.112-.272.0746-.075.1653-.112.272-.112h1.456c.1066 0 .1973.037.272.112.0853.075.128.165.128.272v1.152c0 .107-.0374.197-.112.272-.0747.075-.1707.112-.288.112h-1.456zm.064 9.696c-.1067 0-.1974-.037-.272-.112-.0747-.075-.1121-.165-.1121-.272v-7.552c0-.107.0374-.197.1121-.272.0746-.075.1653-.112.272-.112h1.328c.1173 0 .208.037.272.112.0746.064.112.155.112.272v7.552c0 .107-.0374.197-.112.272-.064.075-.1547.112-.272.112h-1.328zm4.4692 0c-.107 0-.198-.037-.272-.112-.075-.075-.113-.165-.113-.272v-7.552c0-.107.038-.197.113-.272.074-.075.165-.112.272-.112h1.312c.106 0 .197.037.272.112.074.075.112.165.112.272v.656c.629-.8 1.52-1.2 2.672-1.2.981 0 1.76.325 2.336.976.576.64.864 1.515.864 2.624v4.496c0 .107-.038.197-.112.272-.064.075-.155.112-.272.112h-1.408c-.107 0-.198-.037-.272-.112-.075-.075-.112-.165-.112-.272v-4.4c0-.629-.155-1.115-.464-1.456-.299-.352-.736-.528-1.312-.528-.566 0-1.014.176-1.344.528-.32.352-.48.837-.48 1.456v4.4c0 .107-.038.197-.112.272-.064.075-.155.112-.272.112h-1.408z" fill="var(--on_surface)"/>
    <g clip-path="url(#branch-clip4)">
      <path d="M68.224 489.16c-1.1093 0-1.9467-.363-2.512-1.088-.5653-.725-.864-1.643-.896-2.752l-.016-.48.016-.48c.032-1.099.3307-2.011.896-2.736.5653-.736 1.4027-1.104 2.512-1.104 1.0987 0 1.9627.389 2.592 1.168v-3.68c0-.107.032-.192.096-.256.0747-.075.1653-.112.272-.112h.768c.1067 0 .192.037.256.112.0747.064.112.149.112.256v10.624c0 .107-.0373.197-.112.272-.064.064-.1493.096-.256.096h-.72c-.1067 0-.1973-.032-.272-.096-.064-.075-.096-.165-.096-.272v-.672c-.6187.8-1.4987 1.2-2.64 1.2zm.336-1.296c.736 0 1.2853-.24 1.648-.72.3733-.491.576-1.072.608-1.744.0107-.117.016-.32.016-.608 0-.299-.0053-.507-.016-.624-.0213-.629-.224-1.179-.608-1.648-.384-.469-.9333-.704-1.648-.704-.7573 0-1.312.235-1.664.704-.3413.469-.528 1.088-.56 1.856l-.016.464c0 2.016.7467 3.024 2.24 3.024zm9.9121 1.296c-1.0987 0-1.9787-.336-2.64-1.008-.6507-.683-1.008-1.611-1.072-2.784l-.016-.544.016-.528c.0746-1.152.4373-2.069 1.088-2.752.6613-.683 1.5306-1.024 2.608-1.024 1.184 0 2.1013.379 2.752 1.136.6506.747.976 1.76.976 3.04v.272c0 .107-.0374.197-.112.272-.064.064-.1494.096-.256.096h-5.536v.144c.032.693.24 1.285.624 1.776.3946.48.912.72 1.552.72.4906 0 .8906-.096 1.2-.288.32-.203.5546-.411.704-.624.096-.128.1653-.203.208-.224.0533-.032.144-.048.272-.048h.784c.096 0 .176.027.24.08.064.053.096.128.096.224 0 .235-.1494.517-.448.848-.288.331-.6987.619-1.232.864-.5227.235-1.1254.352-1.808.352zm2.192-4.928v-.048c0-.736-.2027-1.333-.608-1.792-.3947-.469-.928-.704-1.6-.704s-1.2054.235-1.6.704c-.384.459-.576 1.056-.576 1.792v.048h4.384zM87.1564 489c-.2773 0-.4747-.133-.592-.4l-2.96-7.424-.032-.16c0-.096.032-.176.096-.24s.144-.096.24-.096h.768c.1813 0 .3147.091.4.272l2.432 6.304 2.432-6.304c.096-.181.224-.272.384-.272h.784c.0853 0 .16.032.224.096.0747.064.112.144.112.24l-.032.16-2.976 7.424c-.1173.267-.3147.4-.592.4h-.688zm9.4389.16c-1.0986 0-1.9786-.336-2.64-1.008-.6506-.683-1.008-1.611-1.072-2.784l-.016-.544.016-.528c.0747-1.152.4374-2.069 1.088-2.752.6614-.683 1.5307-1.024 2.608-1.024 1.184 0 2.1014.379 2.752 1.136.6507.747.9757 1.76.9757 3.04v.272c0 .107-.037.197-.112.272-.064.064-.149.096-.2557.096h-5.536v.144c.032.693.24 1.285.624 1.776.3947.48.912.72 1.552.72.4907 0 .8907-.096 1.2-.288.32-.203.5547-.411.704-.624.096-.128.1654-.203.208-.224.0534-.032.144-.048.272-.048h.784c.096 0 .176.027.24.08.0637.053.0957.128.0957.224 0 .235-.149.517-.4477.848-.288.331-.6986.619-1.232.864-.5226.235-1.1253.352-1.808.352zm2.192-4.928v-.048c0-.736-.2026-1.333-.608-1.792-.3946-.469-.928-.704-1.6-.704s-1.2053.235-1.6.704c-.384.459-.576 1.056-.576 1.792v.048h4.384zM103.049 489c-.107 0-.197-.032-.272-.096-.064-.075-.096-.165-.096-.272v-10.624c0-.107.032-.192.096-.256.075-.075.165-.112.272-.112h.752c.107 0 .192.037.256.112.075.064.112.149.112.256v10.624c0 .107-.037.197-.112.272-.064.064-.149.096-.256.096h-.752zm7.359.16c-1.173 0-2.085-.331-2.736-.992-.64-.661-.981-1.541-1.024-2.64l-.016-.688.016-.688c.043-1.088.389-1.963 1.04-2.624.651-.672 1.557-1.008 2.72-1.008 1.163 0 2.069.336 2.72 1.008.651.661.997 1.536 1.04 2.624.011.117.016.347.016.688 0 .341-.005.571-.016.688-.043 1.099-.389 1.979-1.04 2.64-.64.661-1.547.992-2.72.992zm0-1.232c.672 0 1.2-.213 1.584-.64.395-.427.608-1.04.64-1.84.011-.107.016-.309.016-.608s-.005-.501-.016-.608c-.032-.8-.245-1.413-.64-1.84-.384-.427-.912-.64-1.584-.64s-1.205.213-1.6.64c-.395.427-.603 1.04-.624 1.84l-.016.608.016.608c.021.8.229 1.413.624 1.84.395.427.928.64 1.6.64zm6.608 4.112c-.107 0-.197-.037-.272-.112-.064-.064-.096-.149-.096-.256v-10.624c0-.107.032-.192.096-.256.075-.075.165-.112.272-.112h.736c.107 0 .192.037.256.112.075.064.112.149.112.256v.704c.597-.821 1.472-1.232 2.624-1.232 1.12 0 1.957.352 2.512 1.056.565.704.869 1.611.912 2.72.011.117.016.299.016.544 0 .245-.005.427-.016.544-.043 1.099-.347 2.005-.912 2.72-.565.704-1.403 1.056-2.512 1.056s-1.973-.4-2.592-1.2v3.712c0 .107-.032.192-.096.256-.064.075-.149.112-.256.112h-.784zm3.392-4.176c.757 0 1.307-.235 1.648-.704.352-.469.544-1.088.576-1.856.011-.107.016-.261.016-.464 0-2.016-.747-3.024-2.24-3.024-.736 0-1.291.245-1.664.736-.363.48-.56 1.056-.592 1.728l-.016.608.016.624c.021.629.224 1.179.608 1.648.384.469.933.704 1.648.704z" fill="var(--on_surface)"/>
    </g>
    <g clip-path="url(#branch-clip5)" fill-rule="evenodd" clip-rule="evenodd" fill="var(--on_surface)">
      <path d="M314 476c-4.24 0-7.812 3.307-7.993 8.579l2.286-2.286c.39-.391 1.024-.391 1.414 0 .391.39.391 1.024 0 1.414l-4 4c-.39.391-1.024.391-1.414 0l-4-4c-.391-.39-.391-1.024 0-1.414.39-.391 1.024-.391 1.414 0l2.299 2.299C304.187 478.328 308.529 474 314 474c5.523 0 10 4.477 10 10s-4.477 10-10 10c-2.754 0-5.249-1.114-7.057-2.915-.391-.389-.392-1.023-.003-1.414.39-.391 1.023-.392 1.415-.003C309.802 491.11 311.796 492 314 492c4.418 0 8-3.582 8-8s-3.582-8-8-8zm1 4c0-.552-.448-1-1-1s-1 .448-1 1v5c0 .552.448 1 1 1h4c.552 0 1-.448 1-1s-.448-1-1-1h-3v-4zM352 480c1.1 0 2-.9 2-2s-.9-2-2-2-2 .9-2 2 .9 2 2 2zm0 2c-1.1 0-2 .9-2 2s.9 2 2 2 2-.9 2-2-.9-2-2-2zm-2 8c0-1.1.9-2 2-2s2 .9 2 2-.9 2-2 2-2-.9-2-2z"/>
    </g>
    <g clip-path="url(#branch-clip6)">
      <path d="M65.552 545c-.1067 0-.1973-.032-.272-.096-.064-.075-.096-.165-.096-.272v-7.584c0-.107.032-.192.096-.256.0747-.075.1653-.112.272-.112h.72c.1067 0 .192.037.256.112.0747.064.112.149.112.256v.56c.5547-.725 1.328-1.088 2.32-1.088 1.184 0 2.0213.491 2.512 1.472.256-.448.6187-.805 1.088-1.072.4693-.267.9973-.4 1.584-.4.8747 0 1.5893.299 2.144.896.5547.597.832 1.461.832 2.592v4.624c0 .107-.0373.197-.112.272-.064.064-.1493.096-.256.096H76c-.1067 0-.1973-.032-.272-.096-.064-.075-.096-.165-.096-.272v-4.48c0-.832-.176-1.429-.528-1.792-.3413-.363-.7947-.544-1.36-.544-.5013 0-.9333.187-1.296.56-.3627.363-.544.955-.544 1.776v4.48c0 .107-.0373.197-.112.272-.064.064-.1493.096-.256.096h-.752c-.1067 0-.1973-.032-.272-.096-.064-.075-.096-.165-.096-.272v-4.48c0-.832-.1813-1.429-.544-1.792-.352-.363-.8-.544-1.344-.544-.5013 0-.9333.187-1.296.56-.3627.363-.544.949-.544 1.76v4.496c0 .107-.0373.197-.112.272-.064.064-.1493.096-.256.096h-.768zm16.6152.16c-.5227 0-1.008-.107-1.456-.32-.448-.213-.8053-.501-1.072-.864-.256-.373-.384-.784-.384-1.232 0-.704.288-1.28.864-1.728.5867-.459 1.376-.757 2.368-.896l2.384-.336v-.464c0-1.088-.624-1.632-1.872-1.632-.4693 0-.8533.101-1.152.304-.2987.192-.5227.421-.672.688-.032.096-.0747.165-.128.208-.0427.043-.1067.064-.192.064h-.688c-.096 0-.1813-.032-.256-.096-.064-.075-.096-.16-.096-.256.0107-.256.128-.544.352-.864.2347-.331.592-.613 1.072-.848.48-.245 1.072-.368 1.776-.368 1.1947 0 2.0533.283 2.576.848.5227.555.784 1.248.784 2.08v5.184c0 .107-.0373.197-.112.272-.064.064-.1493.096-.256.096h-.736c-.1067 0-.1973-.032-.272-.096-.064-.075-.096-.165-.096-.272v-.688c-.2347.341-.576.629-1.024.864-.448.235-1.0187.352-1.712.352zm.336-1.2c.6933 0 1.2587-.224 1.696-.672.448-.459.672-1.115.672-1.968v-.448l-1.856.272c-.7573.107-1.328.288-1.712.544-.384.245-.576.56-.576.944 0 .427.176.757.528.992.352.224.768.336 1.248.336zm9.4966 1.2c-.7467 0-1.376-.117-1.888-.352-.5014-.245-.88-.523-1.136-.832-.2454-.309-.368-.565-.368-.768 0-.107.0373-.187.112-.24.0853-.064.1706-.096.256-.096h.72c.1066 0 .2026.053.288.16.256.299.5333.533.832.704.2986.171.6986.256 1.2.256.5546 0 1.0026-.107 1.344-.32.352-.224.528-.528.528-.912 0-.256-.0747-.464-.224-.624-.1387-.171-.384-.315-.736-.432-.3414-.128-.8534-.267-1.536-.416-.928-.203-1.5894-.496-1.984-.88-.384-.384-.576-.88-.576-1.488 0-.405.1173-.789.352-1.152.2453-.373.5973-.672 1.056-.896.4693-.235 1.0293-.352 1.68-.352.6826 0 1.264.112 1.744.336.48.224.8373.491 1.072.8.2453.299.368.549.368.752 0 .096-.0374.176-.112.24-.064.064-.144.096-.24.096h-.672c-.128 0-.2347-.053-.32-.16-.1707-.203-.32-.357-.448-.464-.1174-.117-.2934-.219-.528-.304-.224-.085-.512-.128-.864-.128-.512 0-.9067.112-1.184.336-.2774.213-.416.496-.416.848 0 .224.0586.416.176.576.1173.149.3413.288.672.416.3413.128.832.261 1.472.4 1.0133.213 1.728.523 2.144.928.4266.395.64.901.64 1.52 0 .459-.1334.875-.4 1.248-.2667.373-.6614.667-1.184.88-.512.213-1.1254.32-1.84.32zm8.9532-.16c-1.6855 0-2.5282-.939-2.5282-2.816v-4.224h-1.248c-.1066 0-.1973-.032-.272-.096-.064-.075-.096-.165-.096-.272v-.544c0-.107.032-.192.096-.256.0747-.075.1654-.112.272-.112h1.248v-2.672c0-.107.032-.192.096-.256.0747-.075.1654-.112.272-.112h.752c.1067 0 .192.037.256.112.0747.064.112.149.112.256v2.672h1.9842c.106 0 .192.037.256.112.074.064.112.149.112.256v.544c0 .107-.038.197-.112.272-.064.064-.15.096-.256.096h-1.9842v4.112c0 .533.0902.939.2722 1.216.181.267.48.4.896.4h.976c.106 0 .192.037.256.112.074.064.112.149.112.256v.576c0 .107-.038.197-.112.272-.064.064-.15.096-.256.096h-1.104zm6.774.16c-1.098 0-1.978-.336-2.64-1.008-.65-.683-1.008-1.611-1.072-2.784l-.016-.544.016-.528c.075-1.152.438-2.069 1.088-2.752.662-.683 1.531-1.024 2.608-1.024 1.184 0 2.102.379 2.752 1.136.651.747.976 1.76.976 3.04v.272c0 .107-.037.197-.112.272-.064.064-.149.096-.256.096h-5.536v.144c.032.693.24 1.285.624 1.776.395.48.912.72 1.552.72.491 0 .891-.096 1.2-.288.32-.203.555-.411.704-.624.096-.128.166-.203.208-.224.054-.032.144-.048.272-.048h.784c.096 0 .176.027.24.08.064.053.096.128.096.224 0 .235-.149.517-.448.848-.288.331-.698.619-1.232.864-.522.235-1.125.352-1.808.352zm2.192-4.928v-.048c0-.736-.202-1.333-.608-1.792-.394-.469-.928-.704-1.6-.704s-1.205.235-1.6.704c-.384.459-.576 1.056-.576 1.792v.048h4.384zm4.246 4.768c-.107 0-.197-.032-.272-.096-.064-.075-.096-.165-.096-.272v-7.568c0-.107.032-.197.096-.272.075-.075.165-.112.272-.112h.736c.107 0 .197.037.272.112.075.075.112.165.112.272v.704c.437-.725 1.184-1.088 2.24-1.088h.624c.107 0 .192.037.256.112.075.064.112.149.112.256v.656c0 .107-.037.192-.112.256-.064.064-.149.096-.256.096h-.96c-.576 0-1.029.171-1.36.512-.331.331-.496.784-.496 1.36v4.704c0 .107-.037.197-.112.272-.075.064-.165.096-.272.096h-.784z" fill="var(--on_surface)"/>
    </g>
    <g clip-path="url(#branch-clip7)" fill-rule="evenodd" clip-rule="evenodd" fill="var(--on_surface)">
      <path d="M314 532c-4.24 0-7.812 3.307-7.993 8.579l2.286-2.286c.39-.391 1.024-.391 1.414 0 .391.39.391 1.024 0 1.414l-4 4c-.39.391-1.024.391-1.414 0l-4-4c-.391-.39-.391-1.024 0-1.414.39-.391 1.024-.391 1.414 0l2.299 2.299C304.187 534.328 308.529 530 314 530c5.523 0 10 4.477 10 10s-4.477 10-10 10c-2.754 0-5.249-1.114-7.057-2.915-.391-.389-.392-1.023-.003-1.414.39-.391 1.023-.392 1.415-.003C309.802 547.11 311.796 548 314 548c4.418 0 8-3.582 8-8s-3.582-8-8-8zm1 4c0-.552-.448-1-1-1s-1 .448-1 1v5c0 .552.448 1 1 1h4c.552 0 1-.448 1-1s-.448-1-1-1h-3v-4zM352 536c1.1 0 2-.9 2-2s-.9-2-2-2-2 .9-2 2 .9 2 2 2zm0 2c-1.1 0-2 .9-2 2s.9 2 2 2 2-.9 2-2-.9-2-2-2zm-2 8c0-1.1.9-2 2-2s2 .9 2 2-.9 2-2 2-2-.9-2-2z"/>
    </g>
    <path fill="var(--surface)" d="M8 16h372v128H8z"/>
    <path fill-rule="evenodd" clip-rule="evenodd" d="M272 63c6.075 0 11-4.9249 11-11s-4.925-11-11-11-11 4.9249-11 11 4.925 11 11 11zm-1-6c0 .5523.448 1 1 1s1-.4477 1-1v-7.0858l2.793 2.7929c.39.3905 1.024.3905 1.414 0 .391-.3905.391-1.0237 0-1.4142l-4.5-4.5c-.39-.3905-1.024-.3905-1.414 0l-4.5 4.5c-.391.3905-.391 1.0237 0 1.4142.39.3905 1.024.3905 1.414 0L271 49.9142V57z" fill="var(--primary)" opacity=".4"/>
    <path fill-rule="evenodd" clip-rule="evenodd" d="M312 41c6.075 0 11 4.9249 11 11s-4.925 11-11 11-11-4.9249-11-11 4.925-11 11-11zm-1 6c0-.5523.448-1 1-1s1 .4477 1 1v7.0858l2.793-2.7929c.39-.3905 1.024-.3905 1.414 0 .391.3905.391 1.0237 0 1.4142l-4.5 4.5c-.39.3905-1.024.3905-1.414 0l-4.5-4.5c-.391-.3905-.391-1.0237 0-1.4142.39-.3905 1.024-.3905 1.414 0L311 54.0858V47zM356 52c0 1.1.9 2 2 2s2-.9 2-2-.9-2-2-2-2 .9-2 2zm-2 0c0-1.1-.9-2-2-2s-2 .9-2 2 .9 2 2 2 2-.9 2-2zm-8-2c1.1 0 2 .9 2 2s-.9 2-2 2-2-.9-2-2 .9-2 2-2z" fill="var(--primary)"/>
    <path d="M43.9997 52c0-.5523-.4477-1-1-1h-11.17l4.88-4.88c.3917-.3917.3906-1.0272-.0025-1.4175-.3912-.3884-1.0227-.3873-1.4125.0025l-5.8808 5.8808c-.781.781-.781 2.0473 0 2.8284l5.8805 5.8805c.3895.3895 1.0211.3895 1.4106 0 .3893-.3893.3896-1.0204.0006-1.41L31.8297 53h11.17c.5523 0 1-.4477 1-1z" fill="var(--primary)"/>
    <path d="M71 51.2c-1.8267 0-3.2533-.4733-4.28-1.42-1.0133-.9467-1.5533-2.2667-1.62-3.96-.0133-.3867-.02-1.0067-.02-1.86 0-.8533.0067-1.4733.02-1.86.0667-1.6533.6133-2.9467 1.64-3.88 1.04-.9467 2.46-1.42 4.26-1.42 1.2267 0 2.28.2067 3.16.62.88.4133 1.5467.9333 2 1.56.4533.6133.6933 1.22.72 1.82v.04c0 .1067-.04.2-.12.28-.08.0667-.18.1-.3.1H74.4c-.1333 0-.2333-.02-.3-.06-.0667-.0533-.1267-.14-.18-.26-.1867-.4933-.5133-.9133-.98-1.26-.4667-.36-1.1133-.54-1.94-.54-.9333 0-1.6667.2533-2.2.76-.52.5067-.8 1.2867-.84 2.34-.0133.3867-.02.9733-.02 1.76 0 .7733.0067 1.36.02 1.76.08 2.12 1.1067 3.18 3.08 3.18.9467 0 1.7067-.2533 2.28-.76.5733-.52.86-1.2867.86-2.3v-.62h-2.44c-.1467 0-.2667-.0467-.36-.14-.08-.0933-.12-.2133-.12-.36v-1.06c0-.1467.04-.2667.12-.36.0933-.0933.2133-.14.36-.14h4.78c.1467 0 .26.0467.34.14.0933.0933.14.2133.14.36v2.1c0 1.1067-.2467 2.0733-.74 2.9-.48.8133-1.1733 1.44-2.08 1.88-.9067.44-1.9667.66-3.18.66zm8.8739-12.32c-.1333 0-.2467-.0467-.34-.14-.0933-.0933-.14-.2067-.14-.34v-1.44c0-.1333.0467-.2467.14-.34.0933-.0933.2067-.14.34-.14h1.82c.1333 0 .2467.0467.34.14.1067.0933.16.2067.16.34v1.44c0 .1333-.0467.2467-.14.34-.0933.0933-.2133.14-.36.14h-1.82zm.08 12.12c-.1333 0-.2467-.0467-.34-.14-.0933-.0933-.14-.2067-.14-.34v-9.44c0-.1333.0467-.2467.14-.34.0933-.0933.2067-.14.34-.14h1.66c.1467 0 .26.0467.34.14.0933.08.14.1933.14.34v9.44c0 .1333-.0467.2467-.14.34-.08.0933-.1933.14-.34.14h-1.66zm9.6434 0c-1.2133 0-2.1266-.3133-2.74-.94-.6-.64-.9-1.5733-.9-2.8v-4.54h-1.58c-.1333 0-.2466-.0467-.34-.14-.0933-.1067-.14-.2267-.14-.36v-1.14c0-.1333.0467-.2467.14-.34.0934-.0933.2067-.14.34-.14h1.58v-3.32c0-.1467.0467-.26.14-.34.0934-.0933.2067-.14.34-.14h1.62c.1467 0 .26.0467.34.14.0934.08.14.1933.14.34v3.32h2.5c.1467 0 .26.0467.34.14.0934.08.14.1933.14.34v1.14c0 .1467-.0466.2667-.14.36-.0933.0933-.2066.14-.34.14h-2.5v4.34c0 .5733.1 1.0067.3 1.3.2.2933.5334.44 1 .44h1.38c.1334 0 .2467.0467.34.14.0934.0933.14.2067.14.34v1.24c0 .1333-.0466.2467-.14.34-.08.0933-.1933.14-.34.14h-1.62zm9.1243.2c-1.1867 0-2.2067-.18-3.06-.54-.8534-.36-1.5-.8333-1.94-1.42-.44-.5867-.6734-1.22-.7-1.9 0-.12.04-.22.12-.3.08-.08.18-.12.3-.12h1.78c.16 0 .28.0333.36.1.0933.0533.18.1467.26.28.1333.4533.44.8333.92 1.14.48.3067 1.1333.46 1.96.46.9466 0 1.6604-.1533 2.1404-.46.48-.32.72-.76.72-1.32 0-.3733-.127-.68-.38-.92-.24-.24-.607-.4467-1.1-.62-.4804-.1733-1.2004-.3867-2.1604-.64-1.5734-.3733-2.7267-.8667-3.46-1.48-.72-.6267-1.08-1.5133-1.08-2.66 0-.7733.2066-1.46.62-2.06.4266-.6 1.0333-1.0733 1.82-1.42.8-.3467 1.7266-.52 2.78-.52 1.0933 0 2.0404.1933 2.8404.58.8.3867 1.406.8733 1.82 1.46.426.5733.653 1.1467.68 1.72 0 .12-.04.22-.12.3-.08.08-.18.12-.3.12h-1.86c-.28 0-.474-.1267-.58-.38-.08-.4267-.347-.78-.8-1.06-.4538-.2933-1.0138-.44-1.6804-.44-.7467 0-1.3334.14-1.76.42-.4267.28-.64.6867-.64 1.22 0 .3733.1066.68.32.92.2133.24.5466.4533 1 .64.4666.1867 1.1333.3933 2 .62 1.1734.2667 2.1064.5667 2.8004.9.706.3333 1.226.7533 1.56 1.26.333.5067.5 1.1533.5 1.94 0 .8533-.24 1.6-.72 2.24-.467.6267-1.134 1.1067-2 1.44-.854.3333-1.8404.5-2.9604.5zm8.3824-.2c-.134 0-.247-.0467-.34-.14-.094-.0933-.14-.2067-.14-.34V37.28c0-.1467.046-.26.14-.34.093-.0933.206-.14.34-.14h1.78c.146 0 .26.0467.34.14.093.08.14.1933.14.34v4.56c.8-.96 1.88-1.44 3.24-1.44 1.226 0 2.206.4067 2.94 1.22.733.8 1.1 1.8933 1.1 3.28v5.62c0 .1333-.047.2467-.14.34-.08.0933-.194.14-.34.14h-1.8c-.134 0-.247-.0467-.34-.14-.094-.0933-.14-.2067-.14-.34v-5.5c0-.7867-.194-1.3933-.58-1.82-.374-.44-.92-.66-1.64-.66-.707 0-1.267.22-1.68.66-.414.44-.62 1.0467-.62 1.82v5.5c0 .1333-.047.2467-.14.34-.08.0933-.194.14-.34.14h-1.78zm15.248.2c-.68 0-1.307-.1333-1.88-.4-.56-.28-1.007-.6533-1.34-1.12-.32-.4667-.48-.98-.48-1.54 0-.9067.366-1.64 1.1-2.2.733-.56 1.74-.94 3.02-1.14l2.74-.4v-.42c0-.5867-.147-1.0267-.44-1.32-.294-.2933-.767-.44-1.42-.44-.44 0-.8.0867-1.08.26-.267.16-.48.32-.64.48-.16.1733-.267.2867-.32.34-.054.16-.154.24-.3.24h-1.54c-.12 0-.227-.04-.32-.12-.08-.08-.12-.1867-.12-.32.013-.3333.173-.7133.48-1.14.32-.4267.806-.7933 1.46-1.1.653-.3067 1.453-.46 2.4-.46 1.573 0 2.72.3533 3.44 1.06.72.7067 1.08 1.6333 1.08 2.78v6.28c0 .1333-.047.2467-.14.34-.08.0933-.194.14-.34.14h-1.62c-.134 0-.247-.0467-.34-.14-.094-.0933-.14-.2067-.14-.34v-.78c-.294.4267-.714.78-1.26 1.06-.534.2667-1.2.4-2 .4zm.68-1.9c.733 0 1.333-.24 1.8-.72.466-.48.7-1.18.7-2.1v-.42l-2 .32c-.774.12-1.36.3133-1.76.58-.387.2667-.58.5933-.58.98 0 .4267.18.76.54 1 .36.24.793.36 1.3.36zm8.356 1.7c-.134 0-.247-.0467-.34-.14-.094-.0933-.14-.2067-.14-.34V41.1c0-.1333.046-.2467.14-.34.093-.1067.206-.16.34-.16h1.62c.146 0 .266.0467.36.14.093.0933.14.2133.14.36v.82c.32-.4267.72-.7533 1.2-.98.493-.2267 1.053-.34 1.68-.34h.82c.146 0 .26.0467.34.14.093.08.14.1933.14.34v1.44c0 .1333-.047.2467-.14.34-.08.0933-.194.14-.34.14h-1.56c-.627 0-1.12.18-1.48.54-.36.36-.54.8533-.54 1.48v5.5c0 .1333-.047.2467-.14.34-.094.0933-.214.14-.36.14h-1.74zm8.509 0c-.133 0-.246-.0467-.34-.14-.093-.0933-.14-.2067-.14-.34V37.28c0-.1467.047-.26.14-.34.094-.0933.207-.14.34-.14h1.62c.147 0 .26.0467.34.14.094.08.14.1933.14.34v6.84l3.36-3.18c.04-.0267.107-.08.2-.16.08-.0667.16-.1133.24-.14.08-.0267.18-.04.3-.04h1.86c.134 0 .24.04.32.12.08.08.12.1867.12.32 0 .12-.066.24-.2.36l-4.12 3.86 4.62 4.96c.134.1333.2.2467.2.34 0 .1333-.046.24-.14.32-.08.08-.18.12-.3.12h-1.9c-.186 0-.326-.02-.42-.06-.08-.0533-.186-.1467-.32-.28l-3.82-4.02v3.88c0 .1333-.046.2467-.14.34-.08.0933-.193.14-.34.14h-1.62z" fill="var(--on_surface)"/>
    <path opacity=".6" d="M65.32 70c-.08 0-.148-.024-.204-.072-.048-.056-.072-.124-.072-.204v-7.836c0-.088.024-.156.072-.204.056-.056.124-.084.204-.084h4.896c.088 0 .156.028.204.084.056.048.084.116.084.204v.48c0 .08-.028.148-.084.204-.048.048-.116.072-.204.072h-4.008v2.796h3.768c.088 0 .156.028.204.084.056.048.084.116.084.204v.48c0 .08-.028.148-.084.204-.056.048-.124.072-.204.072h-3.768v3.24c0 .08-.028.148-.084.204-.056.048-.124.072-.204.072h-.6zm9.4429.12c-.824 0-1.484-.252-1.98-.756-.488-.512-.756-1.208-.804-2.088l-.012-.408.012-.396c.056-.864.328-1.552.816-2.064.496-.512 1.148-.768 1.956-.768.888 0 1.576.284 2.064.852.488.56.732 1.32.732 2.28v.204c0 .08-.028.148-.084.204-.048.048-.112.072-.192.072h-4.152v.108c.024.52.18.964.468 1.332.296.36.684.54 1.164.54.368 0 .668-.072.9-.216.24-.152.416-.308.528-.468.072-.096.124-.152.156-.168.04-.024.108-.036.204-.036h.588c.072 0 .132.02.18.06.048.04.072.096.072.168 0 .176-.112.388-.336.636-.216.248-.524.464-.924.648-.392.176-.844.264-1.356.264zm1.644-3.696v-.036c0-.552-.152-1-.456-1.344-.296-.352-.696-.528-1.2-.528s-.904.176-1.2.528c-.288.344-.432.792-.432 1.344v.036h3.288zM81.8826 70c-1.264 0-1.896-.704-1.896-2.112V64.72h-.936c-.08 0-.148-.024-.204-.072-.048-.056-.072-.124-.072-.204v-.408c0-.08.024-.144.072-.192.056-.056.124-.084.204-.084h.936v-2.004c0-.08.024-.144.072-.192.056-.056.124-.084.204-.084h.564c.08 0 .144.028.192.084.056.048.084.112.084.192v2.004h1.488c.08 0 .144.028.192.084.056.048.084.112.084.192v.408c0 .08-.028.148-.084.204-.048.048-.112.072-.192.072h-1.488v3.084c0 .4.068.704.204.912.136.2.36.3.672.3h.732c.08 0 .144.028.192.084.056.048.084.112.084.192v.432c0 .08-.028.148-.084.204-.048.048-.112.072-.192.072h-.828zm5.2715.12c-.856 0-1.528-.24-2.016-.72-.48-.488-.736-1.168-.768-2.04l-.012-.48.012-.48c.032-.872.288-1.548.768-2.028.488-.488 1.16-.732 2.016-.732.576 0 1.064.104 1.464.312.4.208.696.464.888.768.2.304.308.608.324.912.008.08-.016.144-.072.192-.056.048-.124.072-.204.072h-.576c-.08 0-.14-.016-.18-.048-.04-.032-.08-.096-.12-.192-.136-.384-.328-.656-.576-.816-.248-.168-.56-.252-.936-.252-.496 0-.892.156-1.188.468-.288.304-.444.772-.468 1.404l-.012.432.012.408c.024.64.18 1.112.468 1.416.288.304.684.456 1.188.456.376 0 .688-.08.936-.24.248-.168.44-.444.576-.828.04-.096.08-.16.12-.192.04-.04.1-.06.18-.06h.576c.08 0 .148.028.204.084.056.048.08.112.072.192-.016.296-.124.6-.324.912-.192.304-.488.56-.888.768-.392.208-.88.312-1.464.312zm4.8891-.12c-.08 0-.148-.024-.204-.072-.048-.056-.072-.124-.072-.204v-7.968c0-.08.024-.144.072-.192.056-.056.124-.084.204-.084h.6c.08 0 .144.028.192.084.056.048.084.112.084.192v2.796c.232-.296.504-.52.816-.672.312-.16.7-.24 1.164-.24.768 0 1.364.248 1.788.744.432.488.648 1.14.648 1.956v3.384c0 .08-.028.148-.084.204-.048.048-.112.072-.192.072h-.6c-.08 0-.148-.024-.204-.072-.048-.056-.072-.124-.072-.204V66.4c0-.568-.14-1.008-.42-1.32-.272-.312-.668-.468-1.188-.468-.504 0-.908.16-1.212.48-.296.312-.444.748-.444 1.308v3.324c0 .08-.028.148-.084.204-.048.048-.112.072-.192.072h-.6zm10.0208.12c-.824 0-1.484-.252-1.98-.756-.4883-.512-.7563-1.208-.8043-2.088l-.012-.408.012-.396c.056-.864.328-1.552.8163-2.064.496-.512 1.148-.768 1.956-.768.888 0 1.576.284 2.064.852.488.56.732 1.32.732 2.28v.204c0 .08-.028.148-.084.204-.048.048-.112.072-.192.072h-4.152v.108c.024.52.18.964.468 1.332.296.36.684.54 1.164.54.368 0 .668-.072.9-.216.24-.152.416-.308.528-.468.072-.096.124-.152.156-.168.04-.024.108-.036.204-.036h.588c.072 0 .132.02.18.06.048.04.072.096.072.168 0 .176-.112.388-.336.636-.216.248-.524.464-.924.648-.392.176-.844.264-1.356.264zm1.644-3.696v-.036c0-.552-.152-1-.456-1.344-.296-.352-.696-.528-1.2-.528s-.904.176-1.2.528c-.288.344-.432.792-.432 1.344v.036h3.288zm5.355 3.696c-.832 0-1.46-.272-1.884-.816-.424-.544-.648-1.232-.672-2.064l-.012-.36.012-.36c.024-.824.248-1.508.672-2.052.424-.552 1.052-.828 1.884-.828.824 0 1.472.292 1.944.876v-2.76c0-.08.024-.144.072-.192.056-.056.124-.084.204-.084h.576c.08 0 .144.028.192.084.056.048.084.112.084.192v7.968c0 .08-.028.148-.084.204-.048.048-.112.072-.192.072h-.54c-.08 0-.148-.024-.204-.072-.048-.056-.072-.124-.072-.204v-.504c-.464.6-1.124.9-1.98.9zm.252-.972c.552 0 .964-.18 1.236-.54.28-.368.432-.804.456-1.308.008-.088.012-.24.012-.456 0-.224-.004-.38-.012-.468-.016-.472-.168-.884-.456-1.236-.288-.352-.7-.528-1.236-.528-.568 0-.984.176-1.248.528-.256.352-.396.816-.42 1.392l-.012.348c0 1.512.56 2.268 1.68 2.268zm11.162.972c-.608 0-1.132-.108-1.572-.324-.44-.216-.78-.5-1.02-.852-.232-.352-.356-.728-.372-1.128v-.024c0-.064.024-.116.072-.156.048-.04.104-.06.168-.06h.648c.168 0 .276.088.324.264.112.424.328.74.648.948.32.208.688.312 1.104.312.536 0 .98-.16 1.332-.48.36-.328.54-.78.54-1.356 0-.52-.18-.94-.54-1.26-.352-.32-.796-.48-1.332-.48-.288 0-.52.04-.696.12-.176.072-.352.176-.528.312-.096.072-.18.128-.252.168-.064.032-.136.048-.216.048h-.624c-.072 0-.136-.024-.192-.072-.056-.056-.08-.12-.072-.192l.384-4.008c.008-.096.036-.168.084-.216.056-.056.128-.084.216-.084h4.188c.08 0 .144.028.192.084.056.048.084.112.084.192v.468c0 .08-.028.148-.084.204-.048.048-.112.072-.192.072h-3.456l-.228 2.364c.432-.272.952-.408 1.56-.408.528 0 1.012.108 1.452.324.448.216.8.528 1.056.936.264.408.396.888.396 1.44 0 .592-.132 1.104-.396 1.536-.256.424-.616.748-1.08.972-.464.224-.996.336-1.596.336zm5.285-.12c-.08 0-.148-.024-.204-.072-.048-.056-.072-.124-.072-.204v-5.688c0-.08.024-.144.072-.192.056-.056.124-.084.204-.084h.54c.08 0 .144.028.192.084.056.048.084.112.084.192v.42c.416-.544.996-.816 1.74-.816.888 0 1.516.368 1.884 1.104.192-.336.464-.604.816-.804.352-.2.748-.3 1.188-.3.656 0 1.192.224 1.608.672.416.448.624 1.096.624 1.944v3.468c0 .08-.028.148-.084.204-.048.048-.112.072-.192.072h-.564c-.08 0-.148-.024-.204-.072-.048-.056-.072-.124-.072-.204v-3.36c0-.624-.132-1.072-.396-1.344-.256-.272-.596-.408-1.02-.408-.376 0-.7.14-.972.42-.272.272-.408.716-.408 1.332v3.36c0 .08-.028.148-.084.204-.048.048-.112.072-.192.072h-.564c-.08 0-.148-.024-.204-.072-.048-.056-.072-.124-.072-.204v-3.36c0-.624-.136-1.072-.408-1.344-.264-.272-.6-.408-1.008-.408-.376 0-.7.14-.972.42-.272.272-.408.712-.408 1.32v3.372c0 .08-.028.148-.084.204-.048.048-.112.072-.192.072h-.576zm11.068-7.404c-.08 0-.148-.024-.204-.072-.048-.056-.072-.124-.072-.204v-.648c0-.08.024-.148.072-.204.056-.056.124-.084.204-.084h.756c.08 0 .148.028.204.084.056.056.084.124.084.204v.648c0 .08-.028.148-.084.204-.056.048-.124.072-.204.072h-.756zm.096 7.404c-.08 0-.148-.024-.204-.072-.048-.056-.072-.124-.072-.204v-5.688c0-.08.024-.144.072-.192.056-.056.124-.084.204-.084h.576c.08 0 .144.028.192.084.056.048.084.112.084.192v5.688c0 .08-.028.148-.084.204-.048.048-.112.072-.192.072h-.576zm3.406 0c-.08 0-.148-.024-.204-.072-.048-.056-.072-.124-.072-.204v-5.688c0-.08.024-.144.072-.192.056-.056.124-.084.204-.084h.564c.08 0 .144.028.192.084.056.048.084.112.084.192v.528c.232-.296.504-.524.816-.684.32-.16.716-.24 1.188-.24.768 0 1.364.248 1.788.744.432.488.648 1.14.648 1.956v3.384c0 .08-.028.148-.084.204-.048.048-.112.072-.192.072h-.6c-.08 0-.148-.024-.204-.072-.048-.056-.072-.124-.072-.204V66.4c0-.568-.14-1.008-.42-1.32-.272-.312-.668-.468-1.188-.468-.504 0-.904.16-1.2.48-.296.312-.444.748-.444 1.308v3.324c0 .08-.028.148-.084.204-.048.048-.112.072-.192.072h-.6zm12.683.12c-.392 0-.756-.08-1.092-.24-.336-.16-.604-.376-.804-.648-.192-.28-.288-.588-.288-.924 0-.528.216-.96.648-1.296.44-.344 1.032-.568 1.776-.672l1.788-.252v-.348c0-.816-.468-1.224-1.404-1.224-.352 0-.64.076-.864.228-.224.144-.392.316-.504.516-.024.072-.056.124-.096.156-.032.032-.08.048-.144.048h-.516c-.072 0-.136-.024-.192-.072-.048-.056-.072-.12-.072-.192.008-.192.096-.408.264-.648.176-.248.444-.46.804-.636.36-.184.804-.276 1.332-.276.896 0 1.54.212 1.932.636.392.416.588.936.588 1.56v3.888c0 .08-.028.148-.084.204-.048.048-.112.072-.192.072h-.552c-.08 0-.148-.024-.204-.072-.048-.056-.072-.124-.072-.204v-.516c-.176.256-.432.472-.768.648-.336.176-.764.264-1.284.264zm.252-.9c.52 0 .944-.168 1.272-.504.336-.344.504-.836.504-1.476v-.336l-1.392.204c-.568.08-.996.216-1.284.408-.288.184-.432.42-.432.708 0 .32.132.568.396.744.264.168.576.252.936.252zm7.685 3.42c-.656 0-1.184-.112-1.584-.336-.4-.216-.684-.464-.852-.744-.168-.28-.26-.532-.276-.756-.008-.08.016-.148.072-.204.064-.056.132-.084.204-.084h.576c.072 0 .132.016.18.048.048.04.088.108.12.204.096.256.252.476.468.66.224.192.568.288 1.032.288.592 0 1.028-.128 1.308-.384.28-.248.42-.692.42-1.332v-.816c-.208.264-.472.476-.792.636-.32.152-.7.228-1.14.228-.848 0-1.484-.268-1.908-.804-.416-.544-.636-1.232-.66-2.064l-.012-.336.012-.324c.024-.824.248-1.508.672-2.052.424-.552 1.056-.828 1.896-.828.84 0 1.496.308 1.968.924v-.516c0-.08.024-.148.072-.204.056-.056.124-.084.204-.084h.552c.08 0 .148.028.204.084.056.056.084.124.084.204v5.82c0 1.848-.94 2.772-2.82 2.772zm-.024-3.552c.544 0 .956-.18 1.236-.54.28-.36.432-.788.456-1.284.008-.072.012-.212.012-.42 0-.2-.004-.336-.012-.408-.024-.496-.176-.924-.456-1.284-.272-.36-.684-.54-1.236-.54-.568 0-.98.176-1.236.528-.256.352-.396.816-.42 1.392l-.012.312.012.324c.024.568.164 1.032.42 1.392.256.352.668.528 1.236.528zm7.684 1.032c-.88 0-1.564-.248-2.052-.744-.48-.496-.736-1.156-.768-1.98l-.012-.516.012-.516c.032-.816.292-1.472.78-1.968.488-.504 1.168-.756 2.04-.756.872 0 1.552.252 2.04.756.488.496.748 1.152.78 1.968.008.088.012.26.012.516s-.004.428-.012.516c-.032.824-.292 1.484-.78 1.98-.48.496-1.16.744-2.04.744zm0-.924c.504 0 .9-.16 1.188-.48.296-.32.456-.78.48-1.38.008-.08.012-.232.012-.456s-.004-.376-.012-.456c-.024-.6-.184-1.06-.48-1.38-.288-.32-.684-.48-1.188-.48-.504 0-.904.16-1.2.48-.296.32-.452.78-.468 1.38l-.012.456.012.456c.016.6.172 1.06.468 1.38.296.32.696.48 1.2.48z" fill="var(--on_surface)"/>
    <path fill="var(--divider_no_alpha)" fill-opacity=".2" d="M8 88h372v1H8z"/>
    <path d="M352.707 112.707c-.391-.39-1.024-.39-1.414 0l-4.588 4.588c-.389.389-.389 1.021 0 1.41.39.39 1.021.39 1.41.001l3.179-3.171c.39-.39 1.022-.39 1.412 0l3.178 3.171c.39.389 1.021.389 1.41-.001.39-.389.39-1.021 0-1.41l-4.587-4.588z" fill="var(--primary)"/>
    <path d="M29.136 121.16c-.9493 0-1.7653-.144-2.448-.432-.6827-.288-1.2-.667-1.552-1.136-.352-.469-.5387-.976-.56-1.52 0-.096.032-.176.096-.24s.144-.096.24-.096h1.424c.128 0 .224.027.288.08.0747.043.144.117.208.224.1067.363.352.667.736.912s.9067.368 1.568.368c.7573 0 1.328-.123 1.712-.368.384-.256.576-.608.576-1.056 0-.299-.1013-.544-.304-.736-.192-.192-.4853-.357-.88-.496-.384-.139-.96-.309-1.728-.512-1.2587-.299-2.1813-.693-2.768-1.184-.576-.501-.864-1.211-.864-2.128 0-.619.1653-1.168.496-1.648.3413-.48.8267-.859 1.456-1.136.64-.277 1.3813-.416 2.224-.416.8747 0 1.632.155 2.272.464.64.309 1.1253.699 1.456 1.168.3413.459.5227.917.544 1.376 0 .096-.032.176-.096.24s-.144.096-.24.096h-1.488c-.224 0-.3787-.101-.464-.304-.064-.341-.2773-.624-.64-.848-.3627-.235-.8107-.352-1.344-.352-.5973 0-1.0667.112-1.408.336-.3413.224-.512.549-.512.976 0 .299.0853.544.256.736.1707.192.4373.363.8.512.3733.149.9067.315 1.6.496.9387.213 1.6853.453 2.24.72.5653.267.9813.603 1.248 1.008.2667.405.4.923.4 1.552 0 .683-.192 1.28-.576 1.792-.3733.501-.9067.885-1.6 1.152-.6827.267-1.472.4-2.368.4zm10.0196 0c-1.184 0-2.128-.341-2.832-1.024-.6933-.693-1.0613-1.664-1.104-2.912l-.016-.4.016-.4c.0534-1.216.4267-2.171 1.12-2.864.704-.693 1.6427-1.04 2.816-1.04 1.2587 0 2.2294.384 2.912 1.152.6934.768 1.04 1.792 1.04 3.072v.336c0 .107-.0373.197-.112.272-.0746.075-.1706.112-.288.112h-5.312v.128c.0214.587.1814 1.083.48 1.488.3094.395.7307.592 1.264.592.6294 0 1.136-.245 1.52-.736.096-.117.1707-.192.224-.224.064-.032.1547-.048.272-.048h1.376c.096 0 .176.032.24.096.0747.053.112.123.112.208 0 .256-.1546.56-.464.912-.2986.341-.7306.64-1.296.896-.5653.256-1.2213.384-1.968.384zm1.776-5.04v-.048c0-.629-.16-1.136-.48-1.52-.3093-.384-.7413-.576-1.296-.576-.5546 0-.9866.192-1.296.576-.3093.384-.464.891-.464 1.52v.048h3.536zM45.456 121c-.1067 0-.1973-.037-.272-.112-.0747-.075-.112-.165-.112-.272v-10.592c0-.117.0373-.208.112-.272.0747-.075.1653-.112.272-.112h1.328c.1173 0 .208.037.272.112.0747.064.112.155.112.272v10.592c0 .107-.0373.197-.112.272-.064.075-.1547.112-.272.112h-1.328zm7.6684.16c-1.184 0-2.128-.341-2.832-1.024-.6934-.693-1.0614-1.664-1.104-2.912l-.016-.4.016-.4c.0533-1.216.4266-2.171 1.12-2.864.704-.693 1.6426-1.04 2.816-1.04 1.2586 0 2.2293.384 2.912 1.152.6933.768 1.04 1.792 1.04 3.072v.336c0 .107-.0374.197-.112.272-.0747.075-.1707.112-.288.112h-5.312v.128c.0213.587.1813 1.083.48 1.488.3093.395.7306.592 1.264.592.6293 0 1.136-.245 1.52-.736.096-.117.1706-.192.224-.224.064-.032.1546-.048.272-.048h1.376c.096 0 .176.032.24.096.0746.053.112.123.112.208 0 .256-.1547.56-.464.912-.2987.341-.7307.64-1.296.896-.5654.256-1.2214.384-1.968.384zm1.776-5.04v-.048c0-.629-.16-1.136-.48-1.52-.3094-.384-.7414-.576-1.296-.576-.5547 0-.9867.192-1.296.576-.3094.384-.464.891-.464 1.52v.048h3.536zm7.7244 5.04c-1.1734 0-2.112-.325-2.816-.976-.6934-.651-1.0614-1.552-1.104-2.704l-.016-.64.016-.64c.0426-1.152.4106-2.053 1.104-2.704.704-.651 1.6426-.976 2.816-.976.832 0 1.536.149 2.112.448.5866.299 1.0186.667 1.296 1.104.288.427.4426.832.464 1.216.0106.107-.0267.197-.112.272-.0747.075-.1654.112-.272.112h-1.408c-.1067 0-.192-.021-.256-.064-.0534-.053-.1067-.139-.16-.256-.16-.416-.3734-.715-.64-.896-.256-.181-.5867-.272-.992-.272-.544 0-.9707.176-1.28.528-.3094.341-.4747.864-.496 1.568l-.016.592.016.528c.0426 1.397.6346 2.096 1.776 2.096.416 0 .752-.091 1.008-.272.256-.181.464-.48.624-.896.0533-.117.1066-.197.16-.24.064-.053.1493-.08.256-.08h1.408c.1066 0 .1973.037.272.112.0853.075.1226.165.112.272-.0214.373-.1707.773-.4481 1.2-.2773.427-.7039.795-1.2799 1.104-.576.309-1.2907.464-2.144.464zm9.5506-.16c-.9707 0-1.7014-.251-2.192-.752-.48-.512-.72-1.259-.72-2.24v-3.632h-1.264c-.1067 0-.1974-.037-.272-.112-.0747-.085-.112-.181-.112-.288v-.912c0-.107.0373-.197.112-.272.0746-.075.1653-.112.272-.112h1.264v-2.656c0-.117.0373-.208.112-.272.0746-.075.1653-.112.272-.112h1.296c.1173 0 .208.037.272.112.0746.064.112.155.112.272v2.656h2c.1173 0 .208.037.272.112.0746.064.112.155.112.272v.912c0 .117-.0374.213-.112.288-.0747.075-.1654.112-.272.112h-2v3.472c0 .459.08.805.24 1.04.16.235.4266.352.8.352h1.104c.1066 0 .1973.037.272.112.0746.075.112.165.112.272v.992c0 .107-.0374.197-.112.272-.064.075-.1547.112-.272.112h-1.296zm11.8636.16c-1.0987 0-1.952-.379-2.56-1.136v.592c0 .107-.0373.197-.112.272-.064.075-.1547.112-.272.112h-1.264c-.1067 0-.1973-.037-.272-.112-.0747-.075-.112-.165-.112-.272v-10.592c0-.117.0373-.208.112-.272.0747-.075.1653-.112.272-.112h1.36c.1173 0 .208.037.272.112.0747.064.112.155.112.272v3.552c.608-.704 1.4293-1.056 2.464-1.056 1.0773 0 1.904.352 2.48 1.056.576.704.8853 1.616.928 2.736.0107.128.016.299.016.512 0 .224-.0053.4-.016.528-.0427 1.152-.352 2.075-.928 2.768-.576.693-1.4027 1.04-2.48 1.04zm-.592-1.712c1.152 0 1.7653-.709 1.84-2.128.0107-.107.016-.267.016-.48 0-.213-.0053-.373-.016-.48-.0747-1.419-.688-2.128-1.84-2.128-.5973 0-1.056.192-1.376.576-.3093.373-.4747.827-.496 1.36l-.016.608.016.624c.032.576.1973 1.061.496 1.456.2987.395.7573.592 1.376.592zM89.8775 121c-.1067 0-.1973-.037-.272-.112-.0747-.075-.112-.165-.112-.272v-7.536c0-.107.0373-.197.112-.272.0747-.085.1653-.128.272-.128h1.296c.1173 0 .2133.037.288.112.0747.075.112.171.112.288v.656c.256-.341.576-.603.96-.784.3947-.181.8427-.272 1.344-.272h.656c.1173 0 .208.037.272.112.0747.064.112.155.112.272v1.152c0 .107-.0373.197-.112.272-.064.075-.1547.112-.272.112h-1.248c-.5013 0-.896.144-1.184.432-.288.288-.432.683-.432 1.184v4.4c0 .107-.0373.197-.112.272-.0747.075-.1707.112-.288.112h-1.392zm8.8289.16c-.544 0-1.0454-.107-1.504-.32-.448-.224-.8054-.523-1.072-.896-.256-.373-.384-.784-.384-1.232 0-.725.2933-1.312.88-1.76.5866-.448 1.392-.752 2.416-.912l2.1916-.32v-.336c0-.469-.117-.821-.352-1.056-.234-.235-.613-.352-1.1356-.352-.352 0-.64.069-.864.208-.2134.128-.384.256-.512.384-.128.139-.2134.229-.256.272-.0427.128-.1227.192-.24.192h-1.232c-.096 0-.1814-.032-.256-.096-.064-.064-.096-.149-.096-.256.0106-.267.1386-.571.384-.912.256-.341.6453-.635 1.168-.88.5226-.245 1.1626-.368 1.92-.368 1.2586 0 2.1756.283 2.7516.848.576.565.864 1.307.864 2.224v5.024c0 .107-.037.197-.112.272-.064.075-.154.112-.272.112h-1.296c-.106 0-.197-.037-.272-.112-.074-.075-.112-.165-.112-.272v-.624c-.234.341-.57.624-1.008.848-.4263.213-.9596.32-1.5996.32zm.544-1.52c.5866 0 1.0666-.192 1.4396-.576.374-.384.56-.944.56-1.68v-.336l-1.5996.256c-.6187.096-1.088.251-1.408.464-.3094.213-.464.475-.464.784 0 .341.144.608.432.8.288.192.6346.288 1.04.288zm6.8146 1.36c-.107 0-.197-.037-.272-.112-.075-.075-.112-.165-.112-.272v-7.552c0-.107.037-.197.112-.272.075-.075.165-.112.272-.112h1.312c.107 0 .197.037.272.112.075.075.112.165.112.272v.656c.629-.8 1.52-1.2 2.672-1.2.981 0 1.76.325 2.336.976.576.64.864 1.515.864 2.624v4.496c0 .107-.037.197-.112.272-.064.075-.155.112-.272.112h-1.408c-.107 0-.197-.037-.272-.112-.075-.075-.112-.165-.112-.272v-4.4c0-.629-.155-1.115-.464-1.456-.299-.352-.736-.528-1.312-.528-.565 0-1.013.176-1.344.528-.32.352-.48.837-.48 1.456v4.4c0 .107-.037.197-.112.272-.064.075-.155.112-.272.112h-1.408zm13.45.16c-1.173 0-2.112-.325-2.816-.976-.693-.651-1.061-1.552-1.104-2.704l-.016-.64.016-.64c.043-1.152.411-2.053 1.104-2.704.704-.651 1.643-.976 2.816-.976.832 0 1.536.149 2.112.448.587.299 1.019.667 1.296 1.104.288.427.443.832.464 1.216.011.107-.026.197-.112.272-.074.075-.165.112-.272.112h-1.408c-.106 0-.192-.021-.256-.064-.053-.053-.106-.139-.16-.256-.16-.416-.373-.715-.64-.896-.256-.181-.586-.272-.992-.272-.544 0-.97.176-1.28.528-.309.341-.474.864-.496 1.568l-.016.592.016.528c.043 1.397.635 2.096 1.776 2.096.416 0 .752-.091 1.008-.272.256-.181.464-.48.624-.896.054-.117.107-.197.16-.24.064-.053.15-.08.256-.08h1.408c.107 0 .198.037.272.112.086.075.123.165.112.272-.021.373-.17.773-.448 1.2-.277.427-.704.795-1.28 1.104-.576.309-1.29.464-2.144.464zm6.191-.16c-.107 0-.197-.037-.272-.112-.075-.075-.112-.165-.112-.272v-10.592c0-.117.037-.208.112-.272.075-.075.165-.112.272-.112h1.424c.117 0 .208.037.272.112.075.064.112.155.112.272v3.648c.64-.768 1.504-1.152 2.592-1.152.981 0 1.765.325 2.352.976.587.64.88 1.515.88 2.624v4.496c0 .107-.037.197-.112.272-.064.075-.155.112-.272.112h-1.44c-.107 0-.197-.037-.272-.112-.075-.075-.112-.165-.112-.272v-4.4c0-.629-.155-1.115-.464-1.456-.299-.352-.736-.528-1.312-.528-.565 0-1.013.176-1.344.528-.331.352-.496.837-.496 1.456v4.4c0 .107-.037.197-.112.272-.064.075-.155.112-.272.112h-1.424zm13.497.16c-1.184 0-2.128-.341-2.832-1.024-.694-.693-1.062-1.664-1.104-2.912l-.016-.4.016-.4c.053-1.216.426-2.171 1.12-2.864.704-.693 1.642-1.04 2.816-1.04 1.258 0 2.229.384 2.912 1.152.693.768 1.04 1.792 1.04 3.072v.336c0 .107-.038.197-.112.272-.075.075-.171.112-.288.112h-5.312v.128c.021.587.181 1.083.48 1.488.309.395.73.592 1.264.592.629 0 1.136-.245 1.52-.736.096-.117.17-.192.224-.224.064-.032.154-.048.272-.048h1.376c.096 0 .176.032.24.096.074.053.112.123.112.208 0 .256-.155.56-.464.912-.299.341-.731.64-1.296.896-.566.256-1.222.384-1.968.384zm1.776-5.04v-.048c0-.629-.16-1.136-.48-1.52-.31-.384-.742-.576-1.296-.576-.555 0-.987.192-1.296.576-.31.384-.464.891-.464 1.52v.048h3.536zm7.276 5.04c-.8 0-1.472-.117-2.016-.352-.544-.245-.949-.528-1.216-.848-.256-.331-.384-.613-.384-.848 0-.107.037-.192.112-.256.075-.064.16-.096.256-.096h1.264c.096 0 .176.037.24.112.043.032.155.128.336.288.181.171.395.304.64.4.245.096.517.144.816.144.427 0 .779-.085 1.056-.256.277-.171.416-.405.416-.704 0-.224-.064-.405-.192-.544-.117-.139-.336-.261-.656-.368-.32-.117-.795-.24-1.424-.368-.907-.192-1.579-.485-2.016-.88-.427-.395-.64-.917-.64-1.568 0-.427.128-.827.384-1.2.256-.384.635-.693 1.136-.928.512-.245 1.12-.368 1.824-.368.715 0 1.333.117 1.856.352.523.224.917.496 1.184.816.277.309.416.587.416.832 0 .096-.037.181-.112.256-.064.064-.144.096-.24.096h-1.184c-.085 0-.176-.037-.272-.112-.075-.053-.192-.155-.352-.304-.16-.149-.347-.267-.56-.352-.213-.085-.464-.128-.752-.128-.395 0-.704.085-.928.256-.213.171-.32.395-.32.672 0 .203.053.368.16.496.107.128.315.251.624.368.309.117.773.235 1.392.352 1.024.203 1.755.517 2.192.944.448.427.672.949.672 1.568 0 .747-.325 1.355-.976 1.824-.651.469-1.563.704-2.736.704z" fill="var(--on_surface)"/>
    <path fill="var(--divider_no_alpha)" fill-opacity=".2" d="M8 143h372v1H8z"/>
    <path d="M8 774h930v84H8v-84z" fill="var(--surface)"/>
    <g clip-path="url(#branch-clip8)">
      <path fill-rule="evenodd" clip-rule="evenodd" d="M289 786c-4.24 0-7.812 3.307-7.993 8.579l2.286-2.286c.39-.391 1.024-.391 1.414 0 .391.39.391 1.024 0 1.414l-4 4c-.39.391-1.024.391-1.414 0l-4-4c-.391-.39-.391-1.024 0-1.414.39-.391 1.024-.391 1.414 0l2.299 2.299C279.187 788.328 283.529 784 289 784c5.523 0 10 4.477 10 10s-4.477 10-10 10c-2.754 0-5.249-1.114-7.057-2.915-.391-.389-.392-1.023-.003-1.414.39-.391 1.023-.392 1.415-.003C284.802 801.11 286.796 802 289 802c4.418 0 8-3.582 8-8s-3.582-8-8-8zm1 4c0-.552-.448-1-1-1s-1 .448-1 1v5c0 .552.448 1 1 1h4c.552 0 1-.448 1-1s-.448-1-1-1h-3v-4z" fill="var(--primary)"/>
    </g>
    <path d="M265.519 822c-.08 0-.148-.028-.204-.084-.056-.056-.084-.124-.084-.204V813.9c0-.088.024-.16.072-.216.056-.056.128-.084.216-.084h1.092c.088 0 .156.028.204.084.056.056.084.128.084.216v3.096h3.54V813.9c0-.088.024-.16.072-.216.056-.056.128-.084.216-.084h1.08c.088 0 .16.028.216.084.056.056.084.128.084.216v7.812c0 .088-.028.16-.084.216-.056.048-.128.072-.216.072h-1.08c-.08 0-.148-.028-.204-.084-.056-.056-.084-.124-.084-.204v-3.216h-3.54v3.216c0 .08-.028.148-.084.204-.048.056-.116.084-.204.084h-1.092zm9.05-7.272c-.08 0-.148-.028-.204-.084-.056-.056-.084-.124-.084-.204v-.864c0-.08.028-.148.084-.204.056-.056.124-.084.204-.084h1.092c.08 0 .148.028.204.084.064.056.096.124.096.204v.864c0 .08-.028.148-.084.204-.056.056-.128.084-.216.084h-1.092zm.048 7.272c-.08 0-.148-.028-.204-.084-.056-.056-.084-.124-.084-.204v-5.664c0-.08.028-.148.084-.204.056-.056.124-.084.204-.084h.996c.088 0 .156.028.204.084.056.048.084.116.084.204v5.664c0 .08-.028.148-.084.204-.048.056-.116.084-.204.084h-.996zm5.74.12c-.6 0-1.104-.088-1.512-.264-.408-.184-.712-.396-.912-.636-.192-.248-.288-.46-.288-.636 0-.08.028-.144.084-.192.056-.048.12-.072.192-.072h.948c.072 0 .132.028.18.084.032.024.116.096.252.216.136.128.296.228.48.3.184.072.388.108.612.108.32 0 .584-.064.792-.192.208-.128.312-.304.312-.528 0-.168-.048-.304-.144-.408-.088-.104-.252-.196-.492-.276-.24-.088-.596-.18-1.068-.276-.68-.144-1.184-.364-1.512-.66-.32-.296-.48-.688-.48-1.176 0-.32.096-.62.288-.9.192-.288.476-.52.852-.696.384-.184.84-.276 1.368-.276.536 0 1 .088 1.392.264.392.168.688.372.888.612.208.232.312.44.312.624 0 .072-.028.136-.084.192-.048.048-.108.072-.18.072h-.888c-.064 0-.132-.028-.204-.084-.056-.04-.144-.116-.264-.228-.12-.112-.26-.2-.42-.264-.16-.064-.348-.096-.564-.096-.296 0-.528.064-.696.192-.16.128-.24.296-.24.504 0 .152.04.276.12.372.08.096.236.188.468.276.232.088.58.176 1.044.264.768.152 1.316.388 1.644.708.336.32.504.712.504 1.176 0 .56-.244 1.016-.732 1.368-.488.352-1.172.528-2.052.528zm7.319-.12c-.728 0-1.276-.188-1.644-.564-.36-.384-.54-.944-.54-1.68v-2.724h-.948c-.08 0-.148-.028-.204-.084-.056-.064-.084-.136-.084-.216v-.684c0-.08.028-.148.084-.204.056-.056.124-.084.204-.084h.948v-1.992c0-.088.028-.156.084-.204.056-.056.124-.084.204-.084h.972c.088 0 .156.028.204.084.056.048.084.116.084.204v1.992h1.5c.088 0 .156.028.204.084.056.048.084.116.084.204v.684c0 .088-.028.16-.084.216-.056.056-.124.084-.204.084h-1.5v2.604c0 .344.06.604.18.78.12.176.32.264.6.264h.828c.08 0 .148.028.204.084.056.056.084.124.084.204v.744c0 .08-.028.148-.084.204-.048.056-.116.084-.204.084h-.972zm5.585.12c-.936 0-1.66-.24-2.172-.72-.512-.488-.788-1.152-.828-1.992l-.012-.528.012-.528c.04-.832.32-1.492.84-1.98s1.24-.732 2.16-.732c.92 0 1.64.244 2.16.732.52.488.8 1.148.84 1.98.008.096.012.272.012.528s-.004.432-.012.528c-.04.84-.316 1.504-.828 1.992-.512.48-1.236.72-2.172.72zm0-1.188c.424 0 .752-.132.984-.396.232-.272.36-.668.384-1.188.008-.08.012-.236.012-.468 0-.232-.004-.388-.012-.468-.024-.52-.152-.912-.384-1.176-.232-.272-.56-.408-.984-.408-.424 0-.752.136-.984.408-.232.264-.36.656-.384 1.176l-.012.468.012.468c.024.52.152.916.384 1.188.232.264.56.396.984.396zm5.13 1.068c-.08 0-.148-.028-.204-.084-.056-.056-.084-.124-.084-.204v-5.652c0-.08.028-.148.084-.204.056-.064.124-.096.204-.096h.972c.088 0 .16.028.216.084.056.056.084.128.084.216v.492c.192-.256.432-.452.72-.588.296-.136.632-.204 1.008-.204h.492c.088 0 .156.028.204.084.056.048.084.116.084.204v.864c0 .08-.028.148-.084.204-.048.056-.116.084-.204.084h-.936c-.376 0-.672.108-.888.324-.216.216-.324.512-.324.888v3.3c0 .08-.028.148-.084.204-.056.056-.128.084-.216.084h-1.044zm6.343 2.28c-.064 0-.12-.024-.168-.072-.048-.048-.072-.104-.072-.168 0-.072.016-.136.048-.192l.936-2.22-2.304-5.436c-.032-.072-.048-.128-.048-.168.008-.072.036-.132.084-.18.048-.056.108-.084.18-.084h.972c.152 0 .26.076.324.228l1.596 3.924 1.644-3.924c.064-.152.172-.228.324-.228h.96c.064 0 .12.024.168.072.056.048.084.104.084.168 0 .056-.016.12-.048.192l-3.396 7.86c-.072.152-.184.228-.336.228h-.948z" fill="var(--primary)"/>
    <g opacity=".6" fill="var(--on_surface)">
      <path d="M104.793 784.293c.39-.391 1.024-.391 1.414 0l4.207 4.207c.375.375.586.884.586 1.414V803c0 .552-.448 1-1 1s-1-.448-1-1v-13.086l-4.207-4.207c-.391-.39-.391-1.024 0-1.414zM103 795c0-.552-.448-1-1-1h-6c-.5523 0-1 .448-1 1s.4477 1 1 1h6c.552 0 1-.448 1-1zM95 799c0-.552.4477-1 1-1h6c.552 0 1 .448 1 1s-.448 1-1 1h-6c-.5523 0-1-.448-1-1z"/>
      <path fill-rule="evenodd" clip-rule="evenodd" d="M99.6716 784c.5304 0 1.0394.211 1.4144.586l5.328 5.328c.375.375.586.884.586 1.414V802c0 1.105-.895 2-2 2H93c-1.1046 0-2-.895-2-2v-16c0-1.105.8954-2 2-2h6.6716zM93 786v16h12v-10h-5c-.5523 0-1-.448-1-1v-5h-6zm8 1.25V790h2.75l-2.75-2.75z"/>
      <path d="M69.2985 822.12c-1.072 0-1.888-.288-2.448-.864-.552-.576-.848-1.372-.888-2.388-.008-.216-.012-.568-.012-1.056 0-.496.004-.856.012-1.08.04-1.008.34-1.8.9-2.376.56-.584 1.372-.876 2.436-.876.712 0 1.316.128 1.812.384.496.248.872.576 1.128.984.256.408.396.844.42 1.308v.024c0 .064-.028.12-.084.168-.048.04-.104.06-.168.06h-.66c-.16 0-.26-.092-.3-.276-.136-.6-.38-1.02-.732-1.26-.352-.248-.824-.372-1.416-.372-1.376 0-2.088.764-2.136 2.292-.008.216-.012.548-.012.996 0 .448.004.788.012 1.02.048 1.528.76 2.292 2.136 2.292.592 0 1.064-.12 1.416-.36.36-.248.604-.672.732-1.272.024-.104.06-.176.108-.216.048-.04.112-.06.192-.06h.66c.072 0 .132.024.18.072.056.04.08.096.072.168-.024.472-.164.912-.42 1.32-.256.408-.632.74-1.128.996-.496.248-1.1.372-1.812.372zm5.6002-.12c-.08 0-.148-.024-.204-.072-.048-.056-.072-.124-.072-.204v-7.968c0-.08.024-.144.072-.192.056-.056.124-.084.204-.084h.6c.08 0 .144.028.192.084.056.048.084.112.084.192v2.796c.232-.296.504-.52.816-.672.312-.16.7-.24 1.164-.24.768 0 1.364.248 1.788.744.432.488.648 1.14.648 1.956v3.384c0 .08-.028.148-.084.204-.048.048-.112.072-.192.072h-.6c-.08 0-.148-.024-.204-.072-.048-.056-.072-.124-.072-.204V818.4c0-.568-.14-1.008-.42-1.32-.272-.312-.668-.468-1.188-.468-.504 0-.908.16-1.212.48-.296.312-.444.748-.444 1.308v3.324c0 .08-.028.148-.084.204-.048.048-.112.072-.192.072h-.6zm9.2645.12c-.392 0-.756-.08-1.092-.24-.336-.16-.604-.376-.804-.648-.192-.28-.288-.588-.288-.924 0-.528.216-.96.648-1.296.44-.344 1.032-.568 1.776-.672l1.788-.252v-.348c0-.816-.468-1.224-1.404-1.224-.352 0-.64.076-.864.228-.224.144-.392.316-.504.516-.024.072-.056.124-.096.156-.032.032-.08.048-.144.048h-.516c-.072 0-.136-.024-.192-.072-.048-.056-.072-.12-.072-.192.008-.192.096-.408.264-.648.176-.248.444-.46.804-.636.36-.184.804-.276 1.332-.276.896 0 1.54.212 1.932.636.392.416.588.936.588 1.56v3.888c0 .08-.028.148-.084.204-.048.048-.112.072-.192.072h-.552c-.08 0-.148-.024-.204-.072-.048-.056-.072-.124-.072-.204v-.516c-.176.256-.432.472-.768.648-.336.176-.764.264-1.284.264zm.252-.9c.52 0 .944-.168 1.272-.504.336-.344.504-.836.504-1.476v-.336l-1.392.204c-.568.08-.996.216-1.284.408-.288.184-.432.42-.432.708 0 .32.132.568.396.744.264.168.576.252.936.252zm5.4051.78c-.08 0-.148-.024-.204-.072-.048-.056-.072-.124-.072-.204v-5.688c0-.08.024-.144.072-.192.056-.056.124-.084.204-.084h.564c.08 0 .144.028.192.084.056.048.084.112.084.192v.528c.232-.296.504-.524.816-.684.32-.16.716-.24 1.188-.24.768 0 1.364.248 1.788.744.432.488.648 1.14.648 1.956v3.384c0 .08-.028.148-.084.204-.048.048-.112.072-.1921.072h-.5999c-.08 0-.148-.024-.204-.072-.048-.056-.072-.124-.072-.204V818.4c0-.568-.14-1.008-.42-1.32-.272-.312-.668-.468-1.188-.468-.504 0-.904.16-1.2.48-.296.312-.444.748-.444 1.308v3.324c0 .08-.028.148-.084.204-.048.048-.112.072-.1921.072h-.5999zm10.0573 2.64c-.656 0-1.184-.112-1.584-.336-.4-.216-.684-.464-.852-.744-.168-.28-.26-.532-.276-.756-.008-.08.016-.148.072-.204.064-.056.132-.084.204-.084h.576c.072 0 .132.016.18.048.048.04.088.108.12.204.096.256.252.476.468.66.224.192.568.288 1.032.288.5924 0 1.0284-.128 1.3084-.384.28-.248.42-.692.42-1.332v-.816c-.208.264-.472.476-.792.636-.32.152-.7.228-1.1404.228-.848 0-1.484-.268-1.908-.804-.416-.544-.636-1.232-.66-2.064l-.012-.336.012-.324c.024-.824.248-1.508.672-2.052.424-.552 1.056-.828 1.896-.828.8404 0 1.4964.308 1.9684.924v-.516c0-.08.024-.148.072-.204.056-.056.124-.084.204-.084h.552c.08 0 .148.028.204.084.056.056.084.124.084.204v5.82c0 1.848-.94 2.772-2.8204 2.772zm-.024-3.552c.5444 0 .9564-.18 1.2364-.54.28-.36.432-.788.456-1.284.008-.072.012-.212.012-.42 0-.2-.004-.336-.012-.408-.024-.496-.176-.924-.456-1.284-.272-.36-.684-.54-1.2364-.54-.568 0-.98.176-1.236.528-.256.352-.396.816-.42 1.392l-.012.312.012.324c.024.568.164 1.032.42 1.392.256.352.668.528 1.236.528zm7.6244 1.032c-.824 0-1.484-.252-1.98-.756-.488-.512-.756-1.208-.804-2.088l-.012-.408.012-.396c.056-.864.328-1.552.816-2.064.496-.512 1.148-.768 1.956-.768.888 0 1.576.284 2.064.852.488.56.732 1.32.732 2.28v.204c0 .08-.028.148-.084.204-.048.048-.112.072-.192.072h-4.152v.108c.024.52.18.964.468 1.332.296.36.684.54 1.164.54.368 0 .668-.072.9-.216.24-.152.416-.308.528-.468.072-.096.124-.152.156-.168.04-.024.108-.036.204-.036h.588c.072 0 .132.02.18.06.048.04.072.096.072.168 0 .176-.112.388-.336.636-.216.248-.524.464-.924.648-.392.176-.844.264-1.356.264zm1.644-3.696v-.036c0-.552-.152-1-.456-1.344-.296-.352-.696-.528-1.2-.528s-.904.176-1.2.528c-.288.344-.432.792-.432 1.344v.036h3.288zm5.235 3.696c-.56 0-1.032-.088-1.416-.264-.376-.184-.66-.392-.852-.624-.184-.232-.276-.424-.276-.576 0-.08.028-.14.084-.18.064-.048.128-.072.192-.072h.54c.08 0 .152.04.216.12.192.224.4.4.624.528.224.128.524.192.9.192.416 0 .752-.08 1.008-.24.264-.168.396-.396.396-.684 0-.192-.056-.348-.168-.468-.104-.128-.288-.236-.552-.324-.256-.096-.64-.2-1.152-.312-.696-.152-1.192-.372-1.488-.66-.288-.288-.432-.66-.432-1.116 0-.304.088-.592.264-.864.184-.28.448-.504.792-.672.352-.176.772-.264 1.26-.264.512 0 .948.084 1.308.252.36.168.628.368.804.6.184.224.276.412.276.564 0 .072-.028.132-.084.18-.048.048-.108.072-.18.072h-.504c-.096 0-.176-.04-.24-.12-.128-.152-.24-.268-.336-.348-.088-.088-.22-.164-.396-.228-.168-.064-.384-.096-.648-.096-.384 0-.68.084-.888.252-.208.16-.312.372-.312.636 0 .168.044.312.132.432.088.112.256.216.504.312.256.096.624.196 1.104.3.76.16 1.296.392 1.608.696.32.296.48.676.48 1.14 0 .344-.1.656-.3.936-.2.28-.496.5-.888.66-.384.16-.844.24-1.38.24zm10.502 1.788c-.688 0-1.24-.196-1.656-.588-.408-.392-.704-.996-.888-1.812-.176-.816-.264-1.888-.264-3.216 0-1.328.088-2.4.264-3.216.184-.816.48-1.416.888-1.8.416-.392.968-.588 1.656-.588.08 0 .144.028.192.084.056.048.084.112.084.192v.42c0 .072-.024.136-.072.192-.048.056-.104.084-.168.084-.456.008-.812.16-1.068.456-.256.296-.44.776-.552 1.44-.112.664-.168 1.576-.168 2.736 0 1.16.056 2.072.168 2.736.112.664.296 1.144.552 1.44.256.304.612.46 1.068.468.064 0 .12.028.168.084.048.056.072.12.072.192v.42c0 .08-.028.144-.084.192-.048.056-.112.084-.192.084zm4.232-1.788c-.64 0-1.196-.128-1.668-.384-.472-.264-.832-.616-1.08-1.056-.248-.44-.372-.92-.372-1.44 0-.424.084-.824.252-1.2.176-.384.372-.724.588-1.02l2.28-3.18c.008-.008.032-.036.072-.084.032-.048.076-.084.132-.108.056-.032.12-.048.192-.048h.636c.072 0 .128.028.168.084.048.048.072.108.072.18 0 .056-.016.108-.048.156l-1.752 2.448c.176-.056.404-.084.684-.084.576.008 1.084.14 1.524.396.448.256.792.6 1.032 1.032.248.432.372.904.372 1.416 0 .512-.124.992-.372 1.44-.24.44-.596.792-1.068 1.056-.464.264-1.012.396-1.644.396zm-.012-1.02c.344 0 .66-.072.948-.216.296-.144.528-.356.696-.636.176-.288.264-.628.264-1.02 0-.384-.088-.716-.264-.996-.168-.28-.4-.492-.696-.636-.288-.144-.604-.216-.948-.216-.336 0-.652.072-.948.216-.288.144-.52.356-.696.636-.176.28-.264.612-.264.996 0 .392.088.732.264 1.02.176.28.408.492.696.636.288.144.604.216.948.216zm4.188 2.808c-.072 0-.136-.028-.192-.084-.056-.048-.084-.112-.084-.192v-.42c0-.072.024-.136.072-.192.056-.056.116-.084.18-.084.448-.008.8-.164 1.056-.468.264-.296.452-.776.564-1.44.112-.664.168-1.576.168-2.736 0-1.16-.056-2.072-.168-2.736-.112-.664-.3-1.144-.564-1.44-.256-.296-.608-.448-1.056-.456-.064 0-.124-.028-.18-.084-.048-.056-.072-.12-.072-.192v-.42c0-.08.028-.144.084-.192.056-.056.12-.084.192-.084.696 0 1.248.196 1.656.588.408.384.7.984.876 1.8.184.808.276 1.88.276 3.216 0 1.336-.092 2.412-.276 3.228-.176.808-.468 1.408-.876 1.8-.408.392-.96.588-1.656.588z"/>
    </g>
    <path d="M8 774v-.5h-.5v.5H8zm930 0h.5v-.5h-.5v.5zm0 84v.5h.5v-.5h-.5zM8 858h-.5v.5H8v-.5zm0-83.5h930v-1H8v1zm929.5-.5v84h1v-84h-1zm.5 83.5H8v1h930v-1zM8.5 858v-84h-1v84h1z" fill="var(--divider_no_alpha)" fill-opacity=".2"/>
  </g>
  <rect x="8.5" y="16.5" width="371" height="821" rx="35.5" stroke="var(--divider_no_alpha)" stroke-opacity=".12"/>
  <defs>
    <clipPath id="branch-clip0">
      <rect x="8" y="16" width="372" height="822" rx="36" fill="var(--surface)"/>
    </clipPath>
    <clipPath id="branch-clip1">
      <path fill="var(--surface)" d="M24 232h61v24H24z"/>
    </clipPath>
    <clipPath id="branch-clip2">
      <rect x="214" y="232" width="30" height="24" rx="4" fill="var(--surface)"/>
    </clipPath>
    <clipPath id="branch-clip3">
      <path fill="var(--surface)" d="M24 288h57v24H24z"/>
    </clipPath>
    <clipPath id="branch-clip4">
      <path fill="var(--surface)" d="M24 472h141v24H24z"/>
    </clipPath>
    <clipPath id="branch-clip5">
      <path d="M284 456h96v56h-96v-56z" fill="var(--surface)"/>
    </clipPath>
    <clipPath id="branch-clip6">
      <path fill="var(--surface)" d="M24 528h135v24H24z"/>
    </clipPath>
    <clipPath id="branch-clip7">
      <path d="M284 512h96v56h-96v-56z" fill="var(--surface)"/>
    </clipPath>
    <clipPath id="branch-clip8">
      <path d="M275 782h24v24h-24v-24z" fill="var(--surface)"/>
    </clipPath>
  </defs>
</svg>
