<svg viewBox="0 0 48 47" fill="none" xmlns="http://www.w3.org/2000/svg">
<path d="M44.7343 11.9407C42.5903 8.26737 39.6822 5.35916 36.0092 3.21545C32.3356 1.07164 28.3251 0 23.975 0C19.6253 0 15.6136 1.07196 11.9407 3.21545C8.26737 5.35905 5.35938 8.26737 3.21545 11.9407C1.07185 15.614 0 19.6252 0 23.9743C0 29.1985 1.52419 33.8963 4.57334 38.0688C7.62216 42.2416 11.5608 45.1291 16.3889 46.7314C16.9509 46.8358 17.3669 46.7624 17.6374 46.5132C17.908 46.2637 18.0432 45.9512 18.0432 45.577C18.0432 45.5146 18.0378 44.9529 18.0274 43.8914C18.0167 42.8298 18.0117 41.9037 18.0117 41.1135L17.2937 41.2377C16.8359 41.3216 16.2583 41.3571 15.5611 41.347C14.8641 41.3373 14.1406 41.2643 13.3916 41.1285C12.6422 40.9939 11.9451 40.6817 11.2999 40.1926C10.655 39.7035 10.1972 39.0634 9.9266 38.2731L9.61443 37.5547C9.40636 37.0764 9.07878 36.5452 8.63125 35.9628C8.18373 35.3799 7.73117 34.9848 7.27337 34.7767L7.0548 34.6202C6.90916 34.5163 6.77401 34.3909 6.64904 34.2453C6.52417 34.0998 6.43069 33.9542 6.36826 33.8083C6.30571 33.6623 6.35754 33.5426 6.52428 33.4487C6.69103 33.3548 6.99236 33.3092 7.42961 33.3092L8.05372 33.4024C8.46998 33.4859 8.98486 33.735 9.59902 34.1515C10.2128 34.5677 10.7174 35.1087 11.1129 35.7743C11.5918 36.6278 12.1688 37.2782 12.8455 37.7257C13.5217 38.1732 14.2034 38.3966 14.8901 38.3966C15.5767 38.3966 16.1698 38.3446 16.6694 38.241C17.1686 38.1369 17.6369 37.9805 18.0741 37.7725C18.2614 36.3775 18.7714 35.3059 19.6036 34.5568C18.4175 34.4322 17.3511 34.2444 16.4039 33.9948C15.4572 33.7449 14.4789 33.3392 13.4697 32.7768C12.46 32.2151 11.6223 31.5176 10.9566 30.6856C10.2907 29.8531 9.74422 28.7601 9.31791 27.4077C8.89137 26.0547 8.67805 24.494 8.67805 22.7251C8.67805 20.2065 9.50028 18.0632 11.1444 16.2941C10.3742 14.4005 10.4469 12.2778 11.3628 9.92616C11.9663 9.73864 12.8614 9.87936 14.0475 10.3474C15.2338 10.8157 16.1024 11.2169 16.6541 11.5495C17.2059 11.882 17.6479 12.1638 17.981 12.3923C19.9168 11.8514 21.9146 11.5809 23.9747 11.5809C26.0349 11.5809 28.0331 11.8514 29.9691 12.3923L31.1553 11.6434C31.9665 11.1438 32.9244 10.6859 34.0268 10.2696C35.1298 9.85356 35.9732 9.73897 36.5562 9.92649C37.4924 12.2783 37.5758 14.4009 36.8054 16.2944C38.4494 18.0635 39.272 20.2073 39.272 22.7254C39.272 24.4943 39.0579 26.06 38.632 27.4233C38.2056 28.7869 37.6544 29.8787 36.9783 30.7012C36.3013 31.5235 35.4583 32.2155 34.4491 32.7771C33.4397 33.3391 32.4611 33.7448 31.5145 33.9947C30.5674 34.2447 29.501 34.4325 28.3149 34.5574C29.3967 35.4935 29.9377 36.9713 29.9377 38.9899V45.5762C29.9377 45.9503 30.0678 46.2627 30.3282 46.5123C30.5884 46.7615 30.9991 46.8349 31.5612 46.7305C36.3899 45.1283 40.3285 42.2408 43.3772 38.0679C46.4256 33.8954 47.9504 29.1977 47.9504 23.9734C47.9493 19.6249 46.8769 15.614 44.7343 11.9407Z" fill="var(--on_surface)"/>
</svg>
