<svg width="392" height="858" viewBox="0 0 392 858" fill="none" xmlns="http://www.w3.org/2000/svg">
<path d="M389 156H390C391.105 156 392 156.927 392 158.071V260.929C392 262.073 391.105 263 390 263H389V156Z" fill="#002BFF"/>
<path d="M389 321H390C391.105 321 392 321.927 392 323.071V374.929C392 376.073 391.105 377 390 377H389V321Z" fill="#002BFF"/>
<path d="M0 87.4C0 48.4865 0 29.0297 11.0497 16.1254C12.6188 14.293 14.3298 12.5864 16.167 11.0213C29.1045 0 48.6114 0 87.6253 0H301.375C340.389 0 359.895 0 372.833 11.0213C374.67 12.5864 376.381 14.293 377.95 16.1254C389 29.0297 389 48.4865 389 87.4V770.6C389 809.513 389 828.97 377.95 841.875C376.381 843.707 374.67 845.414 372.833 846.979C359.895 858 340.389 858 301.375 858H87.6252C48.6114 858 29.1045 858 16.167 846.979C14.3298 845.414 12.6188 843.707 11.0497 841.875C0 828.97 0 809.513 0 770.6V87.4Z" fill="#F7F9FD"/>
<path d="M0.5 87.4C0.5 67.9306 0.500869 53.3739 1.87755 42.0697C3.2528 30.7773 5.99461 22.7977 11.4295 16.4506C12.9815 14.6381 14.674 12.95 16.4912 11.4019C22.8549 5.98076 30.8556 3.24581 42.1777 1.87404C53.5112 0.50086 68.1058 0.5 87.6253 0.5H301.375C320.894 0.5 335.489 0.50086 346.822 1.87404C358.144 3.24581 366.145 5.98076 372.509 11.4019C374.326 12.95 376.018 14.6381 377.57 16.4506C383.005 22.7977 385.747 30.7773 387.122 42.0697C388.499 53.3739 388.5 67.9306 388.5 87.4V770.6C388.5 790.069 388.499 804.626 387.122 815.93C385.747 827.223 383.005 835.202 377.57 841.549C376.018 843.362 374.326 845.05 372.509 846.598C366.145 852.019 358.144 854.754 346.822 856.126C335.489 857.499 320.894 857.5 301.375 857.5H87.6252C68.1058 857.5 53.5112 857.499 42.1776 856.126C30.8556 854.754 22.8549 852.019 16.4912 846.598C14.674 845.05 12.9815 843.362 11.4295 841.549C5.99461 835.202 3.2528 827.223 1.87755 815.93C0.500869 804.626 0.5 790.069 0.5 770.6V87.4Z" stroke="#003399" stroke-opacity="0.12"/>
<path fill-rule="evenodd" clip-rule="evenodd" d="M11.0497 16.1254C0 29.0297 0 48.4865 0 87.4V770.6C0 809.513 0 828.97 11.0497 841.875C12.6188 843.707 14.3298 845.414 16.167 846.979C29.1045 858 48.6114 858 87.6252 858H301.375C340.389 858 359.895 858 372.833 846.979C374.67 845.414 376.381 843.707 377.95 841.875C389 828.97 389 809.513 389 770.6V87.4C389 48.4865 389 29.0297 377.95 16.1254C376.381 14.293 374.67 12.5864 372.833 11.0213C359.895 0 340.389 0 301.375 0H87.6253C48.6114 0 29.1045 0 16.167 11.0213C14.3298 12.5864 12.6188 14.293 11.0497 16.1254ZM10.8249 20.6171C2 31.7824 2 48.1383 2 80.85V777.15C2 809.862 2 826.218 10.8249 837.383C12.826 839.915 15.1195 842.202 17.6578 844.198C28.8522 853 45.2506 853 78.0475 853H310.952C343.749 853 360.148 853 371.342 844.198C373.88 842.202 376.174 839.915 378.175 837.383C387 826.218 387 809.862 387 777.15V80.85C387 48.1383 387 31.7824 378.175 20.6171C376.174 18.0854 373.88 15.7979 371.342 13.802C360.148 5 343.749 5 310.952 5H78.0475C45.2506 5 28.8522 5 17.6578 13.802C15.1195 15.7979 12.826 18.0854 10.8249 20.6171Z" fill="white" fill-opacity="0.2"/>
<rect x="8" y="16" width="372" height="822" rx="36" fill="#003399" fill-opacity="0.12"/>
<rect x="8" y="16" width="372" height="822" rx="36" fill="white"/>
<g opacity="0.3">
<path d="M43.9997 52C43.9997 51.4477 43.552 51 42.9997 51H31.8297L36.7097 46.12C37.1014 45.7283 37.1003 45.0928 36.7072 44.7025C36.316 44.3141 35.6845 44.3152 35.2947 44.705L29.4139 50.5858C28.6329 51.3668 28.6329 52.6331 29.4139 53.4142L35.2944 59.2947C35.6839 59.6842 36.3155 59.6842 36.705 59.2947C37.0943 58.9054 37.0946 58.2743 36.7056 57.8847L31.8297 53H42.9997C43.552 53 43.9997 52.5523 43.9997 52Z" fill="#002BFF"/>
<path d="M70.42 59.2C69.2333 59.2 68.2133 59.02 67.36 58.66C66.5067 58.3 65.86 57.8267 65.42 57.24C64.98 56.6533 64.7467 56.02 64.72 55.34C64.72 55.22 64.76 55.12 64.84 55.04C64.92 54.96 65.02 54.92 65.14 54.92H66.92C67.08 54.92 67.2 54.9533 67.28 55.02C67.3733 55.0733 67.46 55.1667 67.54 55.3C67.6733 55.7533 67.98 56.1333 68.46 56.44C68.94 56.7467 69.5933 56.9 70.42 56.9C71.3667 56.9 72.08 56.7467 72.56 56.44C73.04 56.12 73.28 55.68 73.28 55.12C73.28 54.7467 73.1533 54.44 72.9 54.2C72.66 53.96 72.2933 53.7533 71.8 53.58C71.32 53.4067 70.6 53.1933 69.64 52.94C68.0667 52.5667 66.9133 52.0733 66.18 51.46C65.46 50.8333 65.1 49.9467 65.1 48.8C65.1 48.0267 65.3067 47.34 65.72 46.74C66.1467 46.14 66.7533 45.6667 67.54 45.32C68.34 44.9733 69.2667 44.8 70.32 44.8C71.4133 44.8 72.36 44.9933 73.16 45.38C73.96 45.7667 74.5667 46.2533 74.98 46.84C75.4067 47.4133 75.6333 47.9867 75.66 48.56C75.66 48.68 75.62 48.78 75.54 48.86C75.46 48.94 75.36 48.98 75.24 48.98H73.38C73.1 48.98 72.9067 48.8533 72.8 48.6C72.72 48.1733 72.4533 47.82 72 47.54C71.5467 47.2467 70.9867 47.1 70.32 47.1C69.5733 47.1 68.9867 47.24 68.56 47.52C68.1333 47.8 67.92 48.2067 67.92 48.74C67.92 49.1133 68.0267 49.42 68.24 49.66C68.4533 49.9 68.7867 50.1133 69.24 50.3C69.7067 50.4867 70.3733 50.6933 71.24 50.92C72.4133 51.1867 73.3467 51.4867 74.04 51.82C74.7467 52.1533 75.2667 52.5733 75.6 53.08C75.9333 53.5867 76.1 54.2333 76.1 55.02C76.1 55.8733 75.86 56.62 75.38 57.26C74.9133 57.8867 74.2467 58.3667 73.38 58.7C72.5267 59.0333 71.54 59.2 70.42 59.2ZM82.782 59.2C81.302 59.2 80.122 58.7733 79.242 57.92C78.3754 57.0533 77.9154 55.84 77.862 54.28L77.842 53.78L77.862 53.28C77.9287 51.76 78.3954 50.5667 79.262 49.7C80.142 48.8333 81.3154 48.4 82.782 48.4C84.3554 48.4 85.5687 48.88 86.422 49.84C87.2887 50.8 87.722 52.08 87.722 53.68V54.1C87.722 54.2333 87.6754 54.3467 87.582 54.44C87.4887 54.5333 87.3687 54.58 87.222 54.58H80.582V54.74C80.6087 55.4733 80.8087 56.0933 81.182 56.6C81.5687 57.0933 82.0954 57.34 82.762 57.34C83.5487 57.34 84.182 57.0333 84.662 56.42C84.782 56.2733 84.8754 56.18 84.942 56.14C85.022 56.1 85.1354 56.08 85.282 56.08H87.002C87.122 56.08 87.222 56.12 87.302 56.2C87.3954 56.2667 87.442 56.3533 87.442 56.46C87.442 56.78 87.2487 57.16 86.862 57.6C86.4887 58.0267 85.9487 58.4 85.242 58.72C84.5354 59.04 83.7154 59.2 82.782 59.2ZM85.002 52.9V52.84C85.002 52.0533 84.802 51.42 84.402 50.94C84.0154 50.46 83.4754 50.22 82.782 50.22C82.0887 50.22 81.5487 50.46 81.162 50.94C80.7754 51.42 80.582 52.0533 80.582 52.84V52.9H85.002ZM94.6559 59C93.4426 59 92.5293 58.6867 91.9159 58.06C91.3159 57.42 91.0159 56.4867 91.0159 55.26V50.72H89.4359C89.3026 50.72 89.1893 50.6733 89.0959 50.58C89.0026 50.4733 88.9559 50.3533 88.9559 50.22V49.08C88.9559 48.9467 89.0026 48.8333 89.0959 48.74C89.1893 48.6467 89.3026 48.6 89.4359 48.6H91.0159V45.28C91.0159 45.1333 91.0626 45.02 91.1559 44.94C91.2493 44.8467 91.3626 44.8 91.4959 44.8H93.1159C93.2626 44.8 93.3759 44.8467 93.4559 44.94C93.5493 45.02 93.5959 45.1333 93.5959 45.28V48.6H96.0959C96.2426 48.6 96.3559 48.6467 96.4359 48.74C96.5293 48.82 96.5759 48.9333 96.5759 49.08V50.22C96.5759 50.3667 96.5293 50.4867 96.4359 50.58C96.3426 50.6733 96.2293 50.72 96.0959 50.72H93.5959V55.06C93.5959 55.6333 93.6959 56.0667 93.8959 56.36C94.0959 56.6533 94.4293 56.8 94.8959 56.8H96.2759C96.4093 56.8 96.5226 56.8467 96.6159 56.94C96.7093 57.0333 96.7559 57.1467 96.7559 57.28V58.52C96.7559 58.6533 96.7093 58.7667 96.6159 58.86C96.5359 58.9533 96.4226 59 96.2759 59H94.6559ZM103.38 59C102.167 59 101.253 58.6867 100.64 58.06C100.04 57.42 99.7402 56.4867 99.7402 55.26V50.72H98.1602C98.0268 50.72 97.9135 50.6733 97.8202 50.58C97.7268 50.4733 97.6802 50.3533 97.6802 50.22V49.08C97.6802 48.9467 97.7268 48.8333 97.8202 48.74C97.9135 48.6467 98.0268 48.6 98.1602 48.6H99.7402V45.28C99.7402 45.1333 99.7868 45.02 99.8802 44.94C99.9735 44.8467 100.087 44.8 100.22 44.8H101.84C101.987 44.8 102.1 44.8467 102.18 44.94C102.273 45.02 102.32 45.1333 102.32 45.28V48.6H104.82C104.967 48.6 105.08 48.6467 105.16 48.74C105.253 48.82 105.3 48.9333 105.3 49.08V50.22C105.3 50.3667 105.253 50.4867 105.16 50.58C105.067 50.6733 104.953 50.72 104.82 50.72H102.32V55.06C102.32 55.6333 102.42 56.0667 102.62 56.36C102.82 56.6533 103.153 56.8 103.62 56.8H105C105.133 56.8 105.247 56.8467 105.34 56.94C105.433 57.0333 105.48 57.1467 105.48 57.28V58.52C105.48 58.6533 105.433 58.7667 105.34 58.86C105.26 58.9533 105.147 59 105 59H103.38ZM107.804 46.88C107.671 46.88 107.558 46.8333 107.464 46.74C107.371 46.6467 107.324 46.5333 107.324 46.4V44.96C107.324 44.8267 107.371 44.7133 107.464 44.62C107.558 44.5267 107.671 44.48 107.804 44.48H109.624C109.758 44.48 109.871 44.5267 109.964 44.62C110.071 44.7133 110.124 44.8267 110.124 44.96V46.4C110.124 46.5333 110.078 46.6467 109.984 46.74C109.891 46.8333 109.771 46.88 109.624 46.88H107.804ZM107.884 59C107.751 59 107.638 58.9533 107.544 58.86C107.451 58.7667 107.404 58.6533 107.404 58.52V49.08C107.404 48.9467 107.451 48.8333 107.544 48.74C107.638 48.6467 107.751 48.6 107.884 48.6H109.544C109.691 48.6 109.804 48.6467 109.884 48.74C109.978 48.82 110.024 48.9333 110.024 49.08V58.52C110.024 58.6533 109.978 58.7667 109.884 58.86C109.804 58.9533 109.691 59 109.544 59H107.884ZM113.308 59C113.174 59 113.061 58.9533 112.968 58.86C112.874 58.7667 112.828 58.6533 112.828 58.52V49.08C112.828 48.9467 112.874 48.8333 112.968 48.74C113.061 48.6467 113.174 48.6 113.308 48.6H114.948C115.081 48.6 115.194 48.6467 115.288 48.74C115.381 48.8333 115.428 48.9467 115.428 49.08V49.9C116.214 48.9 117.328 48.4 118.768 48.4C119.994 48.4 120.968 48.8067 121.688 49.62C122.408 50.42 122.768 51.5133 122.768 52.9V58.52C122.768 58.6533 122.721 58.7667 122.628 58.86C122.548 58.9533 122.434 59 122.288 59H120.528C120.394 59 120.281 58.9533 120.188 58.86C120.094 58.7667 120.048 58.6533 120.048 58.52V53.02C120.048 52.2333 119.854 51.6267 119.468 51.2C119.094 50.76 118.548 50.54 117.828 50.54C117.121 50.54 116.561 50.76 116.148 51.2C115.748 51.64 115.548 52.2467 115.548 53.02V58.52C115.548 58.6533 115.501 58.7667 115.408 58.86C115.328 58.9533 115.214 59 115.068 59H113.308ZM130.158 63.4C128.972 63.4 128.012 63.2 127.278 62.8C126.545 62.4133 126.025 61.9667 125.718 61.46C125.412 60.9533 125.258 60.52 125.258 60.16C125.258 60.04 125.305 59.9333 125.398 59.84C125.505 59.7467 125.618 59.7 125.738 59.7H127.478C127.598 59.7 127.698 59.7267 127.778 59.78C127.872 59.8467 127.945 59.96 127.998 60.12C128.132 60.48 128.345 60.78 128.638 61.02C128.945 61.2733 129.418 61.4 130.058 61.4C130.858 61.4 131.445 61.22 131.818 60.86C132.205 60.5 132.398 59.88 132.398 59V57.64C131.665 58.5067 130.638 58.94 129.318 58.94C127.932 58.94 126.885 58.5133 126.178 57.66C125.485 56.8067 125.112 55.66 125.058 54.22L125.038 53.68L125.058 53.14C125.112 51.7267 125.492 50.5867 126.198 49.72C126.905 48.84 127.945 48.4 129.318 48.4C130.025 48.4 130.645 48.5333 131.178 48.8C131.712 49.0667 132.158 49.4333 132.518 49.9V49.1C132.518 48.9533 132.565 48.8333 132.658 48.74C132.752 48.6467 132.865 48.6 132.998 48.6H134.618C134.752 48.6 134.865 48.6533 134.958 48.76C135.052 48.8533 135.098 48.9667 135.098 49.1L135.118 58.74C135.118 60.22 134.705 61.3667 133.878 62.18C133.052 62.9933 131.812 63.4 130.158 63.4ZM130.058 56.82C130.818 56.82 131.385 56.58 131.758 56.1C132.145 55.62 132.358 55.0333 132.398 54.34C132.412 54.2333 132.418 54.0133 132.418 53.68C132.418 53.36 132.412 53.1467 132.398 53.04C132.358 52.3333 132.145 51.74 131.758 51.26C131.385 50.78 130.818 50.54 130.058 50.54C128.618 50.54 127.858 51.4267 127.778 53.2L127.758 53.68C127.758 54.6267 127.925 55.3867 128.258 55.96C128.605 56.5333 129.205 56.82 130.058 56.82ZM141.873 59.2C140.873 59.2 140.033 59.0533 139.353 58.76C138.673 58.4533 138.166 58.1 137.833 57.7C137.513 57.2867 137.353 56.9333 137.353 56.64C137.353 56.5067 137.399 56.4 137.493 56.32C137.586 56.24 137.693 56.2 137.813 56.2H139.393C139.513 56.2 139.613 56.2467 139.693 56.34C139.746 56.38 139.886 56.5 140.113 56.7C140.339 56.9133 140.606 57.08 140.913 57.2C141.219 57.32 141.559 57.38 141.933 57.38C142.466 57.38 142.906 57.2733 143.253 57.06C143.599 56.8467 143.773 56.5533 143.773 56.18C143.773 55.9 143.693 55.6733 143.533 55.5C143.386 55.3267 143.113 55.1733 142.713 55.04C142.313 54.8933 141.719 54.74 140.933 54.58C139.799 54.34 138.959 53.9733 138.413 53.48C137.879 52.9867 137.613 52.3333 137.613 51.52C137.613 50.9867 137.773 50.4867 138.093 50.02C138.413 49.54 138.886 49.1533 139.513 48.86C140.153 48.5533 140.913 48.4 141.793 48.4C142.686 48.4 143.459 48.5467 144.113 48.84C144.766 49.12 145.259 49.46 145.593 49.86C145.939 50.2467 146.113 50.5933 146.113 50.9C146.113 51.02 146.066 51.1267 145.973 51.22C145.893 51.3 145.793 51.34 145.673 51.34H144.193C144.086 51.34 143.973 51.2933 143.853 51.2C143.759 51.1333 143.613 51.0067 143.413 50.82C143.213 50.6333 142.979 50.4867 142.713 50.38C142.446 50.2733 142.133 50.22 141.773 50.22C141.279 50.22 140.893 50.3267 140.613 50.54C140.346 50.7533 140.213 51.0333 140.213 51.38C140.213 51.6333 140.279 51.84 140.413 52C140.546 52.16 140.806 52.3133 141.193 52.46C141.579 52.6067 142.159 52.7533 142.933 52.9C144.213 53.1533 145.126 53.5467 145.673 54.08C146.233 54.6133 146.513 55.2667 146.513 56.04C146.513 56.9733 146.106 57.7333 145.293 58.32C144.479 58.9067 143.339 59.2 141.873 59.2Z" fill="#132A58"/>
<rect x="8" y="87" width="372" height="1" fill="#003399" fill-opacity="0.2"/>
</g>
<path d="M28.096 249C27.9893 249 27.8987 248.963 27.824 248.888C27.7493 248.813 27.712 248.723 27.712 248.616V239.768H24.752C24.6453 239.768 24.5547 239.731 24.48 239.656C24.4053 239.581 24.368 239.491 24.368 239.384V238.2C24.368 238.083 24.4 237.987 24.464 237.912C24.5387 237.837 24.6347 237.8 24.752 237.8H32.912C33.0293 237.8 33.1253 237.837 33.2 237.912C33.2747 237.987 33.312 238.083 33.312 238.2V239.384C33.312 239.491 33.2747 239.581 33.2 239.656C33.1253 239.731 33.0293 239.768 32.912 239.768H29.968V248.616C29.968 248.723 29.9307 248.813 29.856 248.888C29.7813 248.963 29.6853 249 29.568 249H28.096ZM35.1123 249C35.0056 249 34.9149 248.963 34.8403 248.888C34.7656 248.813 34.7283 248.723 34.7283 248.616V238.024C34.7283 237.907 34.7656 237.816 34.8403 237.752C34.9149 237.677 35.0056 237.64 35.1123 237.64H36.5363C36.6536 237.64 36.7443 237.677 36.8083 237.752C36.8829 237.816 36.9203 237.907 36.9203 238.024V241.672C37.5603 240.904 38.4243 240.52 39.5123 240.52C40.4936 240.52 41.2776 240.845 41.8643 241.496C42.4509 242.136 42.7443 243.011 42.7443 244.12V248.616C42.7443 248.723 42.7069 248.813 42.6323 248.888C42.5683 248.963 42.4776 249 42.3603 249H40.9203C40.8136 249 40.7229 248.963 40.6483 248.888C40.5736 248.813 40.5363 248.723 40.5363 248.616V244.216C40.5363 243.587 40.3816 243.101 40.0723 242.76C39.7736 242.408 39.3363 242.232 38.7603 242.232C38.1949 242.232 37.7469 242.408 37.4163 242.76C37.0856 243.112 36.9203 243.597 36.9203 244.216V248.616C36.9203 248.723 36.8829 248.813 36.8083 248.888C36.7443 248.963 36.6536 249 36.5363 249H35.1123ZM48.6088 249.16C47.4248 249.16 46.4808 248.819 45.7768 248.136C45.0834 247.443 44.7154 246.472 44.6728 245.224L44.6568 244.824L44.6728 244.424C44.7261 243.208 45.0994 242.253 45.7928 241.56C46.4968 240.867 47.4354 240.52 48.6088 240.52C49.8674 240.52 50.8381 240.904 51.5208 241.672C52.2141 242.44 52.5608 243.464 52.5608 244.744V245.08C52.5608 245.187 52.5234 245.277 52.4488 245.352C52.3741 245.427 52.2781 245.464 52.1608 245.464H46.8488V245.592C46.8701 246.179 47.0301 246.675 47.3288 247.08C47.6381 247.475 48.0594 247.672 48.5928 247.672C49.2221 247.672 49.7288 247.427 50.1128 246.936C50.2088 246.819 50.2834 246.744 50.3368 246.712C50.4008 246.68 50.4914 246.664 50.6088 246.664H51.9848C52.0808 246.664 52.1608 246.696 52.2248 246.76C52.2994 246.813 52.3368 246.883 52.3368 246.968C52.3368 247.224 52.1821 247.528 51.8728 247.88C51.5741 248.221 51.1421 248.52 50.5768 248.776C50.0114 249.032 49.3554 249.16 48.6088 249.16ZM50.3848 244.12V244.072C50.3848 243.443 50.2248 242.936 49.9048 242.552C49.5954 242.168 49.1634 241.976 48.6088 241.976C48.0541 241.976 47.6221 242.168 47.3128 242.552C47.0034 242.936 46.8488 243.443 46.8488 244.072V244.12H50.3848ZM54.8931 249C54.7865 249 54.6958 248.963 54.6211 248.888C54.5465 248.813 54.5091 248.723 54.5091 248.616V241.064C54.5091 240.957 54.5465 240.867 54.6211 240.792C54.6958 240.717 54.7865 240.68 54.8931 240.68H56.1411C56.2478 240.68 56.3385 240.717 56.4131 240.792C56.4878 240.867 56.5251 240.957 56.5251 241.064V241.608C57.0798 240.883 57.8531 240.52 58.8451 240.52C60.0291 240.52 60.8558 240.995 61.3251 241.944C61.5811 241.517 61.9438 241.176 62.4131 240.92C62.8825 240.653 63.3891 240.52 63.9331 240.52C64.8078 240.52 65.5225 240.819 66.0771 241.416C66.6318 242.013 66.9091 242.883 66.9091 244.024V248.616C66.9091 248.723 66.8718 248.813 66.7971 248.888C66.7331 248.963 66.6425 249 66.5251 249H65.2131C65.1065 249 65.0158 248.963 64.9411 248.888C64.8665 248.813 64.8291 248.723 64.8291 248.616V244.152C64.8291 243.48 64.6851 242.995 64.3971 242.696C64.1198 242.387 63.7465 242.232 63.2771 242.232C62.8611 242.232 62.5038 242.387 62.2051 242.696C61.9171 243.005 61.7731 243.491 61.7731 244.152V248.616C61.7731 248.723 61.7358 248.813 61.6611 248.888C61.5865 248.963 61.4958 249 61.3891 249H60.0771C59.9705 249 59.8798 248.963 59.8051 248.888C59.7305 248.813 59.6931 248.723 59.6931 248.616V244.152C59.6931 243.48 59.5438 242.995 59.2451 242.696C58.9571 242.387 58.5891 242.232 58.1411 242.232C57.7145 242.232 57.3518 242.387 57.0531 242.696C56.7651 243.005 56.6211 243.491 56.6211 244.152V248.616C56.6211 248.723 56.5838 248.813 56.5091 248.888C56.4345 248.963 56.3438 249 56.2371 249H54.8931ZM72.7806 249.16C71.5966 249.16 70.6526 248.819 69.9486 248.136C69.2553 247.443 68.8873 246.472 68.8446 245.224L68.8286 244.824L68.8446 244.424C68.898 243.208 69.2713 242.253 69.9646 241.56C70.6686 240.867 71.6073 240.52 72.7806 240.52C74.0393 240.52 75.01 240.904 75.6926 241.672C76.386 242.44 76.7326 243.464 76.7326 244.744V245.08C76.7326 245.187 76.6953 245.277 76.6206 245.352C76.546 245.427 76.45 245.464 76.3326 245.464H71.0206V245.592C71.042 246.179 71.202 246.675 71.5006 247.08C71.81 247.475 72.2313 247.672 72.7646 247.672C73.394 247.672 73.9006 247.427 74.2846 246.936C74.3806 246.819 74.4553 246.744 74.5086 246.712C74.5726 246.68 74.6633 246.664 74.7806 246.664H76.1566C76.2526 246.664 76.3326 246.696 76.3966 246.76C76.4713 246.813 76.5086 246.883 76.5086 246.968C76.5086 247.224 76.354 247.528 76.0446 247.88C75.746 248.221 75.314 248.52 74.7486 248.776C74.1833 249.032 73.5273 249.16 72.7806 249.16ZM74.5566 244.12V244.072C74.5566 243.443 74.3966 242.936 74.0766 242.552C73.7673 242.168 73.3353 241.976 72.7806 241.976C72.226 241.976 71.794 242.168 71.4846 242.552C71.1753 242.936 71.0206 243.443 71.0206 244.072V244.12H74.5566Z" fill="#132A58"/>
<g opacity="0.3">
<path d="M24.56 121C24.4747 121 24.3947 120.968 24.32 120.904C24.256 120.84 24.224 120.76 24.224 120.664L24.256 120.52L28.112 110.2C28.1867 109.933 28.3733 109.8 28.672 109.8H30.416C30.6933 109.8 30.88 109.933 30.976 110.2L34.832 120.52C34.8427 120.552 34.848 120.6 34.848 120.664C34.848 120.76 34.816 120.84 34.752 120.904C34.688 120.968 34.6133 121 34.528 121H33.136C32.9973 121 32.8907 120.968 32.816 120.904C32.7413 120.84 32.6933 120.771 32.672 120.696L31.92 118.744H27.168L26.416 120.696C26.3307 120.899 26.176 121 25.952 121H24.56ZM31.36 116.904L29.536 111.96L27.728 116.904H31.36ZM39.906 121.16C38.7327 121.16 37.794 120.835 37.09 120.184C36.3967 119.533 36.0287 118.632 35.986 117.48L35.97 116.84L35.986 116.2C36.0287 115.048 36.3967 114.147 37.09 113.496C37.794 112.845 38.7327 112.52 39.906 112.52C40.738 112.52 41.442 112.669 42.018 112.968C42.6047 113.267 43.0367 113.635 43.314 114.072C43.602 114.499 43.7567 114.904 43.778 115.288C43.7887 115.395 43.7513 115.485 43.666 115.56C43.5913 115.635 43.5007 115.672 43.394 115.672H41.986C41.8793 115.672 41.794 115.651 41.73 115.608C41.6767 115.555 41.6233 115.469 41.57 115.352C41.41 114.936 41.1967 114.637 40.93 114.456C40.674 114.275 40.3433 114.184 39.938 114.184C39.394 114.184 38.9673 114.36 38.658 114.712C38.3487 115.053 38.1833 115.576 38.162 116.28L38.146 116.872L38.162 117.4C38.2047 118.797 38.7967 119.496 39.938 119.496C40.354 119.496 40.69 119.405 40.946 119.224C41.202 119.043 41.41 118.744 41.57 118.328C41.6233 118.211 41.6767 118.131 41.73 118.088C41.794 118.035 41.8793 118.008 41.986 118.008H43.394C43.5007 118.008 43.5913 118.045 43.666 118.12C43.7513 118.195 43.7887 118.285 43.778 118.392C43.7567 118.765 43.6073 119.165 43.33 119.592C43.0527 120.019 42.626 120.387 42.05 120.696C41.474 121.005 40.7593 121.16 39.906 121.16ZM49.2966 121.16C48.1233 121.16 47.1846 120.835 46.4806 120.184C45.7873 119.533 45.4193 118.632 45.3766 117.48L45.3606 116.84L45.3766 116.2C45.4193 115.048 45.7873 114.147 46.4806 113.496C47.1846 112.845 48.1233 112.52 49.2966 112.52C50.1286 112.52 50.8326 112.669 51.4086 112.968C51.9953 113.267 52.4273 113.635 52.7046 114.072C52.9926 114.499 53.1473 114.904 53.1686 115.288C53.1793 115.395 53.142 115.485 53.0566 115.56C52.982 115.635 52.8913 115.672 52.7846 115.672H51.3766C51.27 115.672 51.1846 115.651 51.1206 115.608C51.0673 115.555 51.014 115.469 50.9606 115.352C50.8006 114.936 50.5873 114.637 50.3206 114.456C50.0646 114.275 49.734 114.184 49.3286 114.184C48.7846 114.184 48.358 114.36 48.0486 114.712C47.7393 115.053 47.574 115.576 47.5526 116.28L47.5366 116.872L47.5526 117.4C47.5953 118.797 48.1873 119.496 49.3286 119.496C49.7446 119.496 50.0806 119.405 50.3366 119.224C50.5926 119.043 50.8006 118.744 50.9606 118.328C51.014 118.211 51.0673 118.131 51.1206 118.088C51.1846 118.035 51.27 118.008 51.3766 118.008H52.7846C52.8913 118.008 52.982 118.045 53.0566 118.12C53.142 118.195 53.1793 118.285 53.1686 118.392C53.1473 118.765 52.998 119.165 52.7206 119.592C52.4433 120.019 52.0166 120.387 51.4406 120.696C50.8646 121.005 50.15 121.16 49.2966 121.16ZM58.7673 121.16C57.5193 121.16 56.5539 120.84 55.8713 120.2C55.1886 119.549 54.8206 118.664 54.7673 117.544L54.7513 116.84L54.7673 116.136C54.8206 115.027 55.1939 114.147 55.8873 113.496C56.5806 112.845 57.5406 112.52 58.7673 112.52C59.9939 112.52 60.9539 112.845 61.6473 113.496C62.3406 114.147 62.7139 115.027 62.7673 116.136C62.7779 116.264 62.7833 116.499 62.7833 116.84C62.7833 117.181 62.7779 117.416 62.7673 117.544C62.7139 118.664 62.3459 119.549 61.6633 120.2C60.9806 120.84 60.0153 121.16 58.7673 121.16ZM58.7673 119.576C59.3326 119.576 59.7699 119.4 60.0793 119.048C60.3886 118.685 60.5593 118.157 60.5913 117.464C60.6019 117.357 60.6073 117.149 60.6073 116.84C60.6073 116.531 60.6019 116.323 60.5913 116.216C60.5593 115.523 60.3886 115 60.0793 114.648C59.7699 114.285 59.3326 114.104 58.7673 114.104C58.2019 114.104 57.7646 114.285 57.4553 114.648C57.1459 115 56.9753 115.523 56.9433 116.216L56.9273 116.84L56.9433 117.464C56.9753 118.157 57.1459 118.685 57.4553 119.048C57.7646 119.4 58.2019 119.576 58.7673 119.576ZM67.894 121.16C66.9127 121.16 66.1393 120.84 65.574 120.2C65.0087 119.549 64.726 118.669 64.726 117.56V113.064C64.726 112.957 64.7633 112.867 64.838 112.792C64.9127 112.717 65.0033 112.68 65.11 112.68H66.518C66.6353 112.68 66.726 112.717 66.79 112.792C66.8647 112.856 66.902 112.947 66.902 113.064V117.464C66.902 118.787 67.4833 119.448 68.646 119.448C69.2007 119.448 69.638 119.272 69.958 118.92C70.2887 118.568 70.454 118.083 70.454 117.464V113.064C70.454 112.957 70.4913 112.867 70.566 112.792C70.6407 112.717 70.7313 112.68 70.838 112.68H72.246C72.3633 112.68 72.454 112.717 72.518 112.792C72.5927 112.856 72.63 112.947 72.63 113.064V120.616C72.63 120.723 72.5927 120.813 72.518 120.888C72.454 120.963 72.3633 121 72.246 121H70.95C70.8433 121 70.7527 120.963 70.678 120.888C70.6033 120.813 70.566 120.723 70.566 120.616V119.96C69.9687 120.76 69.078 121.16 67.894 121.16ZM75.3775 121C75.2708 121 75.1802 120.963 75.1055 120.888C75.0308 120.813 74.9935 120.723 74.9935 120.616V113.064C74.9935 112.957 75.0308 112.867 75.1055 112.792C75.1802 112.717 75.2708 112.68 75.3775 112.68H76.6895C76.7962 112.68 76.8868 112.717 76.9615 112.792C77.0362 112.867 77.0735 112.957 77.0735 113.064V113.72C77.7028 112.92 78.5935 112.52 79.7455 112.52C80.7268 112.52 81.5055 112.845 82.0815 113.496C82.6575 114.136 82.9455 115.011 82.9455 116.12V120.616C82.9455 120.723 82.9082 120.813 82.8335 120.888C82.7695 120.963 82.6788 121 82.5615 121H81.1535C81.0468 121 80.9562 120.963 80.8815 120.888C80.8068 120.813 80.7695 120.723 80.7695 120.616V116.216C80.7695 115.587 80.6148 115.101 80.3055 114.76C80.0068 114.408 79.5695 114.232 78.9935 114.232C78.4282 114.232 77.9802 114.408 77.6495 114.76C77.3295 115.112 77.1695 115.597 77.1695 116.216V120.616C77.1695 120.723 77.1322 120.813 77.0575 120.888C76.9935 120.963 76.9028 121 76.7855 121H75.3775ZM88.8941 121C87.9235 121 87.1928 120.749 86.7021 120.248C86.2221 119.736 85.9821 118.989 85.9821 118.008V114.376H84.7181C84.6115 114.376 84.5208 114.339 84.4461 114.264C84.3715 114.179 84.3341 114.083 84.3341 113.976V113.064C84.3341 112.957 84.3715 112.867 84.4461 112.792C84.5208 112.717 84.6115 112.68 84.7181 112.68H85.9821V110.024C85.9821 109.907 86.0195 109.816 86.0941 109.752C86.1688 109.677 86.2595 109.64 86.3661 109.64H87.6621C87.7795 109.64 87.8701 109.677 87.9341 109.752C88.0088 109.816 88.0461 109.907 88.0461 110.024V112.68H90.0461C90.1635 112.68 90.2541 112.717 90.3181 112.792C90.3928 112.856 90.4301 112.947 90.4301 113.064V113.976C90.4301 114.093 90.3928 114.189 90.3181 114.264C90.2435 114.339 90.1528 114.376 90.0461 114.376H88.0461V117.848C88.0461 118.307 88.1261 118.653 88.2861 118.888C88.4461 119.123 88.7128 119.24 89.0861 119.24H90.1901C90.2968 119.24 90.3875 119.277 90.4621 119.352C90.5368 119.427 90.5741 119.517 90.5741 119.624V120.616C90.5741 120.723 90.5368 120.813 90.4621 120.888C90.3981 120.963 90.3075 121 90.1901 121H88.8941Z" fill="#132A58"/>
</g>
<g opacity="0.3">
<path d="M8 144H380V216H8V144Z" fill="white"/>
<path d="M81.632 175C81.5253 175 81.4347 174.963 81.36 174.888C81.2853 174.813 81.248 174.723 81.248 174.616V164.2C81.248 164.083 81.28 163.987 81.344 163.912C81.4187 163.837 81.5147 163.8 81.632 163.8H85.776C87.0773 163.8 88.096 164.104 88.832 164.712C89.5787 165.32 89.952 166.184 89.952 167.304C89.952 168.083 89.76 168.739 89.376 169.272C89.0027 169.795 88.48 170.173 87.808 170.408L90.144 174.488C90.176 174.552 90.192 174.611 90.192 174.664C90.192 174.76 90.1547 174.84 90.08 174.904C90.016 174.968 89.9413 175 89.856 175H88.4C88.2293 175 88.096 174.963 88 174.888C87.9147 174.813 87.8347 174.707 87.76 174.568L85.696 170.776H83.472V174.616C83.472 174.723 83.4347 174.813 83.36 174.888C83.296 174.963 83.2053 175 83.088 175H81.632ZM85.728 168.968C86.368 168.968 86.848 168.824 87.168 168.536C87.4987 168.248 87.664 167.832 87.664 167.288C87.664 166.744 87.4987 166.323 87.168 166.024C86.848 165.725 86.368 165.576 85.728 165.576H83.472V168.968H85.728ZM95.6579 175.16C94.4099 175.16 93.4445 174.84 92.7619 174.2C92.0792 173.549 91.7112 172.664 91.6579 171.544L91.6419 170.84L91.6579 170.136C91.7112 169.027 92.0845 168.147 92.7779 167.496C93.4712 166.845 94.4312 166.52 95.6579 166.52C96.8845 166.52 97.8445 166.845 98.5379 167.496C99.2312 168.147 99.6045 169.027 99.6579 170.136C99.6685 170.264 99.6739 170.499 99.6739 170.84C99.6739 171.181 99.6685 171.416 99.6579 171.544C99.6045 172.664 99.2365 173.549 98.5539 174.2C97.8712 174.84 96.9059 175.16 95.6579 175.16ZM95.6579 173.576C96.2232 173.576 96.6605 173.4 96.9699 173.048C97.2792 172.685 97.4499 172.157 97.4819 171.464C97.4925 171.357 97.4979 171.149 97.4979 170.84C97.4979 170.531 97.4925 170.323 97.4819 170.216C97.4499 169.523 97.2792 169 96.9699 168.648C96.6605 168.285 96.2232 168.104 95.6579 168.104C95.0925 168.104 94.6552 168.285 94.3459 168.648C94.0365 169 93.8659 169.523 93.8339 170.216L93.8179 170.84L93.8339 171.464C93.8659 172.157 94.0365 172.685 94.3459 173.048C94.6552 173.4 95.0925 173.576 95.6579 173.576ZM106.305 175.16C105.206 175.16 104.353 174.781 103.745 174.024V174.616C103.745 174.723 103.707 174.813 103.633 174.888C103.569 174.963 103.478 175 103.361 175H102.097C101.99 175 101.899 174.963 101.825 174.888C101.75 174.813 101.713 174.723 101.713 174.616V164.024C101.713 163.907 101.75 163.816 101.825 163.752C101.899 163.677 101.99 163.64 102.097 163.64H103.457C103.574 163.64 103.665 163.677 103.729 163.752C103.803 163.816 103.841 163.907 103.841 164.024V167.576C104.449 166.872 105.27 166.52 106.305 166.52C107.382 166.52 108.209 166.872 108.785 167.576C109.361 168.28 109.67 169.192 109.713 170.312C109.723 170.44 109.729 170.611 109.729 170.824C109.729 171.048 109.723 171.224 109.713 171.352C109.67 172.504 109.361 173.427 108.785 174.12C108.209 174.813 107.382 175.16 106.305 175.16ZM105.713 173.448C106.865 173.448 107.478 172.739 107.553 171.32C107.563 171.213 107.569 171.053 107.569 170.84C107.569 170.627 107.563 170.467 107.553 170.36C107.478 168.941 106.865 168.232 105.713 168.232C105.115 168.232 104.657 168.424 104.337 168.808C104.027 169.181 103.862 169.635 103.841 170.168L103.825 170.776L103.841 171.4C103.873 171.976 104.038 172.461 104.337 172.856C104.635 173.251 105.094 173.448 105.713 173.448ZM115.343 175.16C114.159 175.16 113.215 174.819 112.511 174.136C111.818 173.443 111.45 172.472 111.407 171.224L111.391 170.824L111.407 170.424C111.46 169.208 111.834 168.253 112.527 167.56C113.231 166.867 114.17 166.52 115.343 166.52C116.602 166.52 117.572 166.904 118.255 167.672C118.948 168.44 119.295 169.464 119.295 170.744V171.08C119.295 171.187 119.258 171.277 119.183 171.352C119.108 171.427 119.012 171.464 118.895 171.464H113.583V171.592C113.604 172.179 113.764 172.675 114.063 173.08C114.372 173.475 114.794 173.672 115.327 173.672C115.956 173.672 116.463 173.427 116.847 172.936C116.943 172.819 117.018 172.744 117.071 172.712C117.135 172.68 117.226 172.664 117.343 172.664H118.719C118.815 172.664 118.895 172.696 118.959 172.76C119.034 172.813 119.071 172.883 119.071 172.968C119.071 173.224 118.916 173.528 118.607 173.88C118.308 174.221 117.876 174.52 117.311 174.776C116.746 175.032 116.09 175.16 115.343 175.16ZM117.119 170.12V170.072C117.119 169.443 116.959 168.936 116.639 168.552C116.33 168.168 115.898 167.976 115.343 167.976C114.788 167.976 114.356 168.168 114.047 168.552C113.738 168.936 113.583 169.443 113.583 170.072V170.12H117.119ZM121.628 175C121.521 175 121.43 174.963 121.356 174.888C121.281 174.813 121.243 174.723 121.243 174.616V167.08C121.243 166.973 121.281 166.883 121.356 166.808C121.43 166.723 121.521 166.68 121.628 166.68H122.924C123.041 166.68 123.137 166.717 123.212 166.792C123.286 166.867 123.324 166.963 123.324 167.08V167.736C123.58 167.395 123.9 167.133 124.284 166.952C124.678 166.771 125.126 166.68 125.628 166.68H126.284C126.401 166.68 126.492 166.717 126.556 166.792C126.63 166.856 126.668 166.947 126.668 167.064V168.216C126.668 168.323 126.63 168.413 126.556 168.488C126.492 168.563 126.401 168.6 126.284 168.6H125.036C124.534 168.6 124.14 168.744 123.852 169.032C123.564 169.32 123.42 169.715 123.42 170.216V174.616C123.42 174.723 123.382 174.813 123.308 174.888C123.233 174.963 123.137 175 123.02 175H121.628ZM131.925 175C130.955 175 130.224 174.749 129.733 174.248C129.253 173.736 129.013 172.989 129.013 172.008V168.376H127.749C127.643 168.376 127.552 168.339 127.477 168.264C127.403 168.179 127.365 168.083 127.365 167.976V167.064C127.365 166.957 127.403 166.867 127.477 166.792C127.552 166.717 127.643 166.68 127.749 166.68H129.013V164.024C129.013 163.907 129.051 163.816 129.125 163.752C129.2 163.677 129.291 163.64 129.397 163.64H130.693C130.811 163.64 130.901 163.677 130.965 163.752C131.04 163.816 131.077 163.907 131.077 164.024V166.68H133.077C133.195 166.68 133.285 166.717 133.349 166.792C133.424 166.856 133.461 166.947 133.461 167.064V167.976C133.461 168.093 133.424 168.189 133.349 168.264C133.275 168.339 133.184 168.376 133.077 168.376H131.077V171.848C131.077 172.307 131.157 172.653 131.317 172.888C131.477 173.123 131.744 173.24 132.117 173.24H133.221C133.328 173.24 133.419 173.277 133.493 173.352C133.568 173.427 133.605 173.517 133.605 173.624V174.616C133.605 174.723 133.568 174.813 133.493 174.888C133.429 174.963 133.339 175 133.221 175H131.925ZM143.693 175.16C142.221 175.16 141.08 174.781 140.269 174.024C139.469 173.267 139.042 172.2 138.989 170.824C138.978 170.536 138.973 170.067 138.973 169.416C138.973 168.755 138.978 168.275 138.989 167.976C139.042 166.611 139.474 165.549 140.285 164.792C141.106 164.024 142.242 163.64 143.693 163.64C144.642 163.64 145.469 163.805 146.173 164.136C146.877 164.456 147.421 164.899 147.805 165.464C148.189 166.019 148.392 166.648 148.413 167.352V167.384C148.413 167.469 148.376 167.544 148.301 167.608C148.237 167.661 148.162 167.688 148.077 167.688H146.557C146.429 167.688 146.333 167.661 146.269 167.608C146.205 167.555 146.152 167.453 146.109 167.304C145.938 166.632 145.656 166.163 145.261 165.896C144.866 165.619 144.338 165.48 143.677 165.48C142.141 165.48 141.341 166.339 141.277 168.056C141.266 168.344 141.261 168.787 141.261 169.384C141.261 169.981 141.266 170.435 141.277 170.744C141.341 172.461 142.141 173.32 143.677 173.32C144.338 173.32 144.866 173.181 145.261 172.904C145.666 172.627 145.949 172.157 146.109 171.496C146.141 171.347 146.189 171.245 146.253 171.192C146.328 171.139 146.429 171.112 146.557 171.112H148.077C148.173 171.112 148.253 171.144 148.317 171.208C148.392 171.272 148.424 171.352 148.413 171.448C148.392 172.152 148.189 172.787 147.805 173.352C147.421 173.907 146.877 174.349 146.173 174.68C145.469 175 144.642 175.16 143.693 175.16ZM150.769 175C150.662 175 150.571 174.963 150.497 174.888C150.422 174.813 150.385 174.723 150.385 174.616V164.024C150.385 163.907 150.422 163.816 150.497 163.752C150.571 163.677 150.662 163.64 150.769 163.64H152.097C152.214 163.64 152.305 163.677 152.369 163.752C152.443 163.816 152.481 163.907 152.481 164.024V174.616C152.481 174.723 152.443 174.813 152.369 174.888C152.305 174.963 152.214 175 152.097 175H150.769ZM156.357 178.04C156.272 178.04 156.197 178.008 156.133 177.944C156.069 177.88 156.037 177.805 156.037 177.72C156.037 177.624 156.058 177.539 156.101 177.464L157.349 174.504L154.277 167.256C154.234 167.16 154.213 167.085 154.213 167.032C154.224 166.936 154.261 166.856 154.325 166.792C154.389 166.717 154.469 166.68 154.565 166.68H155.861C156.064 166.68 156.208 166.781 156.293 166.984L158.421 172.216L160.613 166.984C160.698 166.781 160.842 166.68 161.045 166.68H162.325C162.41 166.68 162.485 166.712 162.549 166.776C162.624 166.84 162.661 166.915 162.661 167C162.661 167.075 162.64 167.16 162.597 167.256L158.069 177.736C157.973 177.939 157.824 178.04 157.621 178.04H156.357ZM167.097 175.16C166.02 175.16 165.193 174.813 164.617 174.12C164.041 173.427 163.732 172.504 163.689 171.352L163.673 170.824L163.689 170.312C163.721 169.192 164.025 168.28 164.601 167.576C165.188 166.872 166.02 166.52 167.097 166.52C168.132 166.52 168.953 166.872 169.561 167.576V164.024C169.561 163.907 169.598 163.816 169.673 163.752C169.748 163.677 169.838 163.64 169.945 163.64H171.305C171.422 163.64 171.513 163.677 171.577 163.752C171.652 163.816 171.689 163.907 171.689 164.024V174.616C171.689 174.723 171.652 174.813 171.577 174.888C171.513 174.963 171.422 175 171.305 175H170.041C169.934 175 169.844 174.963 169.769 174.888C169.694 174.813 169.657 174.723 169.657 174.616V174.024C169.049 174.781 168.196 175.16 167.097 175.16ZM167.689 173.448C168.308 173.448 168.766 173.251 169.065 172.856C169.364 172.461 169.529 171.976 169.561 171.4C169.572 171.272 169.577 171.064 169.577 170.776C169.577 170.499 169.572 170.296 169.561 170.168C169.54 169.635 169.369 169.181 169.049 168.808C168.74 168.424 168.286 168.232 167.689 168.232C166.537 168.232 165.924 168.941 165.849 170.36L165.833 170.84L165.849 171.32C165.924 172.739 166.537 173.448 167.689 173.448ZM177.656 175.16C176.472 175.16 175.528 174.819 174.824 174.136C174.13 173.443 173.762 172.472 173.72 171.224L173.704 170.824L173.72 170.424C173.773 169.208 174.146 168.253 174.84 167.56C175.544 166.867 176.482 166.52 177.656 166.52C178.914 166.52 179.885 166.904 180.568 167.672C181.261 168.44 181.608 169.464 181.608 170.744V171.08C181.608 171.187 181.57 171.277 181.496 171.352C181.421 171.427 181.325 171.464 181.208 171.464H175.896V171.592C175.917 172.179 176.077 172.675 176.376 173.08C176.685 173.475 177.106 173.672 177.64 173.672C178.269 173.672 178.776 173.427 179.16 172.936C179.256 172.819 179.33 172.744 179.384 172.712C179.448 172.68 179.538 172.664 179.656 172.664H181.032C181.128 172.664 181.208 172.696 181.272 172.76C181.346 172.813 181.384 172.883 181.384 172.968C181.384 173.224 181.229 173.528 180.92 173.88C180.621 174.221 180.189 174.52 179.624 174.776C179.058 175.032 178.402 175.16 177.656 175.16ZM179.432 170.12V170.072C179.432 169.443 179.272 168.936 178.952 168.552C178.642 168.168 178.21 167.976 177.656 167.976C177.101 167.976 176.669 168.168 176.36 168.552C176.05 168.936 175.896 169.443 175.896 170.072V170.12H179.432Z" fill="#132A58"/>
<path opacity="0.6" d="M83.976 197.14C82.9773 197.14 82.1933 196.86 81.624 196.3C81.064 195.731 80.7653 194.937 80.728 193.92L80.714 193.36L80.728 192.8C80.7653 191.783 81.064 190.994 81.624 190.434C82.1933 189.865 82.9773 189.58 83.976 189.58C84.648 189.58 85.2173 189.701 85.684 189.944C86.1507 190.187 86.496 190.485 86.72 190.84C86.9533 191.195 87.0793 191.549 87.098 191.904C87.1073 191.997 87.0793 192.072 87.014 192.128C86.9487 192.184 86.8693 192.212 86.776 192.212H86.104C86.0107 192.212 85.9407 192.193 85.894 192.156C85.8473 192.119 85.8007 192.044 85.754 191.932C85.5953 191.484 85.3713 191.167 85.082 190.98C84.7927 190.784 84.4287 190.686 83.99 190.686C83.4113 190.686 82.9493 190.868 82.604 191.232C82.268 191.587 82.086 192.133 82.058 192.87L82.044 193.374L82.058 193.85C82.086 194.597 82.268 195.147 82.604 195.502C82.94 195.857 83.402 196.034 83.99 196.034C84.4287 196.034 84.7927 195.941 85.082 195.754C85.3713 195.558 85.5953 195.236 85.754 194.788C85.8007 194.676 85.8473 194.601 85.894 194.564C85.9407 194.517 86.0107 194.494 86.104 194.494H86.776C86.8693 194.494 86.9487 194.527 87.014 194.592C87.0793 194.648 87.1073 194.723 87.098 194.816C87.0793 195.161 86.9533 195.516 86.72 195.88C86.496 196.235 86.1507 196.533 85.684 196.776C85.2267 197.019 84.6573 197.14 83.976 197.14ZM89.3466 197C89.2533 197 89.1739 196.972 89.1086 196.916C89.0526 196.851 89.0246 196.771 89.0246 196.678V187.382C89.0246 187.289 89.0526 187.214 89.1086 187.158C89.1739 187.093 89.2533 187.06 89.3466 187.06H90.0046C90.0979 187.06 90.1726 187.093 90.2286 187.158C90.2939 187.214 90.3266 187.289 90.3266 187.382V196.678C90.3266 196.771 90.2939 196.851 90.2286 196.916C90.1726 196.972 90.0979 197 90.0046 197H89.3466ZM93.9389 199.66C93.8642 199.66 93.7989 199.632 93.7429 199.576C93.6869 199.52 93.6589 199.455 93.6589 199.38C93.6589 199.315 93.6822 199.231 93.7289 199.128L94.8069 196.566L92.1329 190.252C92.0862 190.131 92.0629 190.051 92.0629 190.014C92.0629 189.93 92.0909 189.86 92.1469 189.804C92.2029 189.748 92.2729 189.72 92.3569 189.72H93.0429C93.1922 189.72 93.3042 189.799 93.3789 189.958L95.5069 195.054L97.6909 189.958C97.7656 189.799 97.8822 189.72 98.0409 189.72H98.6989C98.7829 189.72 98.8529 189.748 98.9089 189.804C98.9649 189.86 98.9929 189.925 98.9929 190C98.9929 190.028 98.9696 190.112 98.9229 190.252L94.9469 199.422C94.8722 199.581 94.7556 199.66 94.5969 199.66H93.9389ZM103.053 197.14C102.083 197.14 101.35 196.823 100.855 196.188C100.361 195.553 100.099 194.751 100.071 193.78L100.057 193.36L100.071 192.94C100.099 191.979 100.361 191.181 100.855 190.546C101.35 189.902 102.083 189.58 103.053 189.58C104.015 189.58 104.771 189.921 105.321 190.602V187.382C105.321 187.289 105.349 187.214 105.405 187.158C105.471 187.093 105.55 187.06 105.643 187.06H106.315C106.409 187.06 106.483 187.093 106.539 187.158C106.605 187.214 106.637 187.289 106.637 187.382V196.678C106.637 196.771 106.605 196.851 106.539 196.916C106.483 196.972 106.409 197 106.315 197H105.685C105.592 197 105.513 196.972 105.447 196.916C105.391 196.851 105.363 196.771 105.363 196.678V196.09C104.822 196.79 104.052 197.14 103.053 197.14ZM103.347 196.006C103.991 196.006 104.472 195.796 104.789 195.376C105.116 194.947 105.293 194.438 105.321 193.85C105.331 193.747 105.335 193.57 105.335 193.318C105.335 193.057 105.331 192.875 105.321 192.772C105.303 192.221 105.125 191.741 104.789 191.33C104.453 190.919 103.973 190.714 103.347 190.714C102.685 190.714 102.199 190.919 101.891 191.33C101.593 191.741 101.429 192.282 101.401 192.954L101.387 193.36C101.387 195.124 102.041 196.006 103.347 196.006ZM111.882 197.14C110.92 197.14 110.15 196.846 109.572 196.258C109.002 195.661 108.69 194.849 108.634 193.822L108.62 193.346L108.634 192.884C108.699 191.876 109.016 191.073 109.586 190.476C110.164 189.879 110.925 189.58 111.868 189.58C112.904 189.58 113.706 189.911 114.276 190.574C114.845 191.227 115.13 192.114 115.13 193.234V193.472C115.13 193.565 115.097 193.645 115.032 193.71C114.976 193.766 114.901 193.794 114.808 193.794H109.964V193.92C109.992 194.527 110.174 195.045 110.51 195.474C110.855 195.894 111.308 196.104 111.868 196.104C112.297 196.104 112.647 196.02 112.918 195.852C113.198 195.675 113.403 195.493 113.534 195.306C113.618 195.194 113.678 195.129 113.716 195.11C113.762 195.082 113.842 195.068 113.954 195.068H114.64C114.724 195.068 114.794 195.091 114.85 195.138C114.906 195.185 114.934 195.25 114.934 195.334C114.934 195.539 114.803 195.787 114.542 196.076C114.29 196.365 113.93 196.617 113.464 196.832C113.006 197.037 112.479 197.14 111.882 197.14ZM113.8 192.828V192.786C113.8 192.142 113.622 191.619 113.268 191.218C112.922 190.807 112.456 190.602 111.868 190.602C111.28 190.602 110.813 190.807 110.468 191.218C110.132 191.619 109.964 192.142 109.964 192.786V192.828H113.8ZM117.376 197C117.282 197 117.203 196.972 117.138 196.916C117.082 196.851 117.054 196.771 117.054 196.678V190.056C117.054 189.963 117.082 189.883 117.138 189.818C117.203 189.753 117.282 189.72 117.376 189.72H118.02C118.113 189.72 118.192 189.753 118.258 189.818C118.323 189.883 118.356 189.963 118.356 190.056V190.672C118.738 190.037 119.392 189.72 120.316 189.72H120.862C120.955 189.72 121.03 189.753 121.086 189.818C121.151 189.874 121.184 189.949 121.184 190.042V190.616C121.184 190.709 121.151 190.784 121.086 190.84C121.03 190.896 120.955 190.924 120.862 190.924H120.022C119.518 190.924 119.121 191.073 118.832 191.372C118.542 191.661 118.398 192.058 118.398 192.562V196.678C118.398 196.771 118.365 196.851 118.3 196.916C118.234 196.972 118.155 197 118.062 197H117.376ZM125.467 197.14C124.441 197.14 123.643 196.851 123.073 196.272C122.513 195.693 122.215 194.923 122.177 193.962L122.163 193.36L122.177 192.758C122.215 191.806 122.518 191.041 123.087 190.462C123.657 189.874 124.45 189.58 125.467 189.58C126.485 189.58 127.278 189.874 127.847 190.462C128.417 191.041 128.72 191.806 128.757 192.758C128.767 192.861 128.771 193.061 128.771 193.36C128.771 193.659 128.767 193.859 128.757 193.962C128.72 194.923 128.417 195.693 127.847 196.272C127.287 196.851 126.494 197.14 125.467 197.14ZM125.467 196.062C126.055 196.062 126.517 195.875 126.853 195.502C127.199 195.129 127.385 194.592 127.413 193.892C127.423 193.799 127.427 193.621 127.427 193.36C127.427 193.099 127.423 192.921 127.413 192.828C127.385 192.128 127.199 191.591 126.853 191.218C126.517 190.845 126.055 190.658 125.467 190.658C124.879 190.658 124.413 190.845 124.067 191.218C123.722 191.591 123.54 192.128 123.521 192.828L123.507 193.36L123.521 193.892C123.54 194.592 123.722 195.129 124.067 195.502C124.413 195.875 124.879 196.062 125.467 196.062ZM134.372 197.14C133.364 197.14 132.599 196.79 132.076 196.09V196.678C132.076 196.771 132.044 196.851 131.978 196.916C131.922 196.972 131.848 197 131.754 197H131.11C131.017 197 130.938 196.972 130.872 196.916C130.816 196.851 130.788 196.771 130.788 196.678V187.382C130.788 187.289 130.816 187.214 130.872 187.158C130.938 187.093 131.017 187.06 131.11 187.06H131.796C131.89 187.06 131.964 187.093 132.02 187.158C132.076 187.214 132.104 187.289 132.104 187.382V190.602C132.655 189.921 133.411 189.58 134.372 189.58C135.343 189.58 136.076 189.902 136.57 190.546C137.065 191.181 137.331 191.979 137.368 192.94C137.378 193.043 137.382 193.183 137.382 193.36C137.382 193.537 137.378 193.677 137.368 193.78C137.331 194.751 137.065 195.553 136.57 196.188C136.076 196.823 135.343 197.14 134.372 197.14ZM134.078 196.006C134.741 196.006 135.222 195.801 135.52 195.39C135.828 194.979 135.996 194.438 136.024 193.766C136.034 193.673 136.038 193.537 136.038 193.36C136.038 191.596 135.385 190.714 134.078 190.714C133.453 190.714 132.972 190.919 132.636 191.33C132.3 191.741 132.123 192.221 132.104 192.772L132.09 193.318L132.104 193.85C132.132 194.438 132.305 194.947 132.622 195.376C132.949 195.796 133.434 196.006 134.078 196.006ZM142.262 197.14C141.301 197.14 140.531 196.846 139.952 196.258C139.383 195.661 139.07 194.849 139.014 193.822L139 193.346L139.014 192.884C139.08 191.876 139.397 191.073 139.966 190.476C140.545 189.879 141.306 189.58 142.248 189.58C143.284 189.58 144.087 189.911 144.656 190.574C145.226 191.227 145.51 192.114 145.51 193.234V193.472C145.51 193.565 145.478 193.645 145.412 193.71C145.356 193.766 145.282 193.794 145.188 193.794H140.344V193.92C140.372 194.527 140.554 195.045 140.89 195.474C141.236 195.894 141.688 196.104 142.248 196.104C142.678 196.104 143.028 196.02 143.298 195.852C143.578 195.675 143.784 195.493 143.914 195.306C143.998 195.194 144.059 195.129 144.096 195.11C144.143 195.082 144.222 195.068 144.334 195.068H145.02C145.104 195.068 145.174 195.091 145.23 195.138C145.286 195.185 145.314 195.25 145.314 195.334C145.314 195.539 145.184 195.787 144.922 196.076C144.67 196.365 144.311 196.617 143.844 196.832C143.387 197.037 142.86 197.14 142.262 197.14ZM144.18 192.828V192.786C144.18 192.142 144.003 191.619 143.648 191.218C143.303 190.807 142.836 190.602 142.248 190.602C141.66 190.602 141.194 190.807 140.848 191.218C140.512 191.619 140.344 192.142 140.344 192.786V192.828H144.18ZM147.756 197C147.663 197 147.584 196.972 147.518 196.916C147.462 196.851 147.434 196.771 147.434 196.678V190.056C147.434 189.963 147.462 189.883 147.518 189.818C147.584 189.753 147.663 189.72 147.756 189.72H148.4C148.494 189.72 148.573 189.753 148.638 189.818C148.704 189.883 148.736 189.963 148.736 190.056V190.672C149.119 190.037 149.772 189.72 150.696 189.72H151.242C151.336 189.72 151.41 189.753 151.466 189.818C151.532 189.874 151.564 189.949 151.564 190.042V190.616C151.564 190.709 151.532 190.784 151.466 190.84C151.41 190.896 151.336 190.924 151.242 190.924H150.402C149.898 190.924 149.502 191.073 149.212 191.372C148.923 191.661 148.778 192.058 148.778 192.562V196.678C148.778 196.771 148.746 196.851 148.68 196.916C148.615 196.972 148.536 197 148.442 197H147.756ZM155.845 197C154.37 197 153.633 196.179 153.633 194.536V190.84H152.541C152.447 190.84 152.368 190.812 152.303 190.756C152.247 190.691 152.219 190.611 152.219 190.518V190.042C152.219 189.949 152.247 189.874 152.303 189.818C152.368 189.753 152.447 189.72 152.541 189.72H153.633V187.382C153.633 187.289 153.661 187.214 153.717 187.158C153.782 187.093 153.861 187.06 153.955 187.06H154.613C154.706 187.06 154.781 187.093 154.837 187.158C154.902 187.214 154.935 187.289 154.935 187.382V189.72H156.671C156.764 189.72 156.839 189.753 156.895 189.818C156.96 189.874 156.993 189.949 156.993 190.042V190.518C156.993 190.611 156.96 190.691 156.895 190.756C156.839 190.812 156.764 190.84 156.671 190.84H154.935V194.438C154.935 194.905 155.014 195.259 155.173 195.502C155.331 195.735 155.593 195.852 155.957 195.852H156.811C156.904 195.852 156.979 195.885 157.035 195.95C157.1 196.006 157.133 196.081 157.133 196.174V196.678C157.133 196.771 157.1 196.851 157.035 196.916C156.979 196.972 156.904 197 156.811 197H155.845ZM163.44 198.652C161.965 198.652 160.812 198.279 159.982 197.532C159.151 196.795 158.666 195.745 158.526 194.382C158.498 194.111 158.484 193.71 158.484 193.178C158.484 192.618 158.498 192.221 158.526 191.988C158.666 190.663 159.151 189.617 159.982 188.852C160.822 188.077 161.956 187.69 163.384 187.69C165.036 187.69 166.277 188.063 167.108 188.81C167.938 189.547 168.391 190.607 168.466 191.988C168.484 192.361 168.494 192.651 168.494 192.856C168.494 193.276 168.484 193.598 168.466 193.822C168.428 194.494 168.242 195.007 167.906 195.362C167.579 195.717 167.131 195.894 166.562 195.894C166.16 195.894 165.834 195.81 165.582 195.642C165.33 195.474 165.138 195.292 165.008 195.096C164.849 195.357 164.634 195.581 164.364 195.768C164.102 195.945 163.724 196.034 163.23 196.034C162.53 196.034 161.974 195.787 161.564 195.292C161.162 194.788 160.962 194.083 160.962 193.178C160.962 192.273 161.162 191.568 161.564 191.064C161.974 190.56 162.53 190.308 163.23 190.308C163.575 190.308 163.855 190.373 164.07 190.504C164.294 190.625 164.49 190.784 164.658 190.98V190.742C164.658 190.649 164.686 190.574 164.742 190.518C164.807 190.453 164.886 190.42 164.98 190.42H165.358C165.451 190.42 165.526 190.453 165.582 190.518C165.647 190.574 165.68 190.649 165.68 190.742V193.724C165.68 194.107 165.759 194.401 165.918 194.606C166.076 194.811 166.291 194.914 166.562 194.914C166.888 194.914 167.112 194.793 167.234 194.55C167.364 194.307 167.434 194.032 167.444 193.724C167.462 193.5 167.472 193.211 167.472 192.856C167.472 192.697 167.462 192.431 167.444 192.058C167.36 190.919 167 190.07 166.366 189.51C165.74 188.941 164.746 188.656 163.384 188.656C162.254 188.656 161.363 188.955 160.71 189.552C160.066 190.14 159.678 190.975 159.548 192.058C159.52 192.291 159.506 192.665 159.506 193.178C159.506 193.663 159.52 194.041 159.548 194.312C159.66 195.385 160.047 196.216 160.71 196.804C161.372 197.383 162.282 197.672 163.44 197.672C164.046 197.672 164.546 197.621 164.938 197.518C165.339 197.425 165.628 197.322 165.806 197.21C165.992 197.098 166.207 196.949 166.45 196.762C166.468 196.753 166.51 196.72 166.576 196.664C166.641 196.617 166.72 196.594 166.814 196.594H167.374C167.458 196.594 167.528 196.622 167.584 196.678C167.649 196.734 167.682 196.809 167.682 196.902C167.682 196.977 167.654 197.042 167.598 197.098C167.168 197.565 166.622 197.938 165.96 198.218C165.306 198.507 164.466 198.652 163.44 198.652ZM163.314 195.054C163.79 195.054 164.13 194.895 164.336 194.578C164.55 194.251 164.658 193.785 164.658 193.178C164.658 192.571 164.55 192.105 164.336 191.778C164.13 191.451 163.79 191.288 163.314 191.288C162.856 191.288 162.52 191.456 162.306 191.792C162.091 192.119 161.984 192.581 161.984 193.178C161.984 193.729 162.091 194.181 162.306 194.536C162.53 194.881 162.866 195.054 163.314 195.054ZM173.602 200.08C172.837 200.08 172.221 199.949 171.754 199.688C171.287 199.436 170.956 199.147 170.76 198.82C170.564 198.493 170.457 198.199 170.438 197.938C170.429 197.845 170.457 197.765 170.522 197.7C170.597 197.635 170.676 197.602 170.76 197.602H171.432C171.516 197.602 171.586 197.621 171.642 197.658C171.698 197.705 171.745 197.784 171.782 197.896C171.894 198.195 172.076 198.451 172.328 198.666C172.589 198.89 172.991 199.002 173.532 199.002C174.223 199.002 174.731 198.853 175.058 198.554C175.385 198.265 175.548 197.747 175.548 197V196.048C175.305 196.356 174.997 196.603 174.624 196.79C174.251 196.967 173.807 197.056 173.294 197.056C172.305 197.056 171.563 196.743 171.068 196.118C170.583 195.483 170.326 194.681 170.298 193.71L170.284 193.318L170.298 192.94C170.326 191.979 170.587 191.181 171.082 190.546C171.577 189.902 172.314 189.58 173.294 189.58C174.274 189.58 175.039 189.939 175.59 190.658V190.056C175.59 189.963 175.618 189.883 175.674 189.818C175.739 189.753 175.819 189.72 175.912 189.72H176.556C176.649 189.72 176.729 189.753 176.794 189.818C176.859 189.883 176.892 189.963 176.892 190.056V196.846C176.892 199.002 175.795 200.08 173.602 200.08ZM173.574 195.936C174.209 195.936 174.689 195.726 175.016 195.306C175.343 194.886 175.52 194.387 175.548 193.808C175.557 193.724 175.562 193.561 175.562 193.318C175.562 193.085 175.557 192.926 175.548 192.842C175.52 192.263 175.343 191.764 175.016 191.344C174.699 190.924 174.218 190.714 173.574 190.714C172.911 190.714 172.431 190.919 172.132 191.33C171.833 191.741 171.67 192.282 171.642 192.954L171.628 193.318L171.642 193.696C171.67 194.359 171.833 194.9 172.132 195.32C172.431 195.731 172.911 195.936 173.574 195.936ZM179.546 197C179.452 197 179.373 196.972 179.308 196.916C179.252 196.851 179.224 196.771 179.224 196.678V190.042C179.224 189.949 179.252 189.874 179.308 189.818C179.373 189.753 179.452 189.72 179.546 189.72H180.176C180.269 189.72 180.344 189.753 180.4 189.818C180.465 189.874 180.498 189.949 180.498 190.042V190.532C180.983 189.897 181.66 189.58 182.528 189.58C183.564 189.58 184.296 190.009 184.726 190.868C184.95 190.476 185.267 190.163 185.678 189.93C186.088 189.697 186.55 189.58 187.064 189.58C187.829 189.58 188.454 189.841 188.94 190.364C189.425 190.887 189.668 191.643 189.668 192.632V196.678C189.668 196.771 189.635 196.851 189.57 196.916C189.514 196.972 189.439 197 189.346 197H188.688C188.594 197 188.515 196.972 188.45 196.916C188.394 196.851 188.366 196.771 188.366 196.678V192.758C188.366 192.03 188.212 191.507 187.904 191.19C187.605 190.873 187.208 190.714 186.714 190.714C186.275 190.714 185.897 190.877 185.579 191.204C185.262 191.521 185.104 192.039 185.104 192.758V196.678C185.104 196.771 185.071 196.851 185.006 196.916C184.95 196.972 184.875 197 184.782 197H184.124C184.03 197 183.951 196.972 183.886 196.916C183.83 196.851 183.802 196.771 183.802 196.678V192.758C183.802 192.03 183.643 191.507 183.326 191.19C183.018 190.873 182.626 190.714 182.15 190.714C181.711 190.714 181.333 190.877 181.016 191.204C180.698 191.521 180.54 192.035 180.54 192.744V196.678C180.54 196.771 180.507 196.851 180.442 196.916C180.386 196.972 180.311 197 180.218 197H179.546ZM193.945 197.14C193.488 197.14 193.063 197.047 192.671 196.86C192.279 196.673 191.966 196.421 191.733 196.104C191.509 195.777 191.397 195.418 191.397 195.026C191.397 194.41 191.649 193.906 192.153 193.514C192.666 193.113 193.357 192.851 194.225 192.73L196.311 192.436V192.03C196.311 191.078 195.765 190.602 194.673 190.602C194.262 190.602 193.926 190.691 193.665 190.868C193.404 191.036 193.208 191.237 193.077 191.47C193.049 191.554 193.012 191.615 192.965 191.652C192.928 191.689 192.872 191.708 192.797 191.708H192.195C192.111 191.708 192.036 191.68 191.971 191.624C191.915 191.559 191.887 191.484 191.887 191.4C191.896 191.176 191.999 190.924 192.195 190.644C192.4 190.355 192.713 190.107 193.133 189.902C193.553 189.687 194.071 189.58 194.687 189.58C195.732 189.58 196.484 189.827 196.941 190.322C197.398 190.807 197.627 191.414 197.627 192.142V196.678C197.627 196.771 197.594 196.851 197.529 196.916C197.473 196.972 197.398 197 197.305 197H196.661C196.568 197 196.488 196.972 196.423 196.916C196.367 196.851 196.339 196.771 196.339 196.678V196.076C196.134 196.375 195.835 196.627 195.443 196.832C195.051 197.037 194.552 197.14 193.945 197.14ZM194.239 196.09C194.846 196.09 195.34 195.894 195.723 195.502C196.115 195.101 196.311 194.527 196.311 193.78V193.388L194.687 193.626C194.024 193.719 193.525 193.878 193.189 194.102C192.853 194.317 192.685 194.592 192.685 194.928C192.685 195.301 192.839 195.591 193.147 195.796C193.455 195.992 193.819 196.09 194.239 196.09ZM200.1 188.362C200.006 188.362 199.927 188.334 199.862 188.278C199.806 188.213 199.778 188.133 199.778 188.04V187.284C199.778 187.191 199.806 187.111 199.862 187.046C199.927 186.981 200.006 186.948 200.1 186.948H200.982C201.075 186.948 201.154 186.981 201.22 187.046C201.285 187.111 201.318 187.191 201.318 187.284V188.04C201.318 188.133 201.285 188.213 201.22 188.278C201.154 188.334 201.075 188.362 200.982 188.362H200.1ZM200.212 197C200.118 197 200.039 196.972 199.974 196.916C199.918 196.851 199.89 196.771 199.89 196.678V190.042C199.89 189.949 199.918 189.874 199.974 189.818C200.039 189.753 200.118 189.72 200.212 189.72H200.884C200.977 189.72 201.052 189.753 201.108 189.818C201.173 189.874 201.206 189.949 201.206 190.042V196.678C201.206 196.771 201.173 196.851 201.108 196.916C201.052 196.972 200.977 197 200.884 197H200.212ZM203.866 197C203.773 197 203.693 196.972 203.628 196.916C203.572 196.851 203.544 196.771 203.544 196.678V187.382C203.544 187.289 203.572 187.214 203.628 187.158C203.693 187.093 203.773 187.06 203.866 187.06H204.524C204.617 187.06 204.692 187.093 204.748 187.158C204.813 187.214 204.846 187.289 204.846 187.382V196.678C204.846 196.771 204.813 196.851 204.748 196.916C204.692 196.972 204.617 197 204.524 197H203.866ZM207.408 197C207.315 197 207.236 196.972 207.17 196.916C207.114 196.851 207.086 196.771 207.086 196.678V195.67C207.086 195.577 207.114 195.502 207.17 195.446C207.236 195.381 207.315 195.348 207.408 195.348H208.416C208.51 195.348 208.589 195.381 208.654 195.446C208.72 195.502 208.752 195.577 208.752 195.67V196.678C208.752 196.771 208.72 196.851 208.654 196.916C208.589 196.972 208.51 197 208.416 197H207.408ZM213.765 197.14C212.766 197.14 211.982 196.86 211.413 196.3C210.853 195.731 210.554 194.937 210.517 193.92L210.503 193.36L210.517 192.8C210.554 191.783 210.853 190.994 211.413 190.434C211.982 189.865 212.766 189.58 213.765 189.58C214.437 189.58 215.006 189.701 215.473 189.944C215.94 190.187 216.285 190.485 216.509 190.84C216.742 191.195 216.868 191.549 216.887 191.904C216.896 191.997 216.868 192.072 216.803 192.128C216.738 192.184 216.658 192.212 216.565 192.212H215.893C215.8 192.212 215.73 192.193 215.683 192.156C215.636 192.119 215.59 192.044 215.543 191.932C215.384 191.484 215.16 191.167 214.871 190.98C214.582 190.784 214.218 190.686 213.779 190.686C213.2 190.686 212.738 190.868 212.393 191.232C212.057 191.587 211.875 192.133 211.847 192.87L211.833 193.374L211.847 193.85C211.875 194.597 212.057 195.147 212.393 195.502C212.729 195.857 213.191 196.034 213.779 196.034C214.218 196.034 214.582 195.941 214.871 195.754C215.16 195.558 215.384 195.236 215.543 194.788C215.59 194.676 215.636 194.601 215.683 194.564C215.73 194.517 215.8 194.494 215.893 194.494H216.565C216.658 194.494 216.738 194.527 216.803 194.592C216.868 194.648 216.896 194.723 216.887 194.816C216.868 195.161 216.742 195.516 216.509 195.88C216.285 196.235 215.94 196.533 215.473 196.776C215.016 197.019 214.446 197.14 213.765 197.14ZM221.782 197.14C220.755 197.14 219.957 196.851 219.388 196.272C218.828 195.693 218.529 194.923 218.492 193.962L218.478 193.36L218.492 192.758C218.529 191.806 218.832 191.041 219.402 190.462C219.971 189.874 220.764 189.58 221.782 189.58C222.799 189.58 223.592 189.874 224.162 190.462C224.731 191.041 225.034 191.806 225.072 192.758C225.081 192.861 225.086 193.061 225.086 193.36C225.086 193.659 225.081 193.859 225.072 193.962C225.034 194.923 224.731 195.693 224.162 196.272C223.602 196.851 222.808 197.14 221.782 197.14ZM221.782 196.062C222.37 196.062 222.832 195.875 223.168 195.502C223.513 195.129 223.7 194.592 223.728 193.892C223.737 193.799 223.742 193.621 223.742 193.36C223.742 193.099 223.737 192.921 223.728 192.828C223.7 192.128 223.513 191.591 223.168 191.218C222.832 190.845 222.37 190.658 221.782 190.658C221.194 190.658 220.727 190.845 220.382 191.218C220.036 191.591 219.854 192.128 219.836 192.828L219.822 193.36L219.836 193.892C219.854 194.592 220.036 195.129 220.382 195.502C220.727 195.875 221.194 196.062 221.782 196.062ZM227.411 197C227.317 197 227.238 196.972 227.173 196.916C227.117 196.851 227.089 196.771 227.089 196.678V190.042C227.089 189.949 227.117 189.874 227.173 189.818C227.238 189.753 227.317 189.72 227.411 189.72H228.041C228.134 189.72 228.209 189.753 228.265 189.818C228.33 189.874 228.363 189.949 228.363 190.042V190.532C228.848 189.897 229.525 189.58 230.393 189.58C231.429 189.58 232.161 190.009 232.591 190.868C232.815 190.476 233.132 190.163 233.543 189.93C233.953 189.697 234.415 189.58 234.929 189.58C235.694 189.58 236.319 189.841 236.805 190.364C237.29 190.887 237.533 191.643 237.533 192.632V196.678C237.533 196.771 237.5 196.851 237.435 196.916C237.379 196.972 237.304 197 237.211 197H236.553C236.459 197 236.38 196.972 236.315 196.916C236.259 196.851 236.231 196.771 236.231 196.678V192.758C236.231 192.03 236.077 191.507 235.769 191.19C235.47 190.873 235.073 190.714 234.579 190.714C234.14 190.714 233.762 190.877 233.445 191.204C233.127 191.521 232.969 192.039 232.969 192.758V196.678C232.969 196.771 232.936 196.851 232.871 196.916C232.815 196.972 232.74 197 232.647 197H231.989C231.895 197 231.816 196.972 231.751 196.916C231.695 196.851 231.667 196.771 231.667 196.678V192.758C231.667 192.03 231.508 191.507 231.191 191.19C230.883 190.873 230.491 190.714 230.015 190.714C229.576 190.714 229.198 190.877 228.881 191.204C228.563 191.521 228.405 192.035 228.405 192.744V196.678C228.405 196.771 228.372 196.851 228.307 196.916C228.251 196.972 228.176 197 228.083 197H227.411Z" fill="#132A58"/>
<path d="M349 174.711C348.61 175.101 348.61 175.731 349 176.121L352.88 180.001L349 183.881C348.61 184.271 348.61 184.901 349 185.291C349.39 185.681 350.02 185.681 350.41 185.291L355 180.701C355.39 180.311 355.39 179.681 355 179.291L350.41 174.701C350.03 174.321 349.39 174.321 349 174.711Z" fill="#002BFF"/>
<rect x="32" y="160" width="8" height="8" fill="#002BFF"/>
<rect x="32" y="192" width="8" height="8" fill="#002BFF"/>
<rect x="24" y="160" width="8" height="8" fill="#002BFF"/>
<rect x="24" y="192" width="8" height="8" fill="#002BFF"/>
<rect x="24" y="168" width="8" height="8" fill="#002BFF"/>
<rect x="24" y="184" width="8" height="8" fill="#002BFF"/>
<rect x="32" y="176" width="8" height="8" fill="#002BFF"/>
<rect x="48" y="160" width="8" height="8" fill="#002BFF"/>
<rect x="48" y="192" width="8" height="8" fill="#002BFF"/>
<rect x="56" y="160" width="8" height="8" fill="#002BFF"/>
<rect x="56" y="192" width="8" height="8" fill="#002BFF"/>
<rect x="56" y="168" width="8" height="8" fill="#002BFF"/>
<rect x="56" y="184" width="8" height="8" fill="#002BFF"/>
<rect x="48" y="176" width="8" height="8" fill="#002BFF"/>
<rect x="40" y="160" width="8" height="8" fill="white"/>
<rect x="40" y="168" width="8" height="8" fill="white"/>
<rect x="40" y="184" width="8" height="8" fill="white"/>
<rect x="40" y="176" width="8" height="8" fill="white"/>
<rect x="40" y="192" width="8" height="8" fill="white"/>
<rect x="48" y="168" width="8" height="8" fill="white"/>
<rect x="48" y="184" width="8" height="8" fill="white"/>
<rect x="56" y="176" width="8" height="8" fill="white"/>
<rect x="32" y="168" width="8" height="8" fill="white"/>
<rect x="32" y="184" width="8" height="8" fill="white"/>
<rect x="24" y="176" width="8" height="8" fill="white"/>
<path d="M44 199C33.5066 199 25 190.493 25 180H23C23 191.598 32.402 201 44 201V199ZM63 180C63 190.493 54.4934 199 44 199V201C55.598 201 65 191.598 65 180H63ZM44 161C54.4934 161 63 169.507 63 180H65C65 168.402 55.598 159 44 159V161ZM44 159C32.402 159 23 168.402 23 180H25C25 169.507 33.5066 161 44 161V159Z" fill="#003399" fill-opacity="0.2"/>
<path d="M48 192C48 187.582 51.5817 184 56 184V184C60.4183 184 64 187.582 64 192V192C64 196.418 60.4183 200 56 200V200C51.5817 200 48 196.418 48 192V192Z" fill="white"/>
<path d="M62.9114 187.98C62.1968 186.756 61.2274 185.786 60.0031 185.072C58.7785 184.357 57.4417 184 55.9917 184C54.5418 184 53.2045 184.357 51.9802 185.072C50.7558 185.786 49.7865 186.756 49.0718 187.98C48.3573 189.205 48 190.542 48 191.991C48 193.733 48.5081 195.299 49.5244 196.69C50.5407 198.081 51.8536 199.043 53.463 199.577C53.6503 199.612 53.789 199.587 53.8791 199.504C53.9693 199.421 54.0144 199.317 54.0144 199.192C54.0144 199.172 54.0126 198.984 54.0091 198.63C54.0056 198.277 54.0039 197.968 54.0039 197.704L53.7646 197.746C53.612 197.774 53.4194 197.786 53.187 197.782C52.9547 197.779 52.7135 197.755 52.4639 197.709C52.2141 197.665 51.9817 197.561 51.7666 197.398C51.5517 197.235 51.3991 197.021 51.3089 196.758L51.2048 196.518C51.1355 196.359 51.0263 196.182 50.8771 195.988C50.7279 195.793 50.5771 195.662 50.4245 195.592L50.3516 195.54C50.3031 195.505 50.258 195.464 50.2163 195.415C50.1747 195.367 50.1436 195.318 50.1228 195.269C50.1019 195.221 50.1192 195.181 50.1748 195.15C50.2303 195.118 50.3308 195.103 50.4765 195.103L50.6846 195.134C50.8233 195.162 50.995 195.245 51.1997 195.384C51.4043 195.523 51.5725 195.703 51.7043 195.925C51.8639 196.209 52.0563 196.426 52.2818 196.575C52.5072 196.724 52.7345 196.799 52.9634 196.799C53.1922 196.799 53.3899 196.782 53.5565 196.747C53.7229 196.712 53.879 196.66 54.0247 196.591C54.0871 196.126 54.2571 195.769 54.5345 195.519C54.1392 195.477 53.7837 195.415 53.468 195.332C53.1524 195.248 52.8263 195.113 52.4899 194.926C52.1533 194.738 51.8741 194.506 51.6522 194.229C51.4302 193.951 51.2481 193.587 51.106 193.136C50.9638 192.685 50.8927 192.165 50.8927 191.575C50.8927 190.735 51.1668 190.021 51.7148 189.431C51.4581 188.8 51.4823 188.093 51.7876 187.309C51.9888 187.246 52.2871 187.293 52.6825 187.449C53.0779 187.605 53.3675 187.739 53.5514 187.85C53.7353 187.961 53.8826 188.055 53.9937 188.131C54.6389 187.95 55.3049 187.86 55.9916 187.86C56.6783 187.86 57.3444 187.95 57.9897 188.131L58.3851 187.881C58.6555 187.715 58.9748 187.562 59.3423 187.423C59.7099 187.285 59.9911 187.246 60.1854 187.309C60.4975 188.093 60.5253 188.8 60.2685 189.431C60.8165 190.021 61.0907 190.736 61.0907 191.575C61.0907 192.165 61.0193 192.687 60.8773 193.141C60.7352 193.596 60.5515 193.96 60.3261 194.234C60.1004 194.508 59.8194 194.739 59.483 194.926C59.1466 195.113 58.8204 195.248 58.5048 195.332C58.1891 195.415 57.8337 195.478 57.4383 195.519C57.7989 195.831 57.9792 196.324 57.9792 196.997V199.192C57.9792 199.317 58.0226 199.421 58.1094 199.504C58.1961 199.587 58.333 199.612 58.5204 199.577C60.13 199.043 61.4428 198.08 62.4591 196.689C63.4752 195.298 63.9835 193.733 63.9835 191.991C63.9831 190.542 63.6256 189.205 62.9114 187.98Z" fill="#132A58"/>
<path d="M56 199C52.134 199 49 195.866 49 192H47C47 196.971 51.0294 201 56 201V199ZM63 192C63 195.866 59.866 199 56 199V201C60.9706 201 65 196.971 65 192H63ZM56 185C59.866 185 63 188.134 63 192H65C65 187.029 60.9706 183 56 183V185ZM56 183C51.0294 183 47 187.029 47 192H49C49 188.134 52.134 185 56 185V183Z" fill="white"/>
</g>
<rect x="8.5" y="16.5" width="371" height="821" rx="35.5" stroke="#003399" stroke-opacity="0.12"/>
</svg>
