<svg fill="none" xmlns="http://www.w3.org/2000/svg" viewBox="0 0 392 858">
  <path d="M389 156h1c1.105 0 2 .927 2 2.071v102.858c0 1.144-.895 2.071-2 2.071h-1V156zM389 321h1c1.105 0 2 .927 2 2.071v51.858c0 1.144-.895 2.071-2 2.071h-1v-56z" fill="var(--primary)"/>
  <path d="M0 87.4c0-38.9135 0-58.3703 11.0497-71.2746 1.5691-1.8324 3.2801-3.539 5.1173-5.1041C29.1045 0 48.6114 0 87.6253 0H301.375c39.014 0 58.52 0 71.458 11.0213 1.837 1.5651 3.548 3.2717 5.117 5.1041C389 29.0297 389 48.4865 389 87.4v683.2c0 38.913 0 58.37-11.05 71.275-1.569 1.832-3.28 3.539-5.117 5.104C359.895 858 340.389 858 301.375 858H87.6252c-39.0138 0-58.5207 0-71.4582-11.021-1.8372-1.565-3.5482-3.272-5.1173-5.104C0 828.97 0 809.513 0 770.6V87.4z" fill="var(--tinted_surface)"/>
  <path d="M.5 87.4c0-19.4694.000869-34.0261 1.37755-45.3303 1.37525-11.2924 4.11706-19.272 9.55195-25.6191 1.552-1.8125 3.2445-3.5006 5.0617-5.0487 6.3637-5.42114 14.3644-8.15609 25.6865-9.52786C53.5112.50086 68.1058.5 87.6253.5H301.375c19.519 0 34.114.00086 45.447 1.37404 11.322 1.37177 19.323 4.10672 25.687 9.52786 1.817 1.5481 3.509 3.2362 5.061 5.0487 5.435 6.3471 8.177 14.3267 9.552 25.6191C388.499 53.3739 388.5 67.9306 388.5 87.4v683.2c0 19.469-.001 34.026-1.378 45.33-1.375 11.293-4.117 19.272-9.552 25.619-1.552 1.813-3.244 3.501-5.061 5.049-6.364 5.421-14.365 8.156-25.687 9.528-11.333 1.373-25.928 1.374-45.447 1.374H87.6252c-19.5194 0-34.114-.001-45.4476-1.374-11.322-1.372-19.3227-4.107-25.6864-9.528-1.8172-1.548-3.5097-3.236-5.0617-5.049-5.43489-6.347-8.1767-14.326-9.55195-25.619C.500869 804.626.5 790.069.5 770.6V87.4z" stroke="var(--divider_no_alpha)" stroke-opacity=".12"/>
  <path fill-rule="evenodd" clip-rule="evenodd" d="M11.0497 16.1254C0 29.0297 0 48.4865 0 87.4v683.2c0 38.913 0 58.37 11.0497 71.275 1.5691 1.832 3.2801 3.539 5.1173 5.104C29.1045 858 48.6114 858 87.6252 858H301.375c39.014 0 58.52 0 71.458-11.021 1.837-1.565 3.548-3.272 5.117-5.104C389 828.97 389 809.513 389 770.6V87.4c0-38.9135 0-58.3703-11.05-71.2746-1.569-1.8324-3.28-3.539-5.117-5.1041C359.895 0 340.389 0 301.375 0H87.6253C48.6114 0 29.1045 0 16.167 11.0213c-1.8372 1.5651-3.5482 3.2717-5.1173 5.1041zm-.2248 4.4917C2 31.7824 2 48.1383 2 80.85v696.3c0 32.712 0 49.068 8.8249 60.233 2.0011 2.532 4.2946 4.819 6.8329 6.815C28.8522 853 45.2506 853 78.0475 853H310.952c32.797 0 49.196 0 60.39-8.802 2.538-1.996 4.832-4.283 6.833-6.815C387 826.218 387 809.862 387 777.15V80.85c0-32.7117 0-49.0676-8.825-60.2329-2.001-2.5317-4.295-4.8192-6.833-6.8151C360.148 5 343.749 5 310.952 5H78.0475c-32.7969 0-49.1953 0-60.3897 8.802-2.5383 1.9959-4.8318 4.2834-6.8329 6.8151z" fill="white" fill-opacity=".2"/>
  <rect x="8" y="16" width="372" height="822" rx="36" fill="var(--divider_no_alpha)" fill-opacity=".12"/>
  <rect x="8" y="16" width="372" height="822" rx="36" fill="var(--surface)"/>
  <g opacity=".3">
    <path d="M43.9997 52c0-.5523-.4477-1-1-1h-11.17l4.88-4.88c.3917-.3917.3906-1.0272-.0025-1.4175-.3912-.3884-1.0227-.3873-1.4125.0025l-5.8808 5.8808c-.781.781-.781 2.0473 0 2.8284l5.8805 5.8805c.3895.3895 1.0211.3895 1.4106 0 .3893-.3893.3896-1.0204.0006-1.41L31.8297 53h11.17c.5523 0 1-.4477 1-1z" fill="var(--primary)"/>
    <path d="M70.42 59.2c-1.1867 0-2.2067-.18-3.06-.54-.8533-.36-1.5-.8333-1.94-1.42-.44-.5867-.6733-1.22-.7-1.9 0-.12.04-.22.12-.3.08-.08.18-.12.3-.12h1.78c.16 0 .28.0333.36.1.0933.0533.18.1467.26.28.1333.4533.44.8333.92 1.14.48.3067 1.1333.46 1.96.46.9467 0 1.66-.1533 2.14-.46.48-.32.72-.76.72-1.32 0-.3733-.1267-.68-.38-.92-.24-.24-.6067-.4467-1.1-.62-.48-.1733-1.2-.3867-2.16-.64-1.5733-.3733-2.7267-.8667-3.46-1.48-.72-.6267-1.08-1.5133-1.08-2.66 0-.7733.2067-1.46.62-2.06.4267-.6 1.0333-1.0733 1.82-1.42.8-.3467 1.7267-.52 2.78-.52 1.0933 0 2.04.1933 2.84.58.8.3867 1.4067.8733 1.82 1.46.4267.5733.6533 1.1467.68 1.72 0 .12-.04.22-.12.3-.08.08-.18.12-.3.12h-1.86c-.28 0-.4733-.1267-.58-.38-.08-.4267-.3467-.78-.8-1.06-.4533-.2933-1.0133-.44-1.68-.44-.7467 0-1.3333.14-1.76.42-.4267.28-.64.6867-.64 1.22 0 .3733.1067.68.32.92s.5467.4533 1 .64c.4667.1867 1.1333.3933 2 .62 1.1733.2667 2.1067.5667 2.8.9.7067.3333 1.2267.7533 1.56 1.26.3333.5067.5 1.1533.5 1.94 0 .8533-.24 1.6-.72 2.24-.4667.6267-1.1333 1.1067-2 1.44-.8533.3333-1.84.5-2.96.5zm12.362 0c-1.48 0-2.66-.4267-3.54-1.28-.8666-.8667-1.3266-2.08-1.38-3.64l-.02-.5.02-.5c.0667-1.52.5334-2.7133 1.4-3.58.88-.8667 2.0534-1.3 3.52-1.3 1.5734 0 2.7867.48 3.64 1.44.8667.96 1.3 2.24 1.3 3.84v.42c0 .1333-.0466.2467-.14.34-.0933.0933-.2133.14-.36.14h-6.64v.16c.0267.7333.2267 1.3533.6 1.86.3867.4933.9134.74 1.58.74.7867 0 1.42-.3067 1.9-.92.12-.1467.2134-.24.28-.28.08-.04.1934-.06.34-.06h1.72c.12 0 .22.04.3.12.0934.0667.14.1533.14.26 0 .32-.1933.7-.58 1.14-.3733.4267-.9133.8-1.62 1.12-.7066.32-1.5266.48-2.46.48zm2.22-6.3v-.06c0-.7867-.2-1.42-.6-1.9-.3866-.48-.9266-.72-1.62-.72-.6933 0-1.2333.24-1.62.72-.3866.48-.58 1.1133-.58 1.9v.06h4.42zm9.6539 6.1c-1.2133 0-2.1266-.3133-2.74-.94-.6-.64-.9-1.5733-.9-2.8v-4.54h-1.58c-.1333 0-.2466-.0467-.34-.14-.0933-.1067-.14-.2267-.14-.36v-1.14c0-.1333.0467-.2467.14-.34.0934-.0933.2067-.14.34-.14h1.58v-3.32c0-.1467.0467-.26.14-.34.0934-.0933.2067-.14.34-.14h1.62c.1467 0 .26.0467.34.14.0934.08.14.1933.14.34v3.32h2.5c.1467 0 .26.0467.34.14.0934.08.14.1933.14.34v1.14c0 .1467-.0466.2667-.14.36-.0933.0933-.2066.14-.34.14h-2.5v4.34c0 .5733.1 1.0067.3 1.3.2.2933.5334.44 1 .44h1.38c.1334 0 .2467.0467.34.14.0934.0933.14.2067.14.34v1.24c0 .1333-.0466.2467-.14.34-.08.0933-.1933.14-.34.14h-1.62zm8.7241 0c-1.213 0-2.127-.3133-2.74-.94-.6-.64-.8998-1.5733-.8998-2.8v-4.54h-1.58c-.1334 0-.2467-.0467-.34-.14-.0934-.1067-.14-.2267-.14-.36v-1.14c0-.1333.0466-.2467.14-.34.0933-.0933.2066-.14.34-.14h1.58v-3.32c0-.1467.0466-.26.14-.34.0933-.0933.2068-.14.3398-.14h1.62c.147 0 .26.0467.34.14.093.08.14.1933.14.34v3.32h2.5c.147 0 .26.0467.34.14.093.08.14.1933.14.34v1.14c0 .1467-.047.2667-.14.36-.093.0933-.207.14-.34.14h-2.5v4.34c0 .5733.1 1.0067.3 1.3.2.2933.533.44 1 .44H105c.133 0 .247.0467.34.14.093.0933.14.2067.14.34v1.24c0 .1333-.047.2467-.14.34-.08.0933-.193.14-.34.14h-1.62zm4.424-12.12c-.133 0-.246-.0467-.34-.14-.093-.0933-.14-.2067-.14-.34v-1.44c0-.1333.047-.2467.14-.34.094-.0933.207-.14.34-.14h1.82c.134 0 .247.0467.34.14.107.0933.16.2067.16.34v1.44c0 .1333-.046.2467-.14.34-.093.0933-.213.14-.36.14h-1.82zm.08 12.12c-.133 0-.246-.0467-.34-.14-.093-.0933-.14-.2067-.14-.34v-9.44c0-.1333.047-.2467.14-.34.094-.0933.207-.14.34-.14h1.66c.147 0 .26.0467.34.14.094.08.14.1933.14.34v9.44c0 .1333-.046.2467-.14.34-.08.0933-.193.14-.34.14h-1.66zm5.424 0c-.134 0-.247-.0467-.34-.14-.094-.0933-.14-.2067-.14-.34v-9.44c0-.1333.046-.2467.14-.34.093-.0933.206-.14.34-.14h1.64c.133 0 .246.0467.34.14.093.0933.14.2067.14.34v.82c.786-1 1.9-1.5 3.34-1.5 1.226 0 2.2.4067 2.92 1.22.72.8 1.08 1.8933 1.08 3.28v5.62c0 .1333-.047.2467-.14.34-.08.0933-.194.14-.34.14h-1.76c-.134 0-.247-.0467-.34-.14-.094-.0933-.14-.2067-.14-.34v-5.5c0-.7867-.194-1.3933-.58-1.82-.374-.44-.92-.66-1.64-.66-.707 0-1.267.22-1.68.66-.4.44-.6 1.0467-.6 1.82v5.5c0 .1333-.047.2467-.14.34-.08.0933-.194.14-.34.14h-1.76zm16.85 4.4c-1.186 0-2.146-.2-2.88-.6-.733-.3867-1.253-.8333-1.56-1.34-.306-.5067-.46-.94-.46-1.3 0-.12.047-.2267.14-.32.107-.0933.22-.14.34-.14h1.74c.12 0 .22.0267.3.08.094.0667.167.18.22.34.134.36.347.66.64.9.307.2533.78.38 1.42.38.8 0 1.387-.18 1.76-.54.387-.36.58-.98.58-1.86v-1.36c-.733.8667-1.76 1.3-3.08 1.3-1.386 0-2.433-.4267-3.14-1.28-.693-.8533-1.066-2-1.12-3.44l-.02-.54.02-.54c.054-1.4133.434-2.5533 1.14-3.42.707-.88 1.747-1.32 3.12-1.32.707 0 1.327.1333 1.86.4.534.2667.98.6333 1.34 1.1v-.8c0-.1467.047-.2667.14-.36.094-.0933.207-.14.34-.14h1.62c.134 0 .247.0533.34.16.094.0933.14.2067.14.34l.02 9.64c0 1.48-.413 2.6267-1.24 3.44-.826.8133-2.066 1.22-3.72 1.22zm-.1-6.58c.76 0 1.327-.24 1.7-.72.387-.48.6-1.0667.64-1.76.014-.1067.02-.3267.02-.66 0-.32-.006-.5333-.02-.64-.04-.7067-.253-1.3-.64-1.78-.373-.48-.94-.72-1.7-.72-1.44 0-2.2.8867-2.28 2.66l-.02.48c0 .9467.167 1.7067.5 2.28.347.5733.947.86 1.8.86zm11.815 2.38c-1 0-1.84-.1467-2.52-.44-.68-.3067-1.187-.66-1.52-1.06-.32-.4133-.48-.7667-.48-1.06 0-.1333.046-.24.14-.32.093-.08.2-.12.32-.12h1.58c.12 0 .22.0467.3.14.053.04.193.16.42.36.226.2133.493.38.8.5.306.12.646.18 1.02.18.533 0 .973-.1067 1.32-.32.346-.2133.52-.5067.52-.88 0-.28-.08-.5067-.24-.68-.147-.1733-.42-.3267-.82-.46-.4-.1467-.994-.3-1.78-.46-1.134-.24-1.974-.6067-2.52-1.1-.534-.4933-.8-1.1467-.8-1.96 0-.5333.16-1.0333.48-1.5.32-.48.793-.8667 1.42-1.16.64-.3067 1.4-.46 2.28-.46.893 0 1.666.1467 2.32.44.653.28 1.146.62 1.48 1.02.346.3867.52.7333.52 1.04 0 .12-.047.2267-.14.32-.08.08-.18.12-.3.12h-1.48c-.107 0-.22-.0467-.34-.14-.094-.0667-.24-.1933-.44-.38s-.434-.3333-.7-.44c-.267-.1067-.58-.16-.94-.16-.494 0-.88.1067-1.16.32-.267.2133-.4.4933-.4.84 0 .2533.066.46.2.62.133.16.393.3133.78.46.386.1467.966.2933 1.74.44 1.28.2533 2.193.6467 2.74 1.18.56.5333.84 1.1867.84 1.96 0 .9333-.407 1.6933-1.22 2.28-.814.5867-1.954.88-3.42.88z" fill="var(--on_surface)"/>
    <path fill="var(--divider_no_alpha)" fill-opacity=".2" d="M8 87h372v1H8z"/>
  </g>
  <path d="M28.096 249c-.1067 0-.1973-.037-.272-.112-.0747-.075-.112-.165-.112-.272v-8.848h-2.96c-.1067 0-.1973-.037-.272-.112-.0747-.075-.112-.165-.112-.272V238.2c0-.117.032-.213.096-.288.0747-.075.1707-.112.288-.112h8.16c.1173 0 .2133.037.288.112.0747.075.112.171.112.288v1.184c0 .107-.0373.197-.112.272-.0747.075-.1707.112-.288.112h-2.944v8.848c0 .107-.0373.197-.112.272-.0747.075-.1707.112-.288.112h-1.472zm7.0163 0c-.1067 0-.1974-.037-.272-.112-.0747-.075-.112-.165-.112-.272v-10.592c0-.117.0373-.208.112-.272.0746-.075.1653-.112.272-.112h1.424c.1173 0 .208.037.272.112.0746.064.112.155.112.272v3.648c.64-.768 1.504-1.152 2.592-1.152.9813 0 1.7653.325 2.352.976.5866.64.88 1.515.88 2.624v4.496c0 .107-.0374.197-.112.272-.064.075-.1547.112-.272.112h-1.44c-.1067 0-.1974-.037-.272-.112-.0747-.075-.112-.165-.112-.272v-4.4c0-.629-.1547-1.115-.464-1.456-.2987-.352-.736-.528-1.312-.528-.5654 0-1.0134.176-1.344.528-.3307.352-.496.837-.496 1.456v4.4c0 .107-.0374.197-.112.272-.064.075-.1547.112-.272.112h-1.424zm13.4965.16c-1.184 0-2.128-.341-2.832-1.024-.6934-.693-1.0614-1.664-1.104-2.912l-.016-.4.016-.4c.0533-1.216.4266-2.171 1.12-2.864.704-.693 1.6426-1.04 2.816-1.04 1.2586 0 2.2293.384 2.912 1.152.6933.768 1.04 1.792 1.04 3.072v.336c0 .107-.0374.197-.112.272-.0747.075-.1707.112-.288.112h-5.312v.128c.0213.587.1813 1.083.48 1.488.3093.395.7306.592 1.264.592.6293 0 1.136-.245 1.52-.736.096-.117.1706-.192.224-.224.064-.032.1546-.048.272-.048h1.376c.096 0 .176.032.24.096.0746.053.112.123.112.208 0 .256-.1547.56-.464.912-.2987.341-.7307.64-1.296.896-.5654.256-1.2214.384-1.968.384zm1.776-5.04v-.048c0-.629-.16-1.136-.48-1.52-.3094-.384-.7414-.576-1.296-.576-.5547 0-.9867.192-1.296.576-.3094.384-.464.891-.464 1.52v.048h3.536zm4.5083 4.88c-.1066 0-.1973-.037-.272-.112-.0746-.075-.112-.165-.112-.272v-7.552c0-.107.0374-.197.112-.272.0747-.075.1654-.112.272-.112h1.248c.1067 0 .1974.037.272.112.0747.075.112.165.112.272v.544c.5547-.725 1.328-1.088 2.32-1.088 1.184 0 2.0107.475 2.48 1.424.256-.427.6187-.768 1.088-1.024.4694-.267.976-.4 1.52-.4.8747 0 1.5894.299 2.144.896.5547.597.832 1.467.832 2.608v4.592c0 .107-.0373.197-.112.272-.064.075-.1546.112-.272.112h-1.312c-.1066 0-.1973-.037-.272-.112-.0746-.075-.112-.165-.112-.272v-4.464c0-.672-.144-1.157-.432-1.456-.2773-.309-.6506-.464-1.12-.464-.416 0-.7733.155-1.072.464-.288.309-.432.795-.432 1.456v4.464c0 .107-.0373.197-.112.272-.0746.075-.1653.112-.272.112h-1.312c-.1066 0-.1973-.037-.272-.112-.0746-.075-.112-.165-.112-.272v-4.464c0-.672-.1493-1.157-.448-1.456-.288-.309-.656-.464-1.104-.464-.4266 0-.7893.155-1.088.464-.288.309-.432.795-.432 1.456v4.464c0 .107-.0373.197-.112.272-.0746.075-.1653.112-.272.112h-1.344zm17.8875.16c-1.184 0-2.128-.341-2.832-1.024-.6933-.693-1.0613-1.664-1.104-2.912l-.016-.4.016-.4c.0534-1.216.4267-2.171 1.12-2.864.704-.693 1.6427-1.04 2.816-1.04 1.2587 0 2.2294.384 2.912 1.152.6934.768 1.04 1.792 1.04 3.072v.336c0 .107-.0373.197-.112.272-.0746.075-.1706.112-.288.112h-5.312v.128c.0214.587.1814 1.083.48 1.488.3094.395.7307.592 1.264.592.6294 0 1.136-.245 1.52-.736.096-.117.1707-.192.224-.224.064-.032.1547-.048.272-.048h1.376c.096 0 .176.032.24.096.0747.053.112.123.112.208 0 .256-.1546.56-.464.912-.2986.341-.7306.64-1.296.896-.5653.256-1.2213.384-1.968.384zm1.776-5.04v-.048c0-.629-.16-1.136-.48-1.52-.3093-.384-.7413-.576-1.296-.576-.5546 0-.9866.192-1.296.576-.3093.384-.464.891-.464 1.52v.048h3.536z" fill="var(--on_surface)"/>
  <path d="M24.56 121c-.0853 0-.1653-.032-.24-.096-.064-.064-.096-.144-.096-.24l.032-.144 3.856-10.32c.0747-.267.2613-.4.56-.4h1.744c.2773 0 .464.133.56.4l3.856 10.32c.0107.032.016.08.016.144 0 .096-.032.176-.096.24s-.1387.096-.224.096h-1.392c-.1387 0-.2453-.032-.32-.096-.0747-.064-.1227-.133-.144-.208l-.752-1.952h-4.752l-.752 1.952c-.0853.203-.24.304-.464.304H24.56zm6.8-4.096l-1.824-4.944-1.808 4.944h3.632zm8.546 4.256c-1.1733 0-2.112-.325-2.816-.976-.6933-.651-1.0613-1.552-1.104-2.704l-.016-.64.016-.64c.0427-1.152.4107-2.053 1.104-2.704.704-.651 1.6427-.976 2.816-.976.832 0 1.536.149 2.112.448.5867.299 1.0187.667 1.296 1.104.288.427.4427.832.464 1.216.0107.107-.0267.197-.112.272-.0747.075-.1653.112-.272.112h-1.408c-.1067 0-.192-.021-.256-.064-.0533-.053-.1067-.139-.16-.256-.16-.416-.3733-.715-.64-.896-.256-.181-.5867-.272-.992-.272-.544 0-.9707.176-1.28.528-.3093.341-.4747.864-.496 1.568l-.016.592.016.528c.0427 1.397.6347 2.096 1.776 2.096.416 0 .752-.091 1.008-.272.256-.181.464-.48.624-.896.0533-.117.1067-.197.16-.24.064-.053.1493-.08.256-.08h1.408c.1067 0 .1973.037.272.112.0853.075.1227.165.112.272-.0213.373-.1707.773-.448 1.2-.2773.427-.704.795-1.28 1.104-.576.309-1.2907.464-2.144.464zm9.3906 0c-1.1733 0-2.112-.325-2.816-.976-.6933-.651-1.0613-1.552-1.104-2.704l-.016-.64.016-.64c.0427-1.152.4107-2.053 1.104-2.704.704-.651 1.6427-.976 2.816-.976.832 0 1.536.149 2.112.448.5867.299 1.0187.667 1.296 1.104.288.427.4427.832.464 1.216.0107.107-.0266.197-.112.272-.0746.075-.1653.112-.272.112h-1.408c-.1066 0-.192-.021-.256-.064-.0533-.053-.1066-.139-.16-.256-.16-.416-.3733-.715-.64-.896-.256-.181-.5866-.272-.992-.272-.544 0-.9706.176-1.28.528-.3093.341-.4746.864-.496 1.568l-.016.592.016.528c.0427 1.397.6347 2.096 1.776 2.096.416 0 .752-.091 1.008-.272.256-.181.464-.48.624-.896.0534-.117.1067-.197.16-.24.064-.053.1494-.08.256-.08h1.408c.1067 0 .1974.037.272.112.0854.075.1227.165.112.272-.0213.373-.1706.773-.448 1.2-.2773.427-.704.795-1.28 1.104-.576.309-1.2906.464-2.144.464zm9.4707 0c-1.248 0-2.2134-.32-2.896-.96-.6827-.651-1.0507-1.536-1.104-2.656l-.016-.704.016-.704c.0533-1.109.4266-1.989 1.12-2.64.6933-.651 1.6533-.976 2.88-.976 1.2266 0 2.1866.325 2.88.976.6933.651 1.0666 1.531 1.12 2.64.0106.128.016.363.016.704 0 .341-.0054.576-.016.704-.0534 1.12-.4214 2.005-1.104 2.656-.6827.64-1.648.96-2.896.96zm0-1.584c.5653 0 1.0026-.176 1.312-.528.3093-.363.48-.891.512-1.584.0106-.107.016-.315.016-.624s-.0054-.517-.016-.624c-.032-.693-.2027-1.216-.512-1.568-.3094-.363-.7467-.544-1.312-.544-.5654 0-1.0027.181-1.312.544-.3094.352-.48.875-.512 1.568l-.016.624.016.624c.032.693.2026 1.221.512 1.584.3093.352.7466.528 1.312.528zm9.1267 1.584c-.9813 0-1.7547-.32-2.32-.96-.5653-.651-.848-1.531-.848-2.64v-4.496c0-.107.0373-.197.112-.272.0747-.075.1653-.112.272-.112h1.408c.1173 0 .208.037.272.112.0747.064.112.155.112.272v4.4c0 1.323.5813 1.984 1.744 1.984.5547 0 .992-.176 1.312-.528.3307-.352.496-.837.496-1.456v-4.4c0-.107.0373-.197.112-.272.0747-.075.1653-.112.272-.112h1.408c.1173 0 .208.037.272.112.0747.064.112.155.112.272v7.552c0 .107-.0373.197-.112.272-.064.075-.1547.112-.272.112H70.95c-.1067 0-.1973-.037-.272-.112-.0747-.075-.112-.165-.112-.272v-.656c-.5973.8-1.488 1.2-2.672 1.2zm7.4835-.16c-.1067 0-.1973-.037-.272-.112-.0747-.075-.112-.165-.112-.272v-7.552c0-.107.0373-.197.112-.272.0747-.075.1653-.112.272-.112h1.312c.1067 0 .1973.037.272.112.0747.075.112.165.112.272v.656c.6293-.8 1.52-1.2 2.672-1.2.9813 0 1.76.325 2.336.976.576.64.864 1.515.864 2.624v4.496c0 .107-.0373.197-.112.272-.064.075-.1547.112-.272.112h-1.408c-.1067 0-.1973-.037-.272-.112-.0747-.075-.112-.165-.112-.272v-4.4c0-.629-.1547-1.115-.464-1.456-.2987-.352-.736-.528-1.312-.528-.5653 0-1.0133.176-1.344.528-.32.352-.48.837-.48 1.456v4.4c0 .107-.0373.197-.112.272-.064.075-.1547.112-.272.112h-1.408zm13.5166 0c-.9706 0-1.7013-.251-2.192-.752-.48-.512-.72-1.259-.72-2.24v-3.632h-1.264c-.1066 0-.1973-.037-.272-.112-.0746-.085-.112-.181-.112-.288v-.912c0-.107.0374-.197.112-.272.0747-.075.1654-.112.272-.112h1.264v-2.656c0-.117.0374-.208.112-.272.0747-.075.1654-.112.272-.112h1.296c.1174 0 .208.037.272.112.0747.064.112.155.112.272v2.656h2c.1174 0 .208.037.272.112.0747.064.112.155.112.272v.912c0 .117-.0373.213-.112.288-.0746.075-.1653.112-.272.112h-2v3.472c0 .459.08.805.24 1.04.16.235.4267.352.8.352h1.104c.1067 0 .1974.037.272.112.0747.075.112.165.112.272v.992c0 .107-.0373.197-.112.272-.064.075-.1546.112-.272.112h-1.296z" fill="var(--on_surface)" opacity=".3"/>
  <g opacity=".3">
    <path d="M8 144h372v72H8v-72z" fill="var(--surface)"/>
    <path d="M81.632 175c-.1067 0-.1973-.037-.272-.112-.0747-.075-.112-.165-.112-.272V164.2c0-.117.032-.213.096-.288.0747-.075.1707-.112.288-.112h4.144c1.3013 0 2.32.304 3.056.912.7467.608 1.12 1.472 1.12 2.592 0 .779-.192 1.435-.576 1.968-.3733.523-.896.901-1.568 1.136l2.336 4.08c.032.064.048.123.048.176 0 .096-.0373.176-.112.24-.064.064-.1387.096-.224.096H88.4c-.1707 0-.304-.037-.4-.112-.0853-.075-.1653-.181-.24-.32l-2.064-3.792h-2.224v3.84c0 .107-.0373.197-.112.272-.064.075-.1547.112-.272.112h-1.456zm4.096-6.032c.64 0 1.12-.144 1.44-.432.3307-.288.496-.704.496-1.248s-.1653-.965-.496-1.264c-.32-.299-.8-.448-1.44-.448h-2.256v3.392h2.256zm9.9299 6.192c-1.248 0-2.2134-.32-2.896-.96-.6827-.651-1.0507-1.536-1.104-2.656l-.016-.704.016-.704c.0533-1.109.4266-1.989 1.12-2.64.6933-.651 1.6533-.976 2.88-.976 1.2266 0 2.1866.325 2.88.976.6933.651 1.0666 1.531 1.12 2.64.0106.128.016.363.016.704 0 .341-.0054.576-.016.704-.0534 1.12-.4214 2.005-1.104 2.656-.6827.64-1.648.96-2.896.96zm0-1.584c.5653 0 1.0026-.176 1.312-.528.3093-.363.48-.891.512-1.584.0106-.107.016-.315.016-.624s-.0054-.517-.016-.624c-.032-.693-.2027-1.216-.512-1.568-.3094-.363-.7467-.544-1.312-.544-.5654 0-1.0027.181-1.312.544-.3094.352-.48.875-.512 1.568l-.016.624.016.624c.032.693.2026 1.221.512 1.584.3093.352.7466.528 1.312.528zm10.6471 1.584c-1.099 0-1.952-.379-2.56-1.136v.592c0 .107-.038.197-.112.272-.064.075-.155.112-.272.112h-1.264c-.107 0-.198-.037-.272-.112-.075-.075-.112-.165-.112-.272v-10.592c0-.117.037-.208.112-.272.074-.075.165-.112.272-.112h1.36c.117 0 .208.037.272.112.074.064.112.155.112.272v3.552c.608-.704 1.429-1.056 2.464-1.056 1.077 0 1.904.352 2.48 1.056.576.704.885 1.616.928 2.736.01.128.016.299.016.512 0 .224-.006.4-.016.528-.043 1.152-.352 2.075-.928 2.768-.576.693-1.403 1.04-2.48 1.04zm-.592-1.712c1.152 0 1.765-.709 1.84-2.128.01-.107.016-.267.016-.48 0-.213-.006-.373-.016-.48-.075-1.419-.688-2.128-1.84-2.128-.598 0-1.056.192-1.376.576-.31.373-.475.827-.496 1.36l-.016.608.016.624c.032.576.197 1.061.496 1.456.298.395.757.592 1.376.592zm9.63 1.712c-1.184 0-2.128-.341-2.832-1.024-.693-.693-1.061-1.664-1.104-2.912l-.016-.4.016-.4c.053-1.216.427-2.171 1.12-2.864.704-.693 1.643-1.04 2.816-1.04 1.259 0 2.229.384 2.912 1.152.693.768 1.04 1.792 1.04 3.072v.336c0 .107-.037.197-.112.272-.075.075-.171.112-.288.112h-5.312v.128c.021.587.181 1.083.48 1.488.309.395.731.592 1.264.592.629 0 1.136-.245 1.52-.736.096-.117.171-.192.224-.224.064-.032.155-.048.272-.048h1.376c.096 0 .176.032.24.096.075.053.112.123.112.208 0 .256-.155.56-.464.912-.299.341-.731.64-1.296.896-.565.256-1.221.384-1.968.384zm1.776-5.04v-.048c0-.629-.16-1.136-.48-1.52-.309-.384-.741-.576-1.296-.576s-.987.192-1.296.576c-.309.384-.464.891-.464 1.52v.048h3.536zm4.509 4.88c-.107 0-.198-.037-.272-.112-.075-.075-.113-.165-.113-.272v-7.536c0-.107.038-.197.113-.272.074-.085.165-.128.272-.128h1.296c.117 0 .213.037.288.112.074.075.112.171.112.288v.656c.256-.341.576-.603.96-.784.394-.181.842-.272 1.344-.272h.656c.117 0 .208.037.272.112.074.064.112.155.112.272v1.152c0 .107-.038.197-.112.272-.064.075-.155.112-.272.112h-1.248c-.502 0-.896.144-1.184.432-.288.288-.432.683-.432 1.184v4.4c0 .107-.038.197-.112.272-.075.075-.171.112-.288.112h-1.392zm10.297 0c-.97 0-1.701-.251-2.192-.752-.48-.512-.72-1.259-.72-2.24v-3.632h-1.264c-.106 0-.197-.037-.272-.112-.074-.085-.112-.181-.112-.288v-.912c0-.107.038-.197.112-.272.075-.075.166-.112.272-.112h1.264v-2.656c0-.117.038-.208.112-.272.075-.075.166-.112.272-.112h1.296c.118 0 .208.037.272.112.075.064.112.155.112.272v2.656h2c.118 0 .208.037.272.112.075.064.112.155.112.272v.912c0 .117-.037.213-.112.288-.074.075-.165.112-.272.112h-2v3.472c0 .459.08.805.24 1.04.16.235.427.352.8.352h1.104c.107 0 .198.037.272.112.075.075.112.165.112.272v.992c0 .107-.037.197-.112.272-.064.075-.154.112-.272.112h-1.296zm11.768.16c-1.472 0-2.613-.379-3.424-1.136-.8-.757-1.227-1.824-1.28-3.2-.011-.288-.016-.757-.016-1.408 0-.661.005-1.141.016-1.44.053-1.365.485-2.427 1.296-3.184.821-.768 1.957-1.152 3.408-1.152.949 0 1.776.165 2.48.496.704.32 1.248.763 1.632 1.328.384.555.587 1.184.608 1.888v.032c0 .085-.037.16-.112.224-.064.053-.139.08-.224.08h-1.52c-.128 0-.224-.027-.288-.08-.064-.053-.117-.155-.16-.304-.171-.672-.453-1.141-.848-1.408-.395-.277-.923-.416-1.584-.416-1.536 0-2.336.859-2.4 2.576-.011.288-.016.731-.016 1.328 0 .597.005 1.051.016 1.36.064 1.717.864 2.576 2.4 2.576.661 0 1.189-.139 1.584-.416.405-.277.688-.747.848-1.408.032-.149.08-.251.144-.304.075-.053.176-.08.304-.08h1.52c.096 0 .176.032.24.096.075.064.107.144.096.24-.021.704-.224 1.339-.608 1.904-.384.555-.928.997-1.632 1.328-.704.32-1.531.48-2.48.48zm7.076-.16c-.107 0-.198-.037-.272-.112-.075-.075-.112-.165-.112-.272v-10.592c0-.117.037-.208.112-.272.074-.075.165-.112.272-.112h1.328c.117 0 .208.037.272.112.074.064.112.155.112.272v10.592c0 .107-.038.197-.112.272-.064.075-.155.112-.272.112h-1.328zm5.588 3.04c-.085 0-.16-.032-.224-.096s-.096-.139-.096-.224c0-.096.021-.181.064-.256l1.248-2.96-3.072-7.248c-.043-.096-.064-.171-.064-.224.011-.096.048-.176.112-.24.064-.075.144-.112.24-.112h1.296c.203 0 .347.101.432.304l2.128 5.232 2.192-5.232c.085-.203.229-.304.432-.304h1.28c.085 0 .16.032.224.096.075.064.112.139.112.224 0 .075-.021.16-.064.256l-4.528 10.48c-.096.203-.245.304-.448.304h-1.264zm10.74-2.88c-1.077 0-1.904-.347-2.48-1.04-.576-.693-.885-1.616-.928-2.768l-.016-.528.016-.512c.032-1.12.336-2.032.912-2.736.587-.704 1.419-1.056 2.496-1.056 1.035 0 1.856.352 2.464 1.056v-3.552c0-.117.037-.208.112-.272.075-.075.165-.112.272-.112h1.36c.117 0 .208.037.272.112.075.064.112.155.112.272v10.592c0 .107-.037.197-.112.272-.064.075-.155.112-.272.112h-1.264c-.107 0-.197-.037-.272-.112-.075-.075-.112-.165-.112-.272v-.592c-.608.757-1.461 1.136-2.56 1.136zm.592-1.712c.619 0 1.077-.197 1.376-.592.299-.395.464-.88.496-1.456.011-.128.016-.336.016-.624 0-.277-.005-.48-.016-.608-.021-.533-.192-.987-.512-1.36-.309-.384-.763-.576-1.36-.576-1.152 0-1.765.709-1.84 2.128l-.016.48.016.48c.075 1.419.688 2.128 1.84 2.128zm9.967 1.712c-1.184 0-2.128-.341-2.832-1.024-.694-.693-1.062-1.664-1.104-2.912l-.016-.4.016-.4c.053-1.216.426-2.171 1.12-2.864.704-.693 1.642-1.04 2.816-1.04 1.258 0 2.229.384 2.912 1.152.693.768 1.04 1.792 1.04 3.072v.336c0 .107-.038.197-.112.272-.075.075-.171.112-.288.112h-5.312v.128c.021.587.181 1.083.48 1.488.309.395.73.592 1.264.592.629 0 1.136-.245 1.52-.736.096-.117.17-.192.224-.224.064-.032.154-.048.272-.048h1.376c.096 0 .176.032.24.096.074.053.112.123.112.208 0 .256-.155.56-.464.912-.299.341-.731.64-1.296.896-.566.256-1.222.384-1.968.384zm1.776-5.04v-.048c0-.629-.16-1.136-.48-1.52-.31-.384-.742-.576-1.296-.576-.555 0-.987.192-1.296.576-.31.384-.464.891-.464 1.52v.048h3.536z" fill="var(--on_surface)"/>
    <path opacity=".6" d="M83.976 197.14c-.9987 0-1.7827-.28-2.352-.84-.56-.569-.8587-1.363-.896-2.38l-.014-.56.014-.56c.0373-1.017.336-1.806.896-2.366.5693-.569 1.3533-.854 2.352-.854.672 0 1.2413.121 1.708.364.4667.243.812.541 1.036.896.2333.355.3593.709.378 1.064.0093.093-.0187.168-.084.224-.0653.056-.1447.084-.238.084h-.672c-.0933 0-.1633-.019-.21-.056-.0467-.037-.0933-.112-.14-.224-.1587-.448-.3827-.765-.672-.952-.2893-.196-.6533-.294-1.092-.294-.5787 0-1.0407.182-1.386.546-.336.355-.518.901-.546 1.638l-.014.504.014.476c.028.747.21 1.297.546 1.652.336.355.798.532 1.386.532.4387 0 .8027-.093 1.092-.28.2893-.196.5133-.518.672-.966.0467-.112.0933-.187.14-.224.0467-.047.1167-.07.21-.07h.672c.0933 0 .1727.033.238.098.0653.056.0933.131.084.224-.0187.345-.1447.7-.378 1.064-.224.355-.5693.653-1.036.896-.4573.243-1.0267.364-1.708.364zm5.3706-.14c-.0933 0-.1727-.028-.238-.084-.056-.065-.084-.145-.084-.238v-9.296c0-.093.028-.168.084-.224.0653-.065.1447-.098.238-.098h.658c.0933 0 .168.033.224.098.0653.056.098.131.098.224v9.296c0 .093-.0327.173-.098.238-.056.056-.1307.084-.224.084h-.658zm4.5923 2.66c-.0747 0-.14-.028-.196-.084-.056-.056-.084-.121-.084-.196 0-.065.0233-.149.07-.252l1.078-2.562-2.674-6.314c-.0467-.121-.07-.201-.07-.238 0-.084.028-.154.084-.21.056-.056.126-.084.21-.084h.686c.1493 0 .2613.079.336.238l2.128 5.096 2.184-5.096c.0747-.159.1913-.238.35-.238h.658c.084 0 .154.028.21.084.056.056.084.121.084.196 0 .028-.0233.112-.07.252l-3.976 9.17c-.0747.159-.1913.238-.35.238h-.658zm9.1141-2.52c-.97 0-1.703-.317-2.198-.952-.494-.635-.756-1.437-.784-2.408l-.014-.42.014-.42c.028-.961.29-1.759.784-2.394.495-.644 1.228-.966 2.198-.966.962 0 1.718.341 2.268 1.022v-3.22c0-.093.028-.168.084-.224.066-.065.145-.098.238-.098h.672c.094 0 .168.033.224.098.066.056.098.131.098.224v9.296c0 .093-.032.173-.098.238-.056.056-.13.084-.224.084h-.63c-.093 0-.172-.028-.238-.084-.056-.065-.084-.145-.084-.238v-.588c-.541.7-1.311 1.05-2.31 1.05zm.294-1.134c.644 0 1.125-.21 1.442-.63.327-.429.504-.938.532-1.526.01-.103.014-.28.014-.532 0-.261-.004-.443-.014-.546-.018-.551-.196-1.031-.532-1.442-.336-.411-.816-.616-1.442-.616-.662 0-1.148.205-1.456.616-.298.411-.462.952-.49 1.624l-.014.406c0 1.764.654 2.646 1.96 2.646zm8.535 1.134c-.962 0-1.732-.294-2.31-.882-.57-.597-.882-1.409-.938-2.436l-.014-.476.014-.462c.065-1.008.382-1.811.952-2.408.578-.597 1.339-.896 2.282-.896 1.036 0 1.838.331 2.408.994.569.653.854 1.54.854 2.66v.238c0 .093-.033.173-.098.238-.056.056-.131.084-.224.084h-4.844v.126c.028.607.21 1.125.546 1.554.345.42.798.63 1.358.63.429 0 .779-.084 1.05-.252.28-.177.485-.359.616-.546.084-.112.144-.177.182-.196.046-.028.126-.042.238-.042h.686c.084 0 .154.023.21.07.056.047.084.112.084.196 0 .205-.131.453-.392.742-.252.289-.612.541-1.078.756-.458.205-.985.308-1.582.308zm1.918-4.312v-.042c0-.644-.178-1.167-.532-1.568-.346-.411-.812-.616-1.4-.616-.588 0-1.055.205-1.4.616-.336.401-.504.924-.504 1.568v.042h3.836zm3.576 4.172c-.094 0-.173-.028-.238-.084-.056-.065-.084-.145-.084-.238v-6.622c0-.093.028-.173.084-.238.065-.065.144-.098.238-.098h.644c.093 0 .172.033.238.098.065.065.098.145.098.238v.616c.382-.635 1.036-.952 1.96-.952h.546c.093 0 .168.033.224.098.065.056.098.131.098.224v.574c0 .093-.033.168-.098.224-.056.056-.131.084-.224.084h-.84c-.504 0-.901.149-1.19.448-.29.289-.434.686-.434 1.19v4.116c0 .093-.033.173-.098.238-.066.056-.145.084-.238.084h-.686zm8.091.14c-1.026 0-1.824-.289-2.394-.868-.56-.579-.858-1.349-.896-2.31l-.014-.602.014-.602c.038-.952.341-1.717.91-2.296.57-.588 1.363-.882 2.38-.882 1.018 0 1.811.294 2.38.882.57.579.873 1.344.91 2.296.01.103.014.303.014.602s-.004.499-.014.602c-.037.961-.34 1.731-.91 2.31-.56.579-1.353.868-2.38.868zm0-1.078c.588 0 1.05-.187 1.386-.56.346-.373.532-.91.56-1.61.01-.093.014-.271.014-.532s-.004-.439-.014-.532c-.028-.7-.214-1.237-.56-1.61-.336-.373-.798-.56-1.386-.56-.588 0-1.054.187-1.4.56-.345.373-.527.91-.546 1.61l-.014.532.014.532c.019.7.201 1.237.546 1.61.346.373.812.56 1.4.56zm8.905 1.078c-1.008 0-1.773-.35-2.296-1.05v.588c0 .093-.032.173-.098.238-.056.056-.13.084-.224.084h-.644c-.093 0-.172-.028-.238-.084-.056-.065-.084-.145-.084-.238v-9.296c0-.093.028-.168.084-.224.066-.065.145-.098.238-.098h.686c.094 0 .168.033.224.098.056.056.084.131.084.224v3.22c.551-.681 1.307-1.022 2.268-1.022.971 0 1.704.322 2.198.966.495.635.761 1.433.798 2.394.01.103.014.243.014.42s-.004.317-.014.42c-.037.971-.303 1.773-.798 2.408-.494.635-1.227.952-2.198.952zm-.294-1.134c.663 0 1.144-.205 1.442-.616.308-.411.476-.952.504-1.624.01-.093.014-.229.014-.406 0-1.764-.653-2.646-1.96-2.646-.625 0-1.106.205-1.442.616-.336.411-.513.891-.532 1.442l-.014.546.014.532c.028.588.201 1.097.518 1.526.327.42.812.63 1.456.63zm8.184 1.134c-.961 0-1.731-.294-2.31-.882-.569-.597-.882-1.409-.938-2.436l-.014-.476.014-.462c.066-1.008.383-1.811.952-2.408.579-.597 1.34-.896 2.282-.896 1.036 0 1.839.331 2.408.994.57.653.854 1.54.854 2.66v.238c0 .093-.032.173-.098.238-.056.056-.13.084-.224.084h-4.844v.126c.028.607.21 1.125.546 1.554.346.42.798.63 1.358.63.43 0 .78-.084 1.05-.252.28-.177.486-.359.616-.546.084-.112.145-.177.182-.196.047-.028.126-.042.238-.042h.686c.084 0 .154.023.21.07.056.047.084.112.084.196 0 .205-.13.453-.392.742-.252.289-.611.541-1.078.756-.457.205-.984.308-1.582.308zm1.918-4.312v-.042c0-.644-.177-1.167-.532-1.568-.345-.411-.812-.616-1.4-.616-.588 0-1.054.205-1.4.616-.336.401-.504.924-.504 1.568v.042h3.836zm3.576 4.172c-.093 0-.172-.028-.238-.084-.056-.065-.084-.145-.084-.238v-6.622c0-.093.028-.173.084-.238.066-.065.145-.098.238-.098h.644c.094 0 .173.033.238.098.066.065.098.145.098.238v.616c.383-.635 1.036-.952 1.96-.952h.546c.094 0 .168.033.224.098.066.056.098.131.098.224v.574c0 .093-.032.168-.098.224-.056.056-.13.084-.224.084h-.84c-.504 0-.9.149-1.19.448-.289.289-.434.686-.434 1.19v4.116c0 .093-.032.173-.098.238-.065.056-.144.084-.238.084h-.686zm8.089 0c-1.475 0-2.212-.821-2.212-2.464v-3.696h-1.092c-.094 0-.173-.028-.238-.084-.056-.065-.084-.145-.084-.238v-.476c0-.093.028-.168.084-.224.065-.065.144-.098.238-.098h1.092v-2.338c0-.093.028-.168.084-.224.065-.065.144-.098.238-.098h.658c.093 0 .168.033.224.098.065.056.098.131.098.224v2.338h1.736c.093 0 .168.033.224.098.065.056.098.131.098.224v.476c0 .093-.033.173-.098.238-.056.056-.131.084-.224.084h-1.736v3.598c0 .467.079.821.238 1.064.158.233.42.35.784.35h.854c.093 0 .168.033.224.098.065.056.098.131.098.224v.504c0 .093-.033.173-.098.238-.056.056-.131.084-.224.084h-.966zm7.595 1.652c-1.475 0-2.628-.373-3.458-1.12-.831-.737-1.316-1.787-1.456-3.15-.028-.271-.042-.672-.042-1.204 0-.56.014-.957.042-1.19.14-1.325.625-2.371 1.456-3.136.84-.775 1.974-1.162 3.402-1.162 1.652 0 2.893.373 3.724 1.12.83.737 1.283 1.797 1.358 3.178.018.373.028.663.028.868 0 .42-.01.742-.028.966-.038.672-.224 1.185-.56 1.54-.327.355-.775.532-1.344.532-.402 0-.728-.084-.98-.252-.252-.168-.444-.35-.574-.546-.159.261-.374.485-.644.672-.262.177-.64.266-1.134.266-.7 0-1.256-.247-1.666-.742-.402-.504-.602-1.209-.602-2.114 0-.905.2-1.61.602-2.114.41-.504.966-.756 1.666-.756.345 0 .625.065.84.196.224.121.42.28.588.476v-.238c0-.093.028-.168.084-.224.065-.065.144-.098.238-.098h.378c.093 0 .168.033.224.098.065.056.098.131.098.224v2.982c0 .383.079.677.238.882.158.205.373.308.644.308.326 0 .55-.121.672-.364.13-.243.2-.518.21-.826.018-.224.028-.513.028-.868 0-.159-.01-.425-.028-.798-.084-1.139-.444-1.988-1.078-2.548-.626-.569-1.62-.854-2.982-.854-1.13 0-2.021.299-2.674.896-.644.588-1.032 1.423-1.162 2.506-.028.233-.042.607-.042 1.12 0 .485.014.863.042 1.134.112 1.073.499 1.904 1.162 2.492.662.579 1.572.868 2.73.868.606 0 1.106-.051 1.498-.154.401-.093.69-.196.868-.308.186-.112.401-.261.644-.448.018-.009.06-.042.126-.098.065-.047.144-.07.238-.07h.56c.084 0 .154.028.21.084.065.056.098.131.098.224 0 .075-.028.14-.084.196-.43.467-.976.84-1.638 1.12-.654.289-1.494.434-2.52.434zm-.126-3.598c.476 0 .816-.159 1.022-.476.214-.327.322-.793.322-1.4 0-.607-.108-1.073-.322-1.4-.206-.327-.546-.49-1.022-.49-.458 0-.794.168-1.008.504-.215.327-.322.789-.322 1.386 0 .551.107 1.003.322 1.358.224.345.56.518 1.008.518zm10.288 5.026c-.765 0-1.381-.131-1.848-.392-.467-.252-.798-.541-.994-.868-.196-.327-.303-.621-.322-.882-.009-.093.019-.173.084-.238.075-.065.154-.098.238-.098h.672c.084 0 .154.019.21.056.056.047.103.126.14.238.112.299.294.555.546.77.261.224.663.336 1.204.336.691 0 1.199-.149 1.526-.448.327-.289.49-.807.49-1.554v-.952c-.243.308-.551.555-.924.742-.373.177-.817.266-1.33.266-.989 0-1.731-.313-2.226-.938-.485-.635-.742-1.437-.77-2.408l-.014-.392.014-.378c.028-.961.289-1.759.784-2.394.495-.644 1.232-.966 2.212-.966.98 0 1.745.359 2.296 1.078v-.602c0-.093.028-.173.084-.238.065-.065.145-.098.238-.098h.644c.093 0 .173.033.238.098s.098.145.098.238v6.79c0 2.156-1.097 3.234-3.29 3.234zm-.028-4.144c.635 0 1.115-.21 1.442-.63.327-.42.504-.919.532-1.498.009-.084.014-.247.014-.49 0-.233-.005-.392-.014-.476-.028-.579-.205-1.078-.532-1.498-.317-.42-.798-.63-1.442-.63-.663 0-1.143.205-1.442.616-.299.411-.462.952-.49 1.624l-.014.364.014.378c.028.663.191 1.204.49 1.624.299.411.779.616 1.442.616zm5.972 1.064c-.094 0-.173-.028-.238-.084-.056-.065-.084-.145-.084-.238v-6.636c0-.093.028-.168.084-.224.065-.065.144-.098.238-.098h.63c.093 0 .168.033.224.098.065.056.098.131.098.224v.49c.485-.635 1.162-.952 2.03-.952 1.036 0 1.768.429 2.198 1.288.224-.392.541-.705.952-.938.41-.233.872-.35 1.386-.35.765 0 1.39.261 1.876.784.485.523.728 1.279.728 2.268v4.046c0 .093-.033.173-.098.238-.056.056-.131.084-.224.084h-.658c-.094 0-.173-.028-.238-.084-.056-.065-.084-.145-.084-.238v-3.92c0-.728-.154-1.251-.462-1.568-.299-.317-.696-.476-1.19-.476-.439 0-.817.163-1.135.49-.317.317-.475.835-.475 1.554v3.92c0 .093-.033.173-.098.238-.056.056-.131.084-.224.084h-.658c-.094 0-.173-.028-.238-.084-.056-.065-.084-.145-.084-.238v-3.92c0-.728-.159-1.251-.476-1.568-.308-.317-.7-.476-1.176-.476-.439 0-.817.163-1.134.49-.318.317-.476.831-.476 1.54v3.934c0 .093-.033.173-.098.238-.056.056-.131.084-.224.084h-.672zm14.399.14c-.457 0-.882-.093-1.274-.28-.392-.187-.705-.439-.938-.756-.224-.327-.336-.686-.336-1.078 0-.616.252-1.12.756-1.512.513-.401 1.204-.663 2.072-.784l2.086-.294v-.406c0-.952-.546-1.428-1.638-1.428-.411 0-.747.089-1.008.266-.261.168-.457.369-.588.602-.028.084-.065.145-.112.182-.037.037-.093.056-.168.056h-.602c-.084 0-.159-.028-.224-.084-.056-.065-.084-.14-.084-.224.009-.224.112-.476.308-.756.205-.289.518-.537.938-.742.42-.215.938-.322 1.554-.322 1.045 0 1.797.247 2.254.742.457.485.686 1.092.686 1.82v4.536c0 .093-.033.173-.098.238-.056.056-.131.084-.224.084h-.644c-.093 0-.173-.028-.238-.084-.056-.065-.084-.145-.084-.238v-.602c-.205.299-.504.551-.896.756-.392.205-.891.308-1.498.308zm.294-1.05c.607 0 1.101-.196 1.484-.588.392-.401.588-.975.588-1.722v-.392l-1.624.238c-.663.093-1.162.252-1.498.476-.336.215-.504.49-.504.826 0 .373.154.663.462.868.308.196.672.294 1.092.294zm5.861-7.728c-.094 0-.173-.028-.238-.084-.056-.065-.084-.145-.084-.238v-.756c0-.093.028-.173.084-.238.065-.065.144-.098.238-.098h.882c.093 0 .172.033.238.098.065.065.098.145.098.238v.756c0 .093-.033.173-.098.238-.066.056-.145.084-.238.084h-.882zm.112 8.638c-.094 0-.173-.028-.238-.084-.056-.065-.084-.145-.084-.238v-6.636c0-.093.028-.168.084-.224.065-.065.144-.098.238-.098h.672c.093 0 .168.033.224.098.065.056.098.131.098.224v6.636c0 .093-.033.173-.098.238-.056.056-.131.084-.224.084h-.672zm3.654 0c-.093 0-.173-.028-.238-.084-.056-.065-.084-.145-.084-.238v-9.296c0-.093.028-.168.084-.224.065-.065.145-.098.238-.098h.658c.093 0 .168.033.224.098.065.056.098.131.098.224v9.296c0 .093-.033.173-.098.238-.056.056-.131.084-.224.084h-.658zm3.542 0c-.093 0-.172-.028-.238-.084-.056-.065-.084-.145-.084-.238v-1.008c0-.093.028-.168.084-.224.066-.065.145-.098.238-.098h1.008c.094 0 .173.033.238.098.066.056.098.131.098.224v1.008c0 .093-.032.173-.098.238-.065.056-.144.084-.238.084h-1.008zm6.357.14c-.999 0-1.783-.28-2.352-.84-.56-.569-.859-1.363-.896-2.38l-.014-.56.014-.56c.037-1.017.336-1.806.896-2.366.569-.569 1.353-.854 2.352-.854.672 0 1.241.121 1.708.364.467.243.812.541 1.036.896.233.355.359.709.378 1.064.009.093-.019.168-.084.224-.065.056-.145.084-.238.084h-.672c-.093 0-.163-.019-.21-.056-.047-.037-.093-.112-.14-.224-.159-.448-.383-.765-.672-.952-.289-.196-.653-.294-1.092-.294-.579 0-1.041.182-1.386.546-.336.355-.518.901-.546 1.638l-.014.504.014.476c.028.747.21 1.297.546 1.652.336.355.798.532 1.386.532.439 0 .803-.093 1.092-.28.289-.196.513-.518.672-.966.047-.112.093-.187.14-.224.047-.047.117-.07.21-.07h.672c.093 0 .173.033.238.098.065.056.093.131.084.224-.019.345-.145.7-.378 1.064-.224.355-.569.653-1.036.896-.457.243-1.027.364-1.708.364zm8.017 0c-1.027 0-1.825-.289-2.394-.868-.56-.579-.859-1.349-.896-2.31l-.014-.602.014-.602c.037-.952.34-1.717.91-2.296.569-.588 1.362-.882 2.38-.882 1.017 0 1.81.294 2.38.882.569.579.872 1.344.91 2.296.009.103.014.303.014.602s-.005.499-.014.602c-.038.961-.341 1.731-.91 2.31-.56.579-1.354.868-2.38.868zm0-1.078c.588 0 1.05-.187 1.386-.56.345-.373.532-.91.56-1.61.009-.093.014-.271.014-.532s-.005-.439-.014-.532c-.028-.7-.215-1.237-.56-1.61-.336-.373-.798-.56-1.386-.56-.588 0-1.055.187-1.4.56-.346.373-.528.91-.546 1.61l-.014.532.014.532c.018.7.2 1.237.546 1.61.345.373.812.56 1.4.56zm5.629.938c-.094 0-.173-.028-.238-.084-.056-.065-.084-.145-.084-.238v-6.636c0-.093.028-.168.084-.224.065-.065.144-.098.238-.098h.63c.093 0 .168.033.224.098.065.056.098.131.098.224v.49c.485-.635 1.162-.952 2.03-.952 1.036 0 1.768.429 2.198 1.288.224-.392.541-.705.952-.938.41-.233.872-.35 1.386-.35.765 0 1.39.261 1.876.784.485.523.728 1.279.728 2.268v4.046c0 .093-.033.173-.098.238-.056.056-.131.084-.224.084h-.658c-.094 0-.173-.028-.238-.084-.056-.065-.084-.145-.084-.238v-3.92c0-.728-.154-1.251-.462-1.568-.299-.317-.696-.476-1.19-.476-.439 0-.817.163-1.134.49-.318.317-.476.835-.476 1.554v3.92c0 .093-.033.173-.098.238-.056.056-.131.084-.224.084h-.658c-.094 0-.173-.028-.238-.084-.056-.065-.084-.145-.084-.238v-3.92c0-.728-.159-1.251-.476-1.568-.308-.317-.7-.476-1.176-.476-.439 0-.817.163-1.134.49-.318.317-.476.831-.476 1.54v3.934c0 .093-.033.173-.098.238-.056.056-.131.084-.224.084h-.672z" fill="var(--on_surface)"/>
    <path d="M349 174.711c-.39.39-.39 1.02 0 1.41l3.88 3.88-3.88 3.88c-.39.39-.39 1.02 0 1.41.39.39 1.02.39 1.41 0l4.59-4.59c.39-.39.39-1.02 0-1.41l-4.59-4.59c-.38-.38-1.02-.38-1.41.01zM32 160h8v8h-8zM32 192h8v8h-8zM24 160h8v8h-8zM24 192h8v8h-8zM24 168h8v8h-8zM24 184h8v8h-8zM32 176h8v8h-8zM48 160h8v8h-8zM48 192h8v8h-8zM56 160h8v8h-8zM56 192h8v8h-8zM56 168h8v8h-8zM56 184h8v8h-8zM48 176h8v8h-8z" fill="var(--primary)"/>
    <path fill="var(--surface)" d="M40 160h8v8h-8zM40 168h8v8h-8zM40 184h8v8h-8zM40 176h8v8h-8zM40 192h8v8h-8zM48 168h8v8h-8zM48 184h8v8h-8zM56 176h8v8h-8zM32 168h8v8h-8zM32 184h8v8h-8zM24 176h8v8h-8z"/>
    <path d="M44 199c-10.4934 0-19-8.507-19-19h-2c0 11.598 9.402 21 21 21v-2zm19-19c0 10.493-8.5066 19-19 19v2c11.598 0 21-9.402 21-21h-2zm-19-19c10.4934 0 19 8.507 19 19h2c0-11.598-9.402-21-21-21v2zm0-2c-11.598 0-21 9.402-21 21h2c0-10.493 8.5066-19 19-19v-2z" fill="var(--divider_no_alpha)" fill-opacity=".2"/>
    <path d="M48 192c0-4.418 3.5817-8 8-8s8 3.582 8 8-3.5817 8-8 8-8-3.582-8-8z" fill="var(--surface)"/>
    <path d="M62.9114 187.98c-.7146-1.224-1.684-2.194-2.9083-2.908-1.2246-.715-2.5614-1.072-4.0114-1.072-1.4499 0-2.7872.357-4.0115 1.072-1.2244.714-2.1937 1.684-2.9084 2.908-.7145 1.225-1.0718 2.562-1.0718 4.011 0 1.742.5081 3.308 1.5244 4.699s2.3292 2.353 3.9386 2.887c.1873.035.326.01.4161-.073.0902-.083.1353-.187.1353-.312 0-.02-.0018-.208-.0053-.562-.0035-.353-.0052-.662-.0052-.926l-.2393.042c-.1526.028-.3452.04-.5776.036-.2323-.003-.4735-.027-.7231-.073-.2498-.044-.4822-.148-.6973-.311-.2149-.163-.3675-.377-.4577-.64l-.1041-.24c-.0693-.159-.1785-.336-.3277-.53-.1492-.195-.3-.326-.4526-.396l-.0729-.052c-.0485-.035-.0936-.076-.1353-.125-.0416-.048-.0727-.097-.0935-.146-.0209-.048-.0036-.088.052-.119.0555-.032.156-.047.3017-.047l.2081.031c.1387.028.3104.111.5151.25.2046.139.3728.319.5046.541.1596.284.352.501.5775.65.2254.149.4527.224.6816.224.2288 0 .4265-.017.5931-.052.1664-.035.3225-.087.4682-.156.0624-.465.2324-.822.5098-1.072-.3953-.042-.7508-.104-1.0665-.187-.3156-.084-.6417-.219-.9781-.406-.3366-.188-.6158-.42-.8377-.697-.222-.278-.4041-.642-.5462-1.093-.1422-.451-.2133-.971-.2133-1.561 0-.84.2741-1.554.8221-2.144-.2567-.631-.2325-1.338.0728-2.122.2012-.063.4995-.016.8949.14.3954.156.685.29.8689.401.1839.111.3312.205.4423.281.6452-.181 1.3112-.271 1.9979-.271.6867 0 1.3528.09 1.9981.271l.3954-.25c.2704-.166.5897-.319.9572-.458.3676-.138.6488-.177.8431-.114.3121.784.3399 1.491.0831 2.122.548.59.8222 1.305.8222 2.144 0 .59-.0714 1.112-.2134 1.566-.1421.455-.3258.819-.5512 1.093-.2257.274-.5067.505-.8431.692-.3364.187-.6626.322-.9782.406-.3157.083-.6711.146-1.0665.187.3606.312.5409.805.5409 1.478v2.195c0 .125.0434.229.1302.312.0867.083.2236.108.411.073 1.6096-.534 2.9224-1.497 3.9387-2.888 1.0161-1.391 1.5244-2.956 1.5244-4.698-.0004-1.449-.3579-2.786-1.0721-4.011z" fill="var(--on_surface)"/>
    <path d="M56 199c-3.866 0-7-3.134-7-7h-2c0 4.971 4.0294 9 9 9v-2zm7-7c0 3.866-3.134 7-7 7v2c4.9706 0 9-4.029 9-9h-2zm-7-7c3.866 0 7 3.134 7 7h2c0-4.971-4.0294-9-9-9v2zm0-2c-4.9706 0-9 4.029-9 9h2c0-3.866 3.134-7 7-7v-2z" fill="var(--surface)"/>
  </g>
  <rect x="8.5" y="16.5" width="371" height="821" rx="35.5" stroke="var(--divider_no_alpha)" stroke-opacity=".12"/>
</svg>
