<svg width="164" height="40" viewBox="0 0 164 40" fill="none" xmlns="http://www.w3.org/2000/svg">
<path d="M0 6.4C0 4.15979 0 3.03968 0.435974 2.18404C0.819467 1.43139 1.43139 0.819467 2.18404 0.435974C3.03968 0 4.15979 0 6.4 0H157.6C159.84 0 160.96 0 161.816 0.435974C162.569 0.819467 163.181 1.43139 163.564 2.18404C164 3.03968 164 4.15979 164 6.4V33.6C164 35.8402 164 36.9603 163.564 37.816C163.181 38.5686 162.569 39.1805 161.816 39.564C160.96 40 159.84 40 157.6 40H6.39999C4.15979 40 3.03968 40 2.18404 39.564C1.43139 39.1805 0.819467 38.5686 0.435974 37.816C0 36.9603 0 35.8402 0 33.6V6.4Z" fill="var(--primary)"/>
</svg>
